<?xml version="1.0" encoding="utf-8" ?>
<svg baseProfile="full" height="200mm" version="1.1" viewBox="0,0,200,200" width="200mm" xmlns="http://www.w3.org/2000/svg" xmlns:ev="http://www.w3.org/2001/xml-events" xmlns:xlink="http://www.w3.org/1999/xlink"><defs /><rect fill="#1a1a1a" height="200" width="200" x="0" y="0" /><text alignment-baseline="middle" fill="#e1ed5e" style="dominant-baseline: central; font-size:9.0px; font-family:Arial;" text-anchor="middle" x="100.0" y="100.0">2022</text><line stroke="#e1ed5e" stroke-width="0.3" x1="100.0" x2="100.0" y1="15.0" y2="10.0" /><path d="M 100.0 14.0 a86.0,86.0 0 0,1 42.46469731375804,11.215312516191453" fill="none" id="id73" stroke="none" /><text fill="#e1ed5e" style="font-size:6.75px; font-family:Arial;" text-anchor="middle"><textPath startOffset="22.20632615414155" xlink:href="#id73">January</textPath></text><line stroke="#e1ed5e" stroke-width="0.3" x1="143.23703022742887" x2="145.7803849466894" y1="26.81831364943548" y2="22.513508569990506" /><path d="M 143.74570117128098 25.957352633546492 a86.0,86.0 0 0,1 28.547481713284135,27.462654790039103" fill="none" id="id74" stroke="none" /><text fill="#e1ed5e" style="font-size:6.75px; font-family:Arial;" text-anchor="middle"><textPath startOffset="19.985693538727396" xlink:href="#id74">February</textPath></text><line stroke="#e1ed5e" stroke-width="0.3" x1="172.23445277983987" x2="176.4835382374775" y1="55.19839476539836" y2="52.563006222186495" /><path d="M 173.08426987136738 54.67131705675599 a86.0,86.0 0 0,1 12.851231095245387,41.99856678651699" fill="none" id="id75" stroke="none" /><text fill="#e1ed5e" style="font-size:6.75px; font-family:Arial;" text-anchor="middle"><textPath startOffset="22.20632615414155" xlink:href="#id75">March</textPath></text><path d="M 119.97218684219823 93.5106431181261 l 5.0251868885969655 -1.63278219735651 a26.283794183097143,26.283794183097143 0 0,0 0.13610564205604453,0.43149207953833296 l -5.052548014421216 1.5460399513917578" fill="#ff3104" stroke="none" /><path d="M 120.28053869075195 94.5502522615342 l 5.929991628479856 -1.5934960584240265 a27.14036077132721,27.14036077132721 0 0,0 0.1173544910666596,0.45221472598957857 l -5.956542451416818 1.4911849068855976" fill="#ff3d05" stroke="none" /><path d="M 120.87857604477298 97.74499172005257 l 5.580733035873616 -0.6027517957682631 a26.613189017394035,26.613189017394035 0 0,0 0.0452714098315933,0.45587691883545856 l -5.590281571387438 0.5065993462283696" fill="#ff3505" stroke="none" /><line stroke="#e1ed5e" stroke-width="0.3" x1="184.98032266829074" x2="189.97916517819016" y1="98.17113171792111" y2="98.06355123074" /><path d="M 185.9800911702706 98.14961562048488 a86.0,86.0 0 0,1 -9.607161424134198,41.387399972396054" fill="none" id="id76" stroke="none" /><text fill="#e1ed5e" style="font-size:6.75px; font-family:Arial;" text-anchor="middle"><textPath startOffset="21.466115282336823" xlink:href="#id76">April</textPath></text><line stroke="#e1ed5e" stroke-width="0.3" x1="174.80103733775053" x2="179.2010983576182" y1="140.37084112569926" y2="142.7455964860345" /><path d="M 175.68104954172406 140.8457921977663 a86.0,86.0 0 0,1 -30.038265399797805,32.042727171017184" fill="none" id="id77" stroke="none" /><text fill="#e1ed5e" style="font-size:6.75px; font-family:Arial;" text-anchor="middle"><textPath startOffset="22.206326154141568" xlink:href="#id77">May</textPath></text><path d="M 117.55443506779139 111.5257021239791 l 5.849056164368182 3.8403103715153155 a27.99710238337996,27.99710238337996 0 0,0 -0.2679681255503558,0.400575989305062 l -5.782084933407106 -3.940423275026184" fill="#ff4906" stroke="none" /><line stroke="#e1ed5e" stroke-width="0.3" x1="143.8653032363475" x2="146.44561519142675" y1="172.8068346515853" y2="177.08958963109032" /><path d="M 144.38136562736335 173.6633856474863 a86.0,86.0 0 0,1 -40.68145358897372,12.25698825130547" fill="none" id="id78" stroke="none" /><text fill="#e1ed5e" style="font-size:6.75px; font-family:Arial;" text-anchor="middle"><textPath startOffset="21.466115282336833" xlink:href="#id78">June</textPath></text><line stroke="#e1ed5e" stroke-width="0.3" x1="102.19456741930631" x2="102.32365962044197" y1="184.97166512339345" y2="189.96999836594603" /><path d="M 102.22038585953345 185.97133177190398 a86.0,86.0 0 0,1 -42.740103519485714,-10.115201625700543" fill="none" id="id79" stroke="none" /><text fill="#e1ed5e" style="font-size:6.75px; font-family:Arial;" text-anchor="middle"><textPath startOffset="22.20632615414155" xlink:href="#id79">July</textPath></text><line stroke="#e1ed5e" stroke-width="0.3" x1="58.666819895761336" x2="56.23545636021788" y1="174.27360380694188" y2="178.64263932499728" /><path d="M 58.180547188652646 175.14741091055294 a86.0,86.0 0 0,1 -31.652253787137756,-30.449443065178592" fill="none" id="id80" stroke="none" /><text fill="#e1ed5e" style="font-size:6.75px; font-family:Arial;" text-anchor="middle"><textPath startOffset="22.20632615414155" xlink:href="#id80">August</textPath></text><path d="M 82.05923443525364 110.91462005526583 l -2.9450785126023624 1.7916968415855135 a24.447269211642695,24.447269211642695 0 0,0 -0.2156238949976208,-0.361398050679281 l 2.9754832832982148 -1.7407366970201212" fill="#ff1602" stroke="none" /><line stroke="#e1ed5e" stroke-width="0.3" x1="26.63291911575756" x2="22.317208475507996" y1="142.92168965132927" y2="145.44649492493687" /><path d="M 25.769776987707644 143.4266507060508 a86.0,86.0 0 0,1 -11.730757126820373,-40.83630448921669" fill="none" id="id81" stroke="none" /><text fill="#e1ed5e" style="font-size:6.75px; font-family:Arial;" text-anchor="middle"><textPath startOffset="21.46611528233685" xlink:href="#id81">September</textPath></text><path d="M 81.02952815118164 109.00673069616217 l -4.065451208486712 1.9301799388562706 a25.500387552750237,25.500387552750237 0 0,0 -0.18484791742620565,-0.3981459692933134 l 4.098073742752744 -1.8599139022841302" fill="#ff2503" stroke="none" /><path d="M 80.58989483394504 108.01547362559985 l -4.858848915511784 2.0064793570087995 a26.25684051440335,26.25684051440335 0 0,0 -0.16891573863602846,-0.4192350106157182 l 4.8926672684052 -1.922544978550276" fill="#ff3004" stroke="none" /><path d="M 79.76711848015287 105.62410040840567 l -5.6266871685818804 1.5640408694011578 a26.840019891596356,26.840019891596356 0 0,0 -0.11990066176455622,-0.44619496656691315 l 5.652775906688212 -1.4669549696587056" fill="#ff3905" stroke="none" /><path d="M 79.67330655649465 105.27499134158121 l -8.12348300721091 2.1081295216862346 a29.392567321663225,29.392567321663225 0 0,0 -0.12287308831727745,-0.49081690896882185 l 8.158567409823245 -1.967984773320021" fill="#ff5d08" stroke="none" /><path d="M 79.58551787078972 104.9243191809786 l -4.114078120780091 0.9923853896452237 a25.2320760325711,25.2320760325711 0 0,0 -0.09821217215712214,-0.42309546720152963 l 4.130550858867768 -0.9214212650951198" fill="#ff2103" stroke="none" /><path d="M 79.50377843672027 104.57218783832718 l -9.754283895459402 2.1759336500494797 a30.994035299249063,30.994035299249063 0 0,0 -0.11167587974887123,-0.521712531372007 l 9.790293813932715 -2.007707299261309" fill="#ff730a" stroke="none" /><path d="M 79.4281124754447 104.21870165774334 l -1.9197898431656992 0.39369360658883157 a22.95974174262608,22.95974174262608 0 0,0 -0.07606241770932785,-0.3878406292029274 l 1.9262821938506935 -0.36058925031794936" fill="#ff0000" stroke="none" /><path d="M 79.29508885075956 103.50808413554451 l -5.626635288682073 0.9533346871398962 a26.706826762531566,26.706826762531566 0 0,0 -0.07289468840977324,-0.4539152943110792 l 5.642211731453137 -0.8563401631356033" fill="#ff3705" stroke="none" /><path d="M 79.18660465613746 102.79330883721812 l -4.631090471995618 0.6215259801518448 a25.67261099427422,25.67261099427422 0 0,0 -0.05501089278262446,-0.4384909411777162 l 4.641102874025091 -0.5417172846867199" fill="#ff2803" stroke="none" /><path d="M 79.1416061653843 102.43462659150553 l -40.65923903766283 4.745814339126825 a61.93527174532089,61.93527174532089 0 0,0 -0.11448498595525174,-1.0599887843016123 l 40.734906325119134 -4.0452292329404305" fill="#31ff41" stroke="none" /><path d="M 79.10278846688536 102.07522291339032 l -34.26546807604459 3.4027738283057727 a55.434011851613135,55.434011851613135 0 0,0 -0.08612176269715567,-0.9503464749523851 l 34.31896443501882 -2.8124459648048212" fill="#63ff29" stroke="none" /><path d="M 79.07016306316243 101.71520430193888 l -37.99387192032951 3.1136053645198905 a59.12123872415967,59.12123872415967 0 0,0 -0.07438983729141231,-1.014990226840359 l 38.04183831628526 -2.4591420011827707" fill="#3dff2e" stroke="none" /><path d="M 79.0235259727143 100.99374915477108 l -48.57781239415058 2.30134768810627 a69.63229439562606,69.63229439562606 0 0,0 -0.046414457438859254,-1.1977509084914233 l 48.61022898444064 -1.46481953260085" fill="#3bff9a" stroke="none" /><path d="M 79.0095281055655 100.63252640178507 l -52.71424992205331 1.5884900060220333 a73.73817825203986,73.73817825203986 0 0,0 -0.027310996579338692,-1.2690346945414306 l 52.73378298131766 -0.6808654956904737" fill="#40ffc7" stroke="none" /><line stroke="#e1ed5e" stroke-width="0.3" x1="15.007084014347285" x2="10.007500721073583" y1="101.09737516637583" y2="101.16192664675087" /><path d="M 14.007167355692545 101.11028546245083 a86.0,86.0 0 0,1 10.666146001902534,-42.60595125391555" fill="none" id="id82" stroke="none" /><text fill="#e1ed5e" style="font-size:6.75px; font-family:Arial;" text-anchor="middle"><textPath startOffset="22.20632615414155" xlink:href="#id82">October</textPath></text><path d="M 79.00175016825051 100.2711162175752 l -43.88601604781343 0.5666286843267156 a64.88967387227706,64.88967387227706 0 0,0 -0.004807097215541282,-1.1170000984420365 l 43.88926744231847 0.18888089231899616" fill="#35ff64" stroke="none" /><path d="M 79.00019446554 99.90962569577889 l -5.4277885259494205 -0.023358912095024442 a26.427838789168526,26.427838789168526 0 0,0 0.005873263596343351,-0.4548907381003553 l 5.4265822552353615 0.11678590825585168" fill="#ff3304" stroke="none" /><path d="M 79.00486145842228 99.54816195383935 l -50.402891110764045 -1.0847246278101557 a71.41456198204756,71.41456198204756 0 0,0 0.03702778910365751,-1.2287720548896115 l 50.37675162720474 1.9521668301247617" fill="#3dffae" stroke="none" /><path d="M 79.03285615573316 98.82574320788736 l -11.762945680849345 -0.6587792292351884 a32.78137857652847,32.78137857652847 0 0,0 0.03640201783167786,-0.5631231039415787 l 11.749863072013254 0.8611613974297788" fill="#ff8b0c" stroke="none" /><path d="M 79.16333360222342 97.38593545837743 l -45.34189572854318 -5.688368744367856 a66.69731991298815,66.69731991298815 0 0,0 0.15271780921600375,-1.1379250646794858 l 45.23726192026934 6.468012151112001" fill="#37ff79" stroke="none" /><path d="M 79.21141760316559 97.0276538004421 l -31.458099916090056 -4.497871088369233 a52.77802534233827,52.77802534233827 0 0,0 0.13632842051109548,-0.898233957311636 l 31.37601560213966 5.03870415807296" fill="#7fff26" stroke="none" /><path d="M 79.26566170972629 96.67025291283419 l -48.76205125733599 -7.830744143617475 a70.38682209522963,70.38682209522963 0 0,0 0.20240615046848348,-1.194612557620254 l 48.62003324534728 8.668942489553558" fill="#3cffa3" stroke="none" /><path d="M 79.32604984820605 96.31383870115002 l -40.47080344104812 -7.215936397370647 a62.10907040124905,62.10907040124905 0 0,0 0.1967209455414534,-1.0508911572373445 l 40.34059677159681 7.911505632070564" fill="#31ff43" stroke="none" /><path d="M 79.3925641242962 95.95851677861259 l -42.70545019252825 -8.375295279622174 a64.51897341582603,64.51897341582603 0 0,0 0.2231149179190016,-1.0879875774233463 l 42.55495597869425 9.109158513208921" fill="#34ff60" stroke="none" /><path d="M 79.46518482838121 95.60439243477599 l -43.583890268181754 -9.329408430687634 a65.57121663782013,65.57121663782013 0 0,0 0.2457534666905631,-1.1016646037615174 l 43.41684241448915 10.07825120399911" fill="#36ff6c" stroke="none" /><path d="M 79.54389044137918 95.25157060432595 l -35.4172442752976 -8.221322991483339 a57.3589238535245,57.3589238535245 0 0,0 0.23153120738649655,-0.9598463303929815 l 35.270480267650285 8.829754553535716" fill="#4fff2b" stroke="none" /><path d="M 79.62865764111835 94.90015583598534 l -54.23606525163295 -13.577675735839078 a76.90978494295055,76.90978494295055 0 0,0 0.3325566946612245,-1.2814766029431701 l 53.99431222510142 14.509248764331112" fill="#44ffe8" stroke="none" /><path d="M 79.71946130924805 94.55025226153421 l -60.84161607225587 -16.349243215397365 a84.0,84.0 0 0,0 0.38725291773455695,-1.3931547863242297 l 60.551176383954946 17.394109305140535" fill="#4dd2ff" stroke="none" /><line stroke="#e1ed5e" stroke-width="0.3" x1="26.266209847984243" x2="21.928928074336255" y1="57.711370442889674" y2="55.22380399835377" /><path d="M 25.398753493254645 57.213857153982495 a86.0,86.0 0 0,1 29.58750427330803,-30.492523968695096" fill="none" id="id83" stroke="none" /><text fill="#e1ed5e" style="font-size:6.75px; font-family:Arial;" text-anchor="middle"><textPath startOffset="21.46611528233685" xlink:href="#id83">November</textPath></text><line stroke="#e1ed5e" stroke-width="0.3" x1="56.762969772571076" x2="54.21961505331055" y1="26.818313649435495" y2="22.513508569990535" /><path d="M 56.25429882871897 25.957352633546506 a86.0,86.0 0 0,1 42.265352541879196,-11.944610805530505" fill="none" id="id84" stroke="none" /><text fill="#e1ed5e" style="font-size:6.75px; font-family:Arial;" text-anchor="middle"><textPath startOffset="22.20632615414155" xlink:href="#id84">December</textPath></text></svg>