<?xml version="1.0" encoding="utf-8" ?>
<svg baseProfile="full" height="200mm" version="1.1" viewBox="0,0,200,200" width="200mm" xmlns="http://www.w3.org/2000/svg" xmlns:ev="http://www.w3.org/2001/xml-events" xmlns:xlink="http://www.w3.org/1999/xlink"><defs /><rect fill="#1a1a1a" height="200" width="200" x="0" y="0" /><text alignment-baseline="middle" fill="#e1ed5e" style="dominant-baseline: central; font-size:9.0px; font-family:Arial;" text-anchor="middle" x="100.0" y="100.0">2024</text><line stroke="#e1ed5e" stroke-width="0.3" x1="100.0" x2="100.0" y1="15.0" y2="10.0" /><path d="M 100.0 14.0 a86.0,86.0 0 0,1 42.35913384403234,11.155469271406648" fill="none" id="id97" stroke="none" /><text fill="#e1ed5e" style="font-size:6.75px; font-family:Arial;" text-anchor="middle"><textPath startOffset="22.145653131862478" xlink:href="#id97">January</textPath></text><path d="M 104.64783097203109 79.52079915486377 l 1.3331414674756012 -5.874067286806209 a27.023448568903852,27.023448568903852 0 0,0 0.4515075808520134,0.1065545596896702 l -1.4337812020674996 5.8503165834703115" fill="#ff3705" stroke="none" /><line stroke="#e1ed5e" stroke-width="0.3" x1="143.13028292997686" x2="145.6673583964461" y1="26.7553504044142" y2="22.446841604673864" /><path d="M 143.63769802327073 25.89364864446614 a86.0,86.0 0 0,1 29.32050498858742,28.57503671076993" fill="none" id="id98" stroke="none" /><text fill="#e1ed5e" style="font-size:6.75px; font-family:Arial;" text-anchor="middle"><textPath startOffset="20.669276256404974" xlink:href="#id98">February</textPath></text><path d="M 114.39649973595853 84.71141617570332 l 10.375826881917574 -11.018768585420037 a36.135093148790425,36.135093148790425 0 0,0 0.447950427259524,0.42912637626601285 l -10.563449795042409 10.839030078848443" fill="#ffb510" stroke="none" /><path d="M 114.65682725009322 84.96080404539774 l 7.106105483363733 -7.291490239656138 a31.181481476469564,31.181481476469564 0 0,0 0.3801291047759102,0.37688015759108334 l -7.230226508269606 7.168430071836395" fill="#ff720a" stroke="none" /><path d="M 114.91283532996326 85.21462403516908 l 10.721321583917213 -10.629686907329589 a36.097581933992714,36.097581933992714 0 0,0 0.4325060981491701,0.4437893584086834 l -10.902214483217195 10.444074856853165" fill="#ffb410" stroke="none" /><path d="M 115.16444852881244 85.47280134310134 l 5.430853200968826 -5.202634515658617 a28.520742808658976,28.520742808658976 0 0,0 0.33565405726993247,0.3564529770885325 l -5.519363091975019 5.108640078625589" fill="#ff4d07" stroke="none" /><line stroke="#e1ed5e" stroke-width="0.3" x1="172.87174338648825" x2="177.1583165268699" y1="56.24261187166439" y2="53.66864786411523" /><path d="M 173.72905801456457 55.72781907015455 a86.0,86.0 0 0,1 12.242430191666344,42.057860355516425" fill="none" id="id99" stroke="none" /><text fill="#e1ed5e" style="font-size:6.75px; font-family:Arial;" text-anchor="middle"><textPath startOffset="22.145653131862474" xlink:href="#id99">March</textPath></text><line stroke="#e1ed5e" stroke-width="0.3" x1="184.99686870605535" x2="189.99668451229388" y1="99.2704041080226" y2="99.22748670261217" /><path d="M 185.99683186730306 99.26182062694052 a86.0,86.0 0 0,1 -10.086455211305974,41.156179273409016" fill="none" id="id100" stroke="none" /><text fill="#e1ed5e" style="font-size:6.75px; font-family:Arial;" text-anchor="middle"><textPath startOffset="21.40746469413373" xlink:href="#id100">April</textPath></text><path d="M 119.0197475246899 108.90220220490707 l 34.51618616218565 16.155317948312344 a59.1098596847813,59.1098596847813 0 0,0 -0.4380342964776738,0.9153232082941353 l -34.23377260774806 -16.745453658671586" fill="#3eff2d" stroke="none" /><line stroke="#e1ed5e" stroke-width="0.3" x1="174.33088141563837" x2="178.70328620479359" y1="141.23008692659167" y2="143.65538615756765" /><path d="M 175.20536237346943 141.71514677278685 a86.0,86.0 0 0,1 -30.301960400862466,31.631185727798858" fill="none" id="id101" stroke="none" /><text fill="#e1ed5e" style="font-size:6.75px; font-family:Arial;" text-anchor="middle"><textPath startOffset="22.145653131862474" xlink:href="#id101">May</textPath></text><path d="M 118.36410011445183 110.18625677009912 l 2.274802613304042 1.261794663282859 a23.601317493460574,23.601317493460574 0 0,0 -0.1995622156369463,0.35260731334830464 l -2.2528070326457175 -1.3006587467302861" fill="#ff0500" stroke="none" /><path d="M 118.00360718960297 110.81064883170644 l 5.150542296809472 3.092752662133918 a27.007762060897537,27.007762060897537 0 0,0 -0.24208219182032564,0.3954230671554921 l -5.096692140533741 -3.1807128454139666" fill="#ff3705" stroke="none" /><path d="M 116.1254893667686 113.45245675266167 l 46.386626542728536 38.697373659486686 a81.40865707956519,81.40865707956519 0 0,0 -0.9044324892498852,1.065419198173218 l -45.715499489971535 -39.48795964010946" fill="#4aeaff" stroke="none" /><path d="M 115.16444852881244 114.52719865689866 l 18.19311505163302 17.428592674552302 a46.19415166060199,46.19415166060199 0 0,0 -0.5534789651166105,0.5679181770451849 l -17.8912492853656 -17.738333543665224" fill="#cbff1d" stroke="none" /><path d="M 111.8722381534696 117.32195027204791 l 1.274863986922866 1.8600646566922978 a23.255020778668946,23.255020778668946 0 0,0 -0.33122204929910465,0.2228609767388355 l -1.242745649526758 -1.8816753074882544" fill="#ff0000" stroke="none" /><line stroke="#e1ed5e" stroke-width="0.3" x1="143.1302829299769" x2="145.66735839644613" y1="173.24464959558577" y2="177.55315839532614" /><path d="M 143.63769802327073 174.10635135553383 a86.0,86.0 0 0,1 -40.68552437913181,11.842963189579606" fill="none" id="id102" stroke="none" /><text fill="#e1ed5e" style="font-size:6.75px; font-family:Arial;" text-anchor="middle"><textPath startOffset="21.407464694133747" xlink:href="#id102">June</textPath></text><path d="M 110.34350942703117 118.27599006163325 l 2.1128653067540233 3.733230546190897 a25.289663170401326,25.289663170401326 0 0,0 -0.3796530140020852,0.21058712706123237 l -2.0484681045958437 -3.768950588685273" fill="#ff1e03" stroke="none" /><path d="M 107.407793817531 119.65005319985036 l 6.141857099382416 16.292005652631428 a38.41125661216354,38.41125661216354 0 0,0 -0.6189898064834899,0.22730163084293717 l -5.861278141244799 -16.395038132483087" fill="#ffd313" stroke="none" /><path d="M 107.06938296918513 119.77432235084164 l 4.111771379341449 11.501356347856024 a33.21424830746205,33.21424830746205 0 0,0 -0.5385361825978205,0.1873308395519927 l -3.913729424698606 -11.570245619976607" fill="#ff8e0d" stroke="none" /><path d="M 106.72888874123015 119.89276391827305 l 20.186666223690434 59.678291754819156 a84.0,84.0 0 0,0 -1.369909049409063,0.4503163143919231 l -19.159234436633636 -60.016028990613094" fill="#4dd2ff" stroke="none" /><path d="M 106.38641147887787 120.00534299687104 l 1.7618959329159725 5.519113915436157 a26.793521872746048,26.793521872746048 0 0,0 -0.4393619159637676,0.13611544466961223 l -1.6668933840805806 -5.548545947912414" fill="#ff3404" stroke="none" /><path d="M 106.0420521117495 120.11202640906438 l 3.978007199308684 13.24149218977499 a34.82612225787201,34.82612225787201 0 0,0 -0.5740339774826888,0.16709292478438212 l -3.7501132094443888 -13.30782880886189" fill="#ffa40f" stroke="none" /><path d="M 105.69591212413111 120.21278271476187 l 0.7242492559595491 2.570105107489077 a23.67020172427092,23.67020172427092 0 0,0 -0.3920445906347179,0.10685349652235047 l -0.6800232643901362 -2.5821590981555693" fill="#ff0601" stroke="none" /><path d="M 105.3480935250658 120.30758222061773 l 2.149560464678963 8.16223120819866 a29.440534846051108,29.440534846051108 0 0,0 -0.4898270018963571,0.12451210842846114 l -2.0091281695572087 -8.197928548462391" fill="#ff5a08" stroke="none" /><path d="M 104.9986988182912 120.39639698878246 l 1.571266236800245 6.411302442063049 a27.601036024027746,27.601036024027746 0 0,0 -0.461157907823744,0.10883201057852183 l -1.460976175236622 -6.437330596287796" fill="#ff4006" stroke="none" /><path d="M 104.64783097203109 120.47920084513623 l 0.8671061247465285 3.8206295774503825 a24.91779062733853,24.91779062733853 0 0,0 -0.41795154065543194,0.09109059299952706 l -0.8013921674719606 -3.834951628583628" fill="#ff1902" stroke="none" /><path d="M 104.29559338865022 120.5559693870025 l 0.7152976591309955 3.4229582396092555 a24.496897746755998,24.496897746755998 0 0,0 -0.41236854509842785,0.0824852580743479 l -0.656432628501609 -3.434732894346465" fill="#ff1202" stroke="none" /><path d="M 103.94208987418118 120.62667999033965 l 7.8574111839124265 41.11329554015864 a62.857400548594754,62.857400548594754 0 0,0 -1.0615874625645374,0.19345659901825643 l -7.150488987796832 -41.24212031310826" fill="#32ff4b" stroke="none" /><line stroke="#e1ed5e" stroke-width="0.3" x1="101.45913802915013" x2="101.54496967792366" y1="184.9874750549273" y2="189.98673829345242" /><path d="M 101.47630435890484 185.9873277026323 a86.0,86.0 0 0,1 -42.54439059252881,-10.42667462771756" fill="none" id="id103" stroke="none" /><text fill="#e1ed5e" style="font-size:6.75px; font-family:Arial;" text-anchor="middle"><textPath startOffset="22.145653131862474" xlink:href="#id103">July</textPath></text><line stroke="#e1ed5e" stroke-width="0.3" x1="58.13341422392154" x2="55.67067388415222" y1="173.97424548756322" y2="178.32567169271397" /><path d="M 57.64086615596768 174.84453072859336 a86.0,86.0 0 0,1 -31.369924170532247,-30.572349798747897" fill="none" id="id104" stroke="none" /><text fill="#e1ed5e" style="font-size:6.75px; font-family:Arial;" text-anchor="middle"><textPath startOffset="22.145653131862474" xlink:href="#id104">August</textPath></text><line stroke="#e1ed5e" stroke-width="0.3" x1="26.387840678322732" x2="22.057713659400548" y1="142.50000000000003" y2="145.00000000000006" /><path d="M 25.521815274538298 143.00000000000003 a86.0,86.0 0 0,1 -11.493303480769221,-40.785679425670985" fill="none" id="id105" stroke="none" /><text fill="#e1ed5e" style="font-size:6.75px; font-family:Arial;" text-anchor="middle"><textPath startOffset="21.40746469413373" xlink:href="#id105">September</textPath></text><line stroke="#e1ed5e" stroke-width="0.3" x1="15.003131293944662" x2="10.003315487706104" y1="100.72959589197737" y2="100.7725132973878" /><path d="M 14.003168132696942 100.73817937305945 a86.0,86.0 0 0,1 10.791469493833604,-42.45332614584628" fill="none" id="id106" stroke="none" /><text fill="#e1ed5e" style="font-size:6.75px; font-family:Arial;" text-anchor="middle"><textPath startOffset="22.145653131862435" xlink:href="#id106">October</textPath></text><line stroke="#e1ed5e" stroke-width="0.3" x1="26.387840678322718" x2="22.05771365940052" y1="57.49999999999999" y2="54.99999999999999" /><path d="M 25.521815274538284 56.99999999999999 a86.0,86.0 0 0,1 29.574782752854787,-30.34633250058573" fill="none" id="id107" stroke="none" /><text fill="#e1ed5e" style="font-size:6.75px; font-family:Arial;" text-anchor="middle"><textPath startOffset="21.40746469413373" xlink:href="#id107">November</textPath></text><line stroke="#e1ed5e" stroke-width="0.3" x1="56.869717070023135" x2="54.33264160355391" y1="26.7553504044142" y2="22.446841604673864" /><path d="M 56.362301976729285 25.89364864446614 a86.0,86.0 0 0,1 42.16139366436587,-11.88097634709845" fill="none" id="id108" stroke="none" /><text fill="#e1ed5e" style="font-size:6.75px; font-family:Arial;" text-anchor="middle"><textPath startOffset="22.145653131862474" xlink:href="#id108">December</textPath></text></svg>