<?xml version="1.0" encoding="utf-8" ?>
<svg baseProfile="full" height="200mm" version="1.1" viewBox="0,0,200,200" width="200mm" xmlns="http://www.w3.org/2000/svg" xmlns:ev="http://www.w3.org/2001/xml-events" xmlns:xlink="http://www.w3.org/1999/xlink"><defs /><rect fill="#1a1a1a" height="200" width="200" x="0" y="0" /><text alignment-baseline="middle" fill="#e1ed5e" style="dominant-baseline: central; font-size:9.0px; font-family:Arial;" text-anchor="middle" x="100.0" y="100.0">2019</text><line stroke="#e1ed5e" stroke-width="0.3" x1="100.0" x2="100.0" y1="15.0" y2="10.0" /><path d="M 100.0 14.0 a86.0,86.0 0 0,1 42.46469731375804,11.215312516191453" fill="none" id="id37" stroke="none" /><text fill="#e1ed5e" style="font-size:6.75px; font-family:Arial;" text-anchor="middle"><textPath startOffset="22.20632615414155" xlink:href="#id37">January</textPath></text><line stroke="#e1ed5e" stroke-width="0.3" x1="143.23703022742887" x2="145.7803849466894" y1="26.81831364943548" y2="22.513508569990506" /><path d="M 143.74570117128098 25.957352633546492 a86.0,86.0 0 0,1 28.547481713284135,27.462654790039103" fill="none" id="id38" stroke="none" /><text fill="#e1ed5e" style="font-size:6.75px; font-family:Arial;" text-anchor="middle"><textPath startOffset="19.985693538727396" xlink:href="#id38">February</textPath></text><line stroke="#e1ed5e" stroke-width="0.3" x1="172.23445277983987" x2="176.4835382374775" y1="55.19839476539836" y2="52.563006222186495" /><path d="M 173.08426987136738 54.67131705675599 a86.0,86.0 0 0,1 12.851231095245387,41.99856678651699" fill="none" id="id39" stroke="none" /><text fill="#e1ed5e" style="font-size:6.75px; font-family:Arial;" text-anchor="middle"><textPath startOffset="22.20632615414155" xlink:href="#id39">March</textPath></text><line stroke="#e1ed5e" stroke-width="0.3" x1="184.98032266829074" x2="189.97916517819016" y1="98.17113171792111" y2="98.06355123074" /><path d="M 185.9800911702706 98.14961562048488 a86.0,86.0 0 0,1 -9.607161424134198,41.387399972396054" fill="none" id="id40" stroke="none" /><text fill="#e1ed5e" style="font-size:6.75px; font-family:Arial;" text-anchor="middle"><textPath startOffset="21.466115282336823" xlink:href="#id40">April</textPath></text><line stroke="#e1ed5e" stroke-width="0.3" x1="174.80103733775053" x2="179.2010983576182" y1="140.37084112569926" y2="142.7455964860345" /><path d="M 175.68104954172406 140.8457921977663 a86.0,86.0 0 0,1 -30.038265399797805,32.042727171017184" fill="none" id="id41" stroke="none" /><text fill="#e1ed5e" style="font-size:6.75px; font-family:Arial;" text-anchor="middle"><textPath startOffset="22.206326154141568" xlink:href="#id41">May</textPath></text><line stroke="#e1ed5e" stroke-width="0.3" x1="143.8653032363475" x2="146.44561519142675" y1="172.8068346515853" y2="177.08958963109032" /><path d="M 144.38136562736335 173.6633856474863 a86.0,86.0 0 0,1 -40.68145358897372,12.25698825130547" fill="none" id="id42" stroke="none" /><text fill="#e1ed5e" style="font-size:6.75px; font-family:Arial;" text-anchor="middle"><textPath startOffset="21.466115282336833" xlink:href="#id42">June</textPath></text><line stroke="#e1ed5e" stroke-width="0.3" x1="102.19456741930631" x2="102.32365962044197" y1="184.97166512339345" y2="189.96999836594603" /><path d="M 102.22038585953345 185.97133177190398 a86.0,86.0 0 0,1 -42.740103519485714,-10.115201625700543" fill="none" id="id43" stroke="none" /><text fill="#e1ed5e" style="font-size:6.75px; font-family:Arial;" text-anchor="middle"><textPath startOffset="22.20632615414155" xlink:href="#id43">July</textPath></text><path d="M 95.16358092515715 120.4354850818985 l -5.868920976701744 24.798150286454792 a46.48318055228522,46.48318055228522 0 0,0 -0.7770365641699049,-0.19097668226728207 l 6.294910825614859 -24.69345234587348" fill="#f6ff19" stroke="none" /><path d="M 94.81253420990036 120.34920634021253 l -15.562397370298923 61.0476190206376 a84.0,84.0 0 0,0 -1.398038228754043,-0.36923460278567344 l 16.610926041864456 -60.77069306854834" fill="#4dd2ff" stroke="none" /><path d="M 93.42475214034765 119.94407469862007 l -8.011956681041461 24.301907082366252 a46.58855481848961,46.58855481848961 0 0,0 -0.7594605910991545,-0.2576502667310686 l 8.429087005077841 -24.16039382873706" fill="#f5ff19" stroke="none" /><path d="M 92.40401165467489 119.57807347666478 l -12.633563000108772 32.562033200120275 a55.92696551668141,55.92696551668141 0 0,0 -0.8945089999041458,-0.3559435916236938 l 13.192193076054776 -32.339742764090516" fill="#7eff26" stroke="none" /><line stroke="#e1ed5e" stroke-width="0.3" x1="58.666819895761336" x2="56.23545636021788" y1="174.27360380694188" y2="178.64263932499728" /><path d="M 58.180547188652646 175.14741091055294 a86.0,86.0 0 0,1 -31.652253787137756,-30.449443065178592" fill="none" id="id44" stroke="none" /><text fill="#e1ed5e" style="font-size:6.75px; font-family:Arial;" text-anchor="middle"><textPath startOffset="22.20632615414155" xlink:href="#id44">August</textPath></text><path d="M 89.4739219176387 118.17145234162733 l -15.727197006210378 27.150284144731167 a52.376466576270076,52.376466576270076 0 0,0 -0.7762494857401582,-0.4586218786787262 l 16.19221436297892 -26.87554369375869" fill="#a9ff21" stroke="none" /><line stroke="#e1ed5e" stroke-width="0.3" x1="26.63291911575756" x2="22.317208475507996" y1="142.92168965132927" y2="145.44649492493687" /><path d="M 25.769776987707644 143.4266507060508 a86.0,86.0 0 0,1 -11.730757126820373,-40.83630448921669" fill="none" id="id45" stroke="none" /><text fill="#e1ed5e" style="font-size:6.75px; font-family:Arial;" text-anchor="middle"><textPath startOffset="21.46611528233685" xlink:href="#id45">September</textPath></text><line stroke="#e1ed5e" stroke-width="0.3" x1="15.007084014347285" x2="10.007500721073583" y1="101.09737516637583" y2="101.16192664675087" /><path d="M 14.007167355692545 101.11028546245083 a86.0,86.0 0 0,1 10.666146001902534,-42.60595125391555" fill="none" id="id46" stroke="none" /><text fill="#e1ed5e" style="font-size:6.75px; font-family:Arial;" text-anchor="middle"><textPath startOffset="22.20632615414155" xlink:href="#id46">October</textPath></text><path d="M 79.05617556472873 98.46500227214037 l -17.466762879843884 -1.280159763394048 a38.51361226362241,38.51361226362241 0 0,0 0.054149251526628535,-0.6607580236494756 l 17.44213914449776 1.5806317042513018" fill="#ff970d" stroke="none" /><path d="M 79.62865764111835 94.90015583598534 l -7.6555663703483905 -1.9165254202812103 a28.891816402919755,28.891816402919755 0 0,0 0.12492775753879695,-0.4813976110365519 l 7.621442280939286 2.048019456866626" fill="#ff0000" stroke="none" /><path d="M 79.71946130924805 94.55025226153421 l -17.193693193420522 -4.620256494441463 a38.803647258466555,38.803647258466555 0 0,0 0.1788907811855204,-0.643565320297259 l 17.11161564166864 4.915533118157665" fill="#ff9b0e" stroke="none" /><path d="M 79.81627453868168 94.20196356495316 l -17.617024085272597 -5.060718236544856 a39.32949553836036,39.32949553836036 0 0,0 0.19251620051975607,-0.6490689232228 l 17.52730198764113 5.363216546514195" fill="#ffa30f" stroke="none" /><path d="M 79.91906864156998 93.8553929516997 l -13.479191272665604 -4.124526508310542 a35.09610996987683,35.09610996987683 0 0,0 0.18173854763296063,-0.5761608605331091 l 13.406197241264438 4.3559375352700656" fill="#ff6309" stroke="none" /><path d="M 80.02781315780177 93.51064311812611 l -13.435386624523712 -4.365421740811894 a35.12680150372277,35.12680150372277 0 0,0 0.19179686293136322,-0.5734482077992754 l 13.358252467820577 4.596043051533492" fill="#ff6309" stroke="none" /><path d="M 80.14247586403 93.16781622104843 l -33.001660186640926 -11.354557892603365 a55.90036618734827,55.90036618734827 0 0,0 0.3208865202613489,-0.9071894038223763 l 32.80132058556977 11.920944922852353" fill="#7eff26" stroke="none" /><line stroke="#e1ed5e" stroke-width="0.3" x1="26.266209847984243" x2="21.928928074336255" y1="57.711370442889674" y2="55.22380399835377" /><path d="M 25.398753493254645 57.213857153982495 a86.0,86.0 0 0,1 29.58750427330803,-30.492523968695096" fill="none" id="id47" stroke="none" /><text fill="#e1ed5e" style="font-size:6.75px; font-family:Arial;" text-anchor="middle"><textPath startOffset="21.46611528233685" xlink:href="#id47">November</textPath></text><line stroke="#e1ed5e" stroke-width="0.3" x1="56.762969772571076" x2="54.21961505331055" y1="26.818313649435495" y2="22.513508569990535" /><path d="M 56.25429882871897 25.957352633546506 a86.0,86.0 0 0,1 42.265352541879196,-11.944610805530505" fill="none" id="id48" stroke="none" /><text fill="#e1ed5e" style="font-size:6.75px; font-family:Arial;" text-anchor="middle"><textPath startOffset="22.20632615414155" xlink:href="#id48">December</textPath></text></svg>