<?xml version="1.0" encoding="utf-8" ?>
<svg baseProfile="full" height="200mm" version="1.1" viewBox="0,0,200,200" width="200mm" xmlns="http://www.w3.org/2000/svg" xmlns:ev="http://www.w3.org/2001/xml-events" xmlns:xlink="http://www.w3.org/1999/xlink"><defs /><rect fill="#1a1a1a" height="200" width="200" x="0" y="0" /><text alignment-baseline="middle" fill="#e1ed5e" style="dominant-baseline: central; font-size:9.0px; font-family:Arial;" text-anchor="middle" x="100.0" y="100.0">2024</text><line stroke="#e1ed5e" stroke-width="0.3" x1="100.0" x2="100.0" y1="15.0" y2="10.0" /><path d="M 100.0 14.0 a86.0,86.0 0 0,1 42.35913384403234,11.155469271406648" fill="none" id="id97" stroke="none" /><text fill="#e1ed5e" style="font-size:6.75px; font-family:Arial;" text-anchor="middle"><textPath startOffset="22.145653131862478" xlink:href="#id97">January</textPath></text><path d="M 104.64783097203109 79.52079915486377 l 1.3903290771774823 -6.1260464469748275 a27.281835720021505,27.281835720021505 0 0,0 0.45582471148124853,0.10757339076323241 l -1.4952859423986158 6.101276912565368" fill="#ff3a05" stroke="none" /><line stroke="#e1ed5e" stroke-width="0.3" x1="143.13028292997686" x2="145.6673583964461" y1="26.7553504044142" y2="22.446841604673864" /><path d="M 143.63769802327073 25.89364864446614 a86.0,86.0 0 0,1 29.32050498858742,28.57503671076993" fill="none" id="id98" stroke="none" /><text fill="#e1ed5e" style="font-size:6.75px; font-family:Arial;" text-anchor="middle"><textPath startOffset="20.669276256404974" xlink:href="#id98">February</textPath></text><path d="M 114.39649973595853 84.71141617570332 l 10.820917483728184 -11.491439380404433 a36.78434142506947,36.78434142506947 0 0,0 0.455998864869998,0.43683659743382264 l -11.016588834463494 11.30399065266503" fill="#ffbc11" stroke="none" /><path d="M 114.65682725009322 84.96080404539774 l 7.410935238342786 -7.604272422300354 a31.618235266722458,31.618235266722458 0 0,0 0.38545350950060564,0.3821590548565397 l -7.540380667973354 7.475933357215155" fill="#ff770a" stroke="none" /><path d="M 114.91283532996326 85.21462403516908 l 11.181232830538637 -11.085667312215385 a36.74522109618775,36.74522109618775 0 0,0 0.4402658391634511,0.451751536285208 l -11.3698854708529 10.892093083862434" fill="#ffbc11" stroke="none" /><path d="M 115.16444852881244 85.47280134310134 l 5.663819859633581 -5.425811304740431 a28.843359211270947,28.843359211270947 0 0,0 0.33945085545310116,0.36048504518508 l -5.756126548822943 5.327784799610856" fill="#ff5007" stroke="none" /><line stroke="#e1ed5e" stroke-width="0.3" x1="172.87174338648825" x2="177.1583165268699" y1="56.24261187166439" y2="53.66864786411523" /><path d="M 173.72905801456457 55.72781907015455 a86.0,86.0 0 0,1 12.242430191666344,42.057860355516425" fill="none" id="id99" stroke="none" /><text fill="#e1ed5e" style="font-size:6.75px; font-family:Arial;" text-anchor="middle"><textPath startOffset="22.145653131862474" xlink:href="#id99">March</textPath></text><line stroke="#e1ed5e" stroke-width="0.3" x1="184.99686870605535" x2="189.99668451229388" y1="99.2704041080226" y2="99.22748670261217" /><path d="M 185.99683186730306 99.26182062694052 a86.0,86.0 0 0,1 -10.086455211305974,41.156179273409016" fill="none" id="id100" stroke="none" /><text fill="#e1ed5e" style="font-size:6.75px; font-family:Arial;" text-anchor="middle"><textPath startOffset="21.40746469413373" xlink:href="#id100">April</textPath></text><path d="M 119.0197475246899 108.90220220490707 l 35.996822861888845 16.84833068550319 a60.744653766742914,60.744653766742914 0 0,0 -0.4501489568642267,0.9406381891108911 l -35.702294647064704 -17.463781376679187" fill="#2fff31" stroke="none" /><line stroke="#e1ed5e" stroke-width="0.3" x1="174.33088141563837" x2="178.70328620479359" y1="141.23008692659167" y2="143.65538615756765" /><path d="M 175.20536237346943 141.71514677278685 a86.0,86.0 0 0,1 -30.301960400862466,31.631185727798858" fill="none" id="id101" stroke="none" /><text fill="#e1ed5e" style="font-size:6.75px; font-family:Arial;" text-anchor="middle"><textPath startOffset="22.145653131862474" xlink:href="#id101">May</textPath></text><path d="M 118.36410011445183 110.18625677009912 l 2.372384548284121 1.3159217176789504 a23.712905898109327,23.712905898109327 0 0,0 -0.2005057574234278,0.3542744612765897 l -2.3494454258393147 -1.3564529490546626" fill="#ff0500" stroke="none" /><path d="M 118.00360718960297 110.81064883170644 l 5.371484492224574 3.2254221022957923 a27.265476309761876,27.265476309761876 0 0,0 -0.2443921955180676,0.39919628459223605 l -5.315324332251102 -3.3171555030125854" fill="#ff3905" stroke="none" /><path d="M 116.1254893667686 113.45245675266167 l 48.37646810030581 40.35737025798503 a84.0,84.0 0 0,0 -0.933221745971542,1.0993328702017733 l -47.67655179082715 -41.181869910636365" fill="#4dd2ff" stroke="none" /><path d="M 115.16444852881244 114.52719865689866 l 18.973542926856442 18.176224925023586 a47.274902163896115,47.274902163896115 0 0,0 -0.5664280647019301,0.5812050939731332 l -18.658728061003707 -18.499252711064457" fill="#bfff1e" stroke="none" /><path d="M 111.8722381534696 117.32195027204791 l 1.3295516745282807 1.9398556272699428 a23.3517541346603,23.3517541346603 0 0,0 -0.3325998257677641,0.2237880062351597 l -1.2960555606635134 -1.9623933075622235" fill="#ff0000" stroke="none" /><line stroke="#e1ed5e" stroke-width="0.3" x1="143.1302829299769" x2="145.66735839644613" y1="173.24464959558577" y2="177.55315839532614" /><path d="M 143.63769802327073 174.10635135553383 a86.0,86.0 0 0,1 -40.68552437913181,11.842963189579606" fill="none" id="id102" stroke="none" /><text fill="#e1ed5e" style="font-size:6.75px; font-family:Arial;" text-anchor="middle"><textPath startOffset="21.407464694133747" xlink:href="#id102">June</textPath></text><path d="M 110.34350942703117 118.27599006163325 l 2.2035006365094567 3.893374489359187 a25.47367633714046,25.47367633714046 0 0,0 -0.3824154530625763,0.2121194054416889 l -2.136340995290786 -3.9306268102340196" fill="#ff1f03" stroke="none" /><path d="M 107.407793817531 119.65005319985036 l 6.405323607036179 16.990881865887154 a39.15814519964492,39.15814519964492 0 0,0 -0.63102576841251,0.23172140277871747 l -6.112708686969542 -17.098334117674593" fill="#ffdb14" stroke="none" /><line stroke="#e1ed5e" stroke-width="0.3" x1="101.45913802915013" x2="101.54496967792366" y1="184.9874750549273" y2="189.98673829345242" /><path d="M 101.47630435890484 185.9873277026323 a86.0,86.0 0 0,1 -42.54439059252881,-10.42667462771756" fill="none" id="id103" stroke="none" /><text fill="#e1ed5e" style="font-size:6.75px; font-family:Arial;" text-anchor="middle"><textPath startOffset="22.145653131862474" xlink:href="#id103">July</textPath></text><line stroke="#e1ed5e" stroke-width="0.3" x1="58.13341422392154" x2="55.67067388415222" y1="173.97424548756322" y2="178.32567169271397" /><path d="M 57.64086615596768 174.84453072859336 a86.0,86.0 0 0,1 -31.369924170532247,-30.572349798747897" fill="none" id="id104" stroke="none" /><text fill="#e1ed5e" style="font-size:6.75px; font-family:Arial;" text-anchor="middle"><textPath startOffset="22.145653131862474" xlink:href="#id104">August</textPath></text><line stroke="#e1ed5e" stroke-width="0.3" x1="26.387840678322732" x2="22.057713659400548" y1="142.50000000000003" y2="145.00000000000006" /><path d="M 25.521815274538298 143.00000000000003 a86.0,86.0 0 0,1 -11.493303480769221,-40.785679425670985" fill="none" id="id105" stroke="none" /><text fill="#e1ed5e" style="font-size:6.75px; font-family:Arial;" text-anchor="middle"><textPath startOffset="21.40746469413373" xlink:href="#id105">September</textPath></text><line stroke="#e1ed5e" stroke-width="0.3" x1="15.003131293944662" x2="10.003315487706104" y1="100.72959589197737" y2="100.7725132973878" /><path d="M 14.003168132696942 100.73817937305945 a86.0,86.0 0 0,1 10.791469493833604,-42.45332614584628" fill="none" id="id106" stroke="none" /><text fill="#e1ed5e" style="font-size:6.75px; font-family:Arial;" text-anchor="middle"><textPath startOffset="22.145653131862435" xlink:href="#id106">October</textPath></text><line stroke="#e1ed5e" stroke-width="0.3" x1="26.387840678322718" x2="22.05771365940052" y1="57.49999999999999" y2="54.99999999999999" /><path d="M 25.521815274538284 56.99999999999999 a86.0,86.0 0 0,1 29.574782752854787,-30.34633250058573" fill="none" id="id107" stroke="none" /><text fill="#e1ed5e" style="font-size:6.75px; font-family:Arial;" text-anchor="middle"><textPath startOffset="21.40746469413373" xlink:href="#id107">November</textPath></text><line stroke="#e1ed5e" stroke-width="0.3" x1="56.869717070023135" x2="54.33264160355391" y1="26.7553504044142" y2="22.446841604673864" /><path d="M 56.362301976729285 25.89364864446614 a86.0,86.0 0 0,1 42.16139366436587,-11.88097634709845" fill="none" id="id108" stroke="none" /><text fill="#e1ed5e" style="font-size:6.75px; font-family:Arial;" text-anchor="middle"><textPath startOffset="22.145653131862474" xlink:href="#id108">December</textPath></text></svg>