<?xml version="1.0" encoding="utf-8" ?>
<svg baseProfile="full" height="200mm" version="1.1" viewBox="0,0,200,200" width="200mm" xmlns="http://www.w3.org/2000/svg" xmlns:ev="http://www.w3.org/2001/xml-events" xmlns:xlink="http://www.w3.org/1999/xlink"><defs /><rect fill="#1a1a1a" height="200" width="200" x="0" y="0" /><text alignment-baseline="middle" fill="#e1ed5e" style="dominant-baseline: central; font-size:9.0px; font-family:Arial;" text-anchor="middle" x="100.0" y="100.0">2020</text><line stroke="#e1ed5e" stroke-width="0.3" x1="100.0" x2="100.0" y1="15.0" y2="10.0" /><path d="M 100.0 14.0 a86.0,86.0 0 0,1 42.35913384403234,11.155469271406648" fill="none" id="id49" stroke="none" /><text fill="#e1ed5e" style="font-size:6.75px; font-family:Arial;" text-anchor="middle"><textPath startOffset="22.145653131862478" xlink:href="#id49">January</textPath></text><line stroke="#e1ed5e" stroke-width="0.3" x1="143.13028292997686" x2="145.6673583964461" y1="26.7553504044142" y2="22.446841604673864" /><path d="M 143.63769802327073 25.89364864446614 a86.0,86.0 0 0,1 29.32050498858742,28.57503671076993" fill="none" id="id50" stroke="none" /><text fill="#e1ed5e" style="font-size:6.75px; font-family:Arial;" text-anchor="middle"><textPath startOffset="20.669276256404974" xlink:href="#id50">February</textPath></text><line stroke="#e1ed5e" stroke-width="0.3" x1="172.87174338648825" x2="177.1583165268699" y1="56.24261187166439" y2="53.66864786411523" /><path d="M 173.72905801456457 55.72781907015455 a86.0,86.0 0 0,1 12.242430191666344,42.057860355516425" fill="none" id="id51" stroke="none" /><text fill="#e1ed5e" style="font-size:6.75px; font-family:Arial;" text-anchor="middle"><textPath startOffset="22.145653131862474" xlink:href="#id51">March</textPath></text><line stroke="#e1ed5e" stroke-width="0.3" x1="184.99686870605535" x2="189.99668451229388" y1="99.2704041080226" y2="99.22748670261217" /><path d="M 185.99683186730306 99.26182062694052 a86.0,86.0 0 0,1 -10.086455211305974,41.156179273409016" fill="none" id="id52" stroke="none" /><text fill="#e1ed5e" style="font-size:6.75px; font-family:Arial;" text-anchor="middle"><textPath startOffset="21.40746469413373" xlink:href="#id52">April</textPath></text><path d="M 120.26092885502905 105.52220625578681 l 25.664022416595422 6.994843432481555 a47.60018573702903,47.60018573702903 0 0,0 -0.22163894947127533,0.7865184414997194 l -25.540164975049567 -7.434369797884283" fill="#f5ff19" stroke="none" /><path d="M 119.4528033332814 107.91128576633889 l 37.309288835778254 15.173362967882786 a61.276717557251914,61.276717557251914 0 0,0 -0.4046427169918199,0.9709952157715387 l -37.04332027424995 -15.811590693095603" fill="#47ff2c" stroke="none" /><path d="M 119.16976305983485 108.57439118712176 l 35.62021654572488 15.932469790039413 a60.02106380373107,60.02106380373107 0 0,0 -0.42876628602312095,0.9369317149551514 l -35.3414657948467 -16.541590487209252" fill="#56ff2b" stroke="none" /><path d="M 118.70294669586154 109.54985784667822 l 23.8720817166531 12.18925501983963 a47.803996407723396,47.803996407723396 0 0,0 -0.37945430818657155,0.7276536688736968 l -23.659319339491578 -12.59725493181783" fill="#f2ff19" stroke="none" /><line stroke="#e1ed5e" stroke-width="0.3" x1="174.33088141563837" x2="178.70328620479359" y1="141.23008692659167" y2="143.65538615756765" /><path d="M 175.20536237346943 141.71514677278685 a86.0,86.0 0 0,1 -30.301960400862466,31.631185727798858" fill="none" id="id53" stroke="none" /><text fill="#e1ed5e" style="font-size:6.75px; font-family:Arial;" text-anchor="middle"><textPath startOffset="22.145653131862474" xlink:href="#id53">May</textPath></text><line stroke="#e1ed5e" stroke-width="0.3" x1="143.1302829299769" x2="145.66735839644613" y1="173.24464959558577" y2="177.55315839532614" /><path d="M 143.63769802327073 174.10635135553383 a86.0,86.0 0 0,1 -40.68552437913181,11.842963189579606" fill="none" id="id54" stroke="none" /><text fill="#e1ed5e" style="font-size:6.75px; font-family:Arial;" text-anchor="middle"><textPath startOffset="21.407464694133747" xlink:href="#id54">June</textPath></text><line stroke="#e1ed5e" stroke-width="0.3" x1="101.45913802915013" x2="101.54496967792366" y1="184.9874750549273" y2="189.98673829345242" /><path d="M 101.47630435890484 185.9873277026323 a86.0,86.0 0 0,1 -42.54439059252881,-10.42667462771756" fill="none" id="id55" stroke="none" /><text fill="#e1ed5e" style="font-size:6.75px; font-family:Arial;" text-anchor="middle"><textPath startOffset="22.145653131862474" xlink:href="#id55">July</textPath></text><line stroke="#e1ed5e" stroke-width="0.3" x1="58.13341422392154" x2="55.67067388415222" y1="173.97424548756322" y2="178.32567169271397" /><path d="M 57.64086615596768 174.84453072859336 a86.0,86.0 0 0,1 -31.369924170532247,-30.572349798747897" fill="none" id="id56" stroke="none" /><text fill="#e1ed5e" style="font-size:6.75px; font-family:Arial;" text-anchor="middle"><textPath startOffset="22.145653131862474" xlink:href="#id56">August</textPath></text><line stroke="#e1ed5e" stroke-width="0.3" x1="26.387840678322732" x2="22.057713659400548" y1="142.50000000000003" y2="145.00000000000006" /><path d="M 25.521815274538298 143.00000000000003 a86.0,86.0 0 0,1 -11.493303480769221,-40.785679425670985" fill="none" id="id57" stroke="none" /><text fill="#e1ed5e" style="font-size:6.75px; font-family:Arial;" text-anchor="middle"><textPath startOffset="21.40746469413373" xlink:href="#id57">September</textPath></text><path d="M 81.29705330413844 109.54985784667822 l -13.968231263997017 7.132278410985075 a36.68377760542107,36.68377760542107 0 0,0 -0.28155687896014797,-0.5633023653962774 l 14.088608056168903 -6.891444189425044" fill="#ff6709" stroke="none" /><path d="M 81.1358732173502 109.22738970284198 l -16.73318197964178 8.185037816684915 a39.627780952769726,39.627780952769726 0 0,0 -0.2936621274891472,-0.6136409017496804 l 16.87122336509084 -7.89658441287013" fill="#ff940d" stroke="none" /><path d="M 80.9802524753101 108.90220220490708 l -17.362109407156616 8.12634386684623 a40.16977589092542,40.16977589092542 0 0,0 -0.2869566869966497,-0.6270521485243865 l 17.49905055900832 -7.827102736107155" fill="#ff9d0e" stroke="none" /><path d="M 80.68587082218212 108.24405325689762 l -14.496240666026612 6.187583140573695 a36.76157284565457,36.76157284565457 0 0,0 -0.2427561937086483,-0.5825264926114289 l 14.600322704271745 -5.937824138520984" fill="#ff6809" stroke="none" /><path d="M 80.5471966667186 107.91128576633889 l -17.404251698426815 7.0781576504180626 a39.78851492019432,39.78851492019432 0 0,0 -0.25188275688670286,-0.6349090893495236 l 17.523193130279644 -6.778347543854974" fill="#ff970d" stroke="none" /><path d="M 80.05021161711548 106.5578916946017 l -21.83914255067209 7.178959936895684 a43.9888149569335,43.9888149569335 0 0,0 -0.22965363002024514,-0.7193867251157254 l 21.95916089646959 -6.803004178088567" fill="#ffd513" stroke="none" /><path d="M 79.94057633289273 106.21446072829308 l -21.162622366356572 6.556234505334879 a43.15492713393477,43.15492713393477 0 0,0 -0.21315180249080615,-0.7095130266252395 l 21.272050488851008 -6.191983875118916" fill="#ffc912" stroke="none" /><path d="M 79.34024301695615 103.76489593502545 l -22.568910139363616 4.112807237344671 a43.94059476670613,43.94059476670613 0 0,0 -0.12886140705749383,-0.7432383523212839 l 22.636186363913346 -3.724775852102795" fill="#ffd513" stroke="none" /><path d="M 79.2786578344484 103.40968896794605 l -20.91124057417986 3.4409366788210063 a42.192452136996366,42.192452136996366 0 0,0 -0.11146544226610114,-0.7156880992614169 l 20.96722750858423 -3.081460397628139" fill="#ffbb11" stroke="none" /><path d="M 79.06263194458094 101.62068470465958 l -29.761199047138312 2.3037050292260712 a50.85022655835409,50.85022655835409 0 0,0 -0.0598968180434588,-0.8708865888073096 l 29.796359826346837 -1.7924750162644183" fill="#c9ff1d" stroke="none" /><path d="M 79.03789590574601 101.26102812881392 l -19.243642831761214 1.1576497665781118 a40.278432052904435,40.278432052904435 0 0,0 -0.03559541324206395,-0.6905415075049708 l 19.26067983445985 -0.8271364656964101" fill="#ff9e0e" stroke="none" /><path d="M 79.01933749520258 100.90099992219065 l -18.12244656226833 0.7782558314721636 a39.139149691799,39.139149691799 0 0,0 -0.023064725148248928,-0.6715043068686827 l 18.133135974413428 -0.467045260039361" fill="#ff8d0d" stroke="none" /><line stroke="#e1ed5e" stroke-width="0.3" x1="15.003131293944662" x2="10.003315487706104" y1="100.72959589197737" y2="100.7725132973878" /><path d="M 14.003168132696942 100.73817937305945 a86.0,86.0 0 0,1 10.791469493833604,-42.45332614584628" fill="none" id="id58" stroke="none" /><text fill="#e1ed5e" style="font-size:6.75px; font-family:Arial;" text-anchor="middle"><textPath startOffset="22.145653131862435" xlink:href="#id58">October</textPath></text><path d="M 79.00077361379809 99.81974689727619 l -32.17711193420681 -0.2762018064933711 a53.178297342531735,53.178297342531735 0 0,0 0.01567131097955877,-0.9127752990776338 l 32.16762919162859 0.8285240215400573" fill="#aaff21" stroke="none" /><path d="M 79.17382384314186 97.30363454192245 l -10.356127887282824 -1.3408080919121423 a31.442564395640282,31.442564395640282 0 0,0 0.07389823649956354,-0.5346908269454971 l 10.331585134228053 1.5183872270577063" fill="#ff1101" stroke="none" /><path d="M 79.407916724674 95.88100663000787 l -41.616443107958474 -8.32445415805662 a63.440839694656496,63.440839694656496 0 0,0 0.22277489268134992,-1.0660585068992319 l 41.46741050445276 9.037629116241261" fill="#2fff30" stroke="none" /><path d="M 79.73907114497095 94.47779374421319 l -44.0059236284077 -11.994010170572766 a66.61115646813896,66.61115646813896 0 0,0 0.3101590154338374,-1.100644927338132 l 43.79354612089928 12.747663021813912" fill="#34ff5c" stroke="none" /><path d="M 79.94057633289273 93.78553927170692 l -17.218620484794663 -5.334372640705586 a39.02599297873209,39.02599297873209 0 0,0 0.2037440872522885,-0.6382254514209013 l 17.124511681765117 5.629167125817879" fill="#ff8b0c" stroke="none" /><path d="M 80.05021161711548 93.44210830539832 l -19.388682770123477 -6.373445134713513 a41.409356247703805,41.409356247703805 0 0,0 0.22778020618634567,-0.673391705699703 l 19.276417142364767 6.705338514887377" fill="#ffaf10" stroke="none" /><path d="M 80.16572619554312 93.10060997987247 l -19.60615172238946 -6.820037318238681 a41.75847042494999,41.75847042494999 0 0,0 0.24132385095223602,-0.6750257611557928 l 19.48618770139328 7.155598035775395" fill="#ffb510" stroke="none" /><path d="M 80.68587082218212 91.75594674310238 l -8.66522173036729 -3.698667890759408 a30.421582234559338,30.421582234559338 0 0,0 0.20913551095736285,-0.47854297664321865 l 8.60045233739295 3.8468729371784933" fill="#ff0000" stroke="none" /><path d="M 80.83023694016515 91.42560881287825 l -18.69574240532635 -8.362367777659403 a41.48072212924032,41.48072212924032 0 0,0 0.29632155849605196,-0.647516082840794 l 18.54943638197525 8.682072842714868" fill="#ffb010" stroke="none" /><path d="M 80.9802524753101 91.09779779509293 l -19.9562936508138 -9.340553080919202 a43.03405519043148,43.03405519043148 0 0,0 0.31890436198711186,-0.6663874634937791 l 19.793010030866785 9.681753046478068" fill="#ffc812" stroke="none" /><path d="M 81.1358732173502 90.77261029715801 l -51.16635457572236 -25.028028001710815 a77.95961750418418,77.95961750418418 0 0,0 0.5983589483477928,-1.1971187214646055 l 50.72917571416282 25.90267857933919" fill="#44ffea" stroke="none" /><path d="M 81.29705330413844 90.45014215332179 l -18.56857438013017 -9.481246384825115 a41.84912438257746,41.84912438257746 0 0,0 0.3321862550018934,-0.6370109443656438 l 18.403080056153335 9.798603572295244" fill="#ffb610" stroke="none" /><path d="M 81.46374523516351 90.13048839642627 l -16.07687353246478 -8.5600296225346 a39.213730252684,39.213730252684 0 0,0 0.3214679058061316,-0.5914647389984639 l 15.927560277043296 8.834749195007683" fill="#ff8e0d" stroke="none" /><path d="M 81.63589988554816 89.8137432299009 l -19.206515818563172 -10.653530560579528 a42.963332244764665,42.963332244764665 0 0,0 0.36327877781770357,-0.6418787917037012 l 19.0208036757241 10.981666122382334" fill="#ffc612" stroke="none" /><line stroke="#e1ed5e" stroke-width="0.3" x1="26.387840678322718" x2="22.05771365940052" y1="57.49999999999999" y2="54.99999999999999" /><path d="M 25.521815274538284 56.99999999999999 a86.0,86.0 0 0,1 29.574782752854787,-30.34633250058573" fill="none" id="id59" stroke="none" /><text fill="#e1ed5e" style="font-size:6.75px; font-family:Arial;" text-anchor="middle"><textPath startOffset="21.40746469413373" xlink:href="#id59">November</textPath></text><path d="M 81.81346652052679 89.5 l -13.002922286794446 -7.50724068253256 a36.014481365065116,36.014481365065116 0 0,0 0.3137140694148362,-0.5327550743128748 l 12.87213450724983 7.729346925139008" fill="#ff5c08" stroke="none" /><path d="M 81.99639281039701 89.18935116829357 l -9.18902729286866 -5.517746867168772 a31.718383883740866,31.718383883740866 0 0,0 0.2843055220296095,-0.46439170384589445 l 9.092953806383658 5.67467568713921" fill="#ff1602" stroke="none" /><path d="M 82.18462484594161 88.88188828441811 l -9.43548724711361 -5.888441887818441 a32.12214760991142,32.12214760991142 0 0,0 0.295955584261884,-0.46529133537563033 l 9.333013971225835 6.049546897872744" fill="#ff1d02" stroke="none" /><path d="M 82.98947788004972 87.6856937992154 l -51.03156635985086 -36.94291860235379 a84.0,84.0 0 0,0 0.855591921664725,-1.1607747629245466 l 50.389872418602316 37.8134996745472" fill="#4dd2ff" stroke="none" /><path d="M 83.42222388311158 87.10902102172516 l -8.6404476246247 -6.718864334188404 a31.94534024574438,31.94534024574438 0 0,0 0.34034499988334105,-0.43001478915864566 l 8.523836194099799 6.866199067261732" fill="#ff1a02" stroke="none" /><line stroke="#e1ed5e" stroke-width="0.3" x1="56.869717070023135" x2="54.33264160355391" y1="26.7553504044142" y2="22.446841604673864" /><path d="M 56.362301976729285 25.89364864446614 a86.0,86.0 0 0,1 42.16139366436587,-11.88097634709845" fill="none" id="id60" stroke="none" /><text fill="#e1ed5e" style="font-size:6.75px; font-family:Arial;" text-anchor="middle"><textPath startOffset="22.145653131862474" xlink:href="#id60">December</textPath></text></svg>