<?xml version="1.0" encoding="utf-8" ?>
<svg baseProfile="full" height="200mm" version="1.1" viewBox="0,0,200,200" width="200mm" xmlns="http://www.w3.org/2000/svg" xmlns:ev="http://www.w3.org/2001/xml-events" xmlns:xlink="http://www.w3.org/1999/xlink"><defs /><rect fill="#1a1a1a" height="200" width="200" x="0" y="0" /><text alignment-baseline="middle" fill="#e1ed5e" style="dominant-baseline: central; font-size:9.0px; font-family:Arial;" text-anchor="middle" x="100.0" y="100.0">2026</text><line stroke="#e1ed5e" stroke-width="0.3" x1="100.0" x2="100.0" y1="15.0" y2="10.0" /><path d="M 100.0 14.0 a86.0,86.0 0 0,1 42.46469731375804,11.215312516191453" fill="none" id="id121" stroke="none" /><text fill="#e1ed5e" style="font-size:6.75px; font-family:Arial;" text-anchor="middle"><textPath startOffset="22.20632615414155" xlink:href="#id121">January</textPath></text><path d="M 100.72285384407766 79.0124445844662 l 1.2704120079433743 -36.8855234508604 a57.90739474568611,57.90739474568611 0 0,0 0.9958945945168759,0.04288531615982464 l -1.9051474348495816 36.85819040817638" fill="red" stroke="none" /><path d="M 101.44485096284872 79.0497635885617 l 2.5402727297941556 -36.83377428339618 a57.92126641248799,57.92126641248799 0 0,0 0.9940663171246754,0.0771586781714975 l -3.173929236281172 36.784590343036214" fill="red" stroke="none" /><path d="M 101.80526077348638 79.07773832637324 l 2.5296161410356257 -29.317255220898826 a50.426185813120725,50.426185813120725 0 0,0 0.8641484386105025,0.08206130677808791 l -3.0338897067363724 29.269368369605562" fill="red" stroke="none" /><path d="M 102.16513564639614 79.11191278185805 l 3.800021190055137 -36.66060100242644 a57.85701869256354,57.85701869256354 0 0,0 0.9897222642870974,0.11120682831233109 l -4.43051015785196 36.5897582206435" fill="red" stroke="none" /><path d="M 103.59715602781102 79.31037775812273 l 3.791664493650645 -21.808369010145107 a43.135529777149415,43.135529777149415 0 0,0 0.7304383258364491,0.13348293520233045 l -4.166497940589995 21.739870593592038" fill="red" stroke="none" /><path d="M 103.95276090670814 79.375362276772 l 6.915900107461728 -36.085646871371516 a57.74239491951653,57.74239491951653 0 0,0 0.9745640170138792,0.19548837359072047 l -7.536030533942732 35.96125454170359" fill="red" stroke="none" /><path d="M 105.01212808612495 79.60689891045804 l 5.947919716718633 -24.20060420868082 a45.920814453419254,45.920814453419254 0 0,0 0.7659834822560474,0.19526624496074704 l -6.363612087659705 24.094634967551205" fill="red" stroke="none" /><path d="M 105.36241919743992 79.69619591428918 l 5.621060176218074 -21.283100102731478 a43.01287503911185,43.01287503911185 0 0,0 0.7142228722235744,0.19522409090400575 l -5.986580937665359 21.183189471001178" fill="red" stroke="none" /><path d="M 106.0581310904928 79.89281104454417 l 7.410786775564517 -24.596709410714976 a46.68886674160689,46.68886674160689 0 0,0 0.7675085586077507,0.2384686451996536 l -7.833080706882986 24.4655006306328" fill="red" stroke="none" /><path d="M 106.74666289553966 80.11325718540242 l 7.100215521116252 -20.928889168303183 a43.100485566281534,43.100485566281534 0 0,0 0.7005224455896673,0.2443985261474472 l -7.459419970769193 20.80356978898353" fill="red" stroke="none" /><path d="M 107.08798089147638 80.2323363322302 l 13.71630386881685 -38.25338778350241 a61.63814302766222,61.63814302766222 0 0,0 0.9956546438828981,0.36670800801726133 l -14.372740838472325 38.01161650767882" fill="red" stroke="none" /><path d="M 107.4271985657038 80.35727306442388 l 13.017372424453045 -34.42707094609631 a57.805912551714556,57.805912551714556 0 0,0 0.927693604404041,0.3599307059238903 l -13.608049193856752 34.19789753628187" fill="red" stroke="none" /><path d="M 107.76421540070413 80.48803036053334 l 13.598061733872768 -34.17279841088084 a57.778899305837236,57.778899305837236 0 0,0 0.9209299807186688,0.37567046230986767 l -14.184275584179824 33.93366706238739" fill="red" stroke="none" /><path d="M 109.08828744355905 81.06846463323043 l 16.304066022241866 -33.96250442551401 a58.67325677069452,58.67325677069452 0 0,0 0.906721794293576,0.44492444661033975 l -16.886259083545873 33.67682481876884" fill="red" stroke="none" /><path d="M 109.41281617654863 81.2277094730956 l 9.926048148720247 -19.795846018544147 a43.1450209175928,43.1450209175928 0 0,0 0.6610218091904405,0.33860104489370524 l -10.265330445499442 19.62205244833794" fill="red" stroke="none" /><path d="M 109.73455568895987 81.39251694778311 l 18.06551955626929 -34.53201766096133 a59.97208283598522,59.97208283598522 0 0,0 0.9105902705842065,0.4864057868079665 l -18.65725487338181 34.21593314765161" fill="red" stroke="none" /><path d="M 110.36928655335952 81.73862282372117 l 31.107859660078564 -54.7841315288365 a84.0,84.0 0 0,0 1.2512130701386868,0.7247833704398019 l -32.04626946268258 54.24054400100664" fill="red" stroke="none" /><line stroke="#e1ed5e" stroke-width="0.3" x1="143.23703022742887" x2="145.7803849466894" y1="26.81831364943548" y2="22.513508569990506" /><path d="M 143.74570117128098 25.957352633546492 a86.0,86.0 0 0,1 28.547481713284135,27.462654790039103" fill="none" id="id122" stroke="none" /><text fill="#e1ed5e" style="font-size:6.75px; font-family:Arial;" text-anchor="middle"><textPath startOffset="19.985693538727396" xlink:href="#id122">February</textPath></text><line stroke="#e1ed5e" stroke-width="0.3" x1="172.23445277983987" x2="176.4835382374775" y1="55.19839476539836" y2="52.563006222186495" /><path d="M 173.08426987136738 54.67131705675599 a86.0,86.0 0 0,1 12.851231095245387,41.99856678651699" fill="none" id="id123" stroke="none" /><text fill="#e1ed5e" style="font-size:6.75px; font-family:Arial;" text-anchor="middle"><textPath startOffset="22.20632615414155" xlink:href="#id123">March</textPath></text><line stroke="#e1ed5e" stroke-width="0.3" x1="184.98032266829074" x2="189.97916517819016" y1="98.17113171792111" y2="98.06355123074" /><path d="M 185.9800911702706 98.14961562048488 a86.0,86.0 0 0,1 -9.607161424134198,41.387399972396054" fill="none" id="id124" stroke="none" /><text fill="#e1ed5e" style="font-size:6.75px; font-family:Arial;" text-anchor="middle"><textPath startOffset="21.466115282336823" xlink:href="#id124">April</textPath></text><line stroke="#e1ed5e" stroke-width="0.3" x1="174.80103733775053" x2="179.2010983576182" y1="140.37084112569926" y2="142.7455964860345" /><path d="M 175.68104954172406 140.8457921977663 a86.0,86.0 0 0,1 -30.038265399797805,32.042727171017184" fill="none" id="id125" stroke="none" /><text fill="#e1ed5e" style="font-size:6.75px; font-family:Arial;" text-anchor="middle"><textPath startOffset="22.206326154141568" xlink:href="#id125">May</textPath></text><line stroke="#e1ed5e" stroke-width="0.3" x1="143.8653032363475" x2="146.44561519142675" y1="172.8068346515853" y2="177.08958963109032" /><path d="M 144.38136562736335 173.6633856474863 a86.0,86.0 0 0,1 -40.68145358897372,12.25698825130547" fill="none" id="id126" stroke="none" /><text fill="#e1ed5e" style="font-size:6.75px; font-family:Arial;" text-anchor="middle"><textPath startOffset="21.466115282336833" xlink:href="#id126">June</textPath></text><line stroke="#e1ed5e" stroke-width="0.3" x1="102.19456741930631" x2="102.32365962044197" y1="184.97166512339345" y2="189.96999836594603" /><path d="M 102.22038585953345 185.97133177190398 a86.0,86.0 0 0,1 -42.740103519485714,-10.115201625700543" fill="none" id="id127" stroke="none" /><text fill="#e1ed5e" style="font-size:6.75px; font-family:Arial;" text-anchor="middle"><textPath startOffset="22.20632615414155" xlink:href="#id127">July</textPath></text><line stroke="#e1ed5e" stroke-width="0.3" x1="58.666819895761336" x2="56.23545636021788" y1="174.27360380694188" y2="178.64263932499728" /><path d="M 58.180547188652646 175.14741091055294 a86.0,86.0 0 0,1 -31.652253787137756,-30.449443065178592" fill="none" id="id128" stroke="none" /><text fill="#e1ed5e" style="font-size:6.75px; font-family:Arial;" text-anchor="middle"><textPath startOffset="22.20632615414155" xlink:href="#id128">August</textPath></text><line stroke="#e1ed5e" stroke-width="0.3" x1="26.63291911575756" x2="22.317208475507996" y1="142.92168965132927" y2="145.44649492493687" /><path d="M 25.769776987707644 143.4266507060508 a86.0,86.0 0 0,1 -11.730757126820373,-40.83630448921669" fill="none" id="id129" stroke="none" /><text fill="#e1ed5e" style="font-size:6.75px; font-family:Arial;" text-anchor="middle"><textPath startOffset="21.46611528233685" xlink:href="#id129">September</textPath></text><line stroke="#e1ed5e" stroke-width="0.3" x1="15.007084014347285" x2="10.007500721073583" y1="101.09737516637583" y2="101.16192664675087" /><path d="M 14.007167355692545 101.11028546245083 a86.0,86.0 0 0,1 10.666146001902534,-42.60595125391555" fill="none" id="id130" stroke="none" /><text fill="#e1ed5e" style="font-size:6.75px; font-family:Arial;" text-anchor="middle"><textPath startOffset="22.20632615414155" xlink:href="#id130">October</textPath></text><line stroke="#e1ed5e" stroke-width="0.3" x1="26.266209847984243" x2="21.928928074336255" y1="57.711370442889674" y2="55.22380399835377" /><path d="M 25.398753493254645 57.213857153982495 a86.0,86.0 0 0,1 29.58750427330803,-30.492523968695096" fill="none" id="id131" stroke="none" /><text fill="#e1ed5e" style="font-size:6.75px; font-family:Arial;" text-anchor="middle"><textPath startOffset="21.46611528233685" xlink:href="#id131">November</textPath></text><line stroke="#e1ed5e" stroke-width="0.3" x1="56.762969772571076" x2="54.21961505331055" y1="26.818313649435495" y2="22.513508569990535" /><path d="M 56.25429882871897 25.957352633546506 a86.0,86.0 0 0,1 42.265352541879196,-11.944610805530505" fill="none" id="id132" stroke="none" /><text fill="#e1ed5e" style="font-size:6.75px; font-family:Arial;" text-anchor="middle"><textPath startOffset="22.20632615414155" xlink:href="#id132">December</textPath></text></svg>