<?xml version="1.0" encoding="utf-8" ?>
<svg baseProfile="full" height="200mm" version="1.1" viewBox="0,0,200,200" width="200mm" xmlns="http://www.w3.org/2000/svg" xmlns:ev="http://www.w3.org/2001/xml-events" xmlns:xlink="http://www.w3.org/1999/xlink"><defs /><rect fill="#1a1a1a" height="200" width="200" x="0" y="0" /><text alignment-baseline="middle" fill="#e1ed5e" style="dominant-baseline: central; font-size:9.0px; font-family:Arial;" text-anchor="middle" x="100.0" y="100.0">2026</text><line stroke="#e1ed5e" stroke-width="0.3" x1="100.0" x2="100.0" y1="15.0" y2="10.0" /><path d="M 100.0 14.0 a86.0,86.0 0 0,1 42.46469731375804,11.215312516191453" fill="none" id="id121" stroke="none" /><text fill="#e1ed5e" style="font-size:6.75px; font-family:Arial;" text-anchor="middle"><textPath startOffset="22.20632615414155" xlink:href="#id121">January</textPath></text><path d="M 100.72285384407766 79.0124445844662 l 0.10210822162600036 -2.9646407462793456 a23.96639863191436,23.96639863191436 0 0,0 0.41217545621560253,0.017749142178747453 l -0.15312451023093443 2.9624438775764035" fill="#ff2103" stroke="none" /><path d="M 101.44485096284872 79.0497635885617 l 0.2041721341285276 -2.9604814535244306 a23.967513554647514,23.967513554647514 0 0,0 0.4113393819850491,0.03192785274693747 l -0.25510170547591793 2.956528338589029" fill="#ff2103" stroke="none" /><path d="M 101.80526077348638 79.07773832637324 l 0.2033156203991787 -2.3563479995813954 a23.365103197881552,23.365103197881552 0 0,0 0.40040540685052156,0.03802331805401287 l -0.24384615433994444 2.352499137012204" fill="#ff1802" stroke="none" /><path d="M 102.16513564639614 79.11191278185805 l 0.30542328270793767 -2.94656280694175 a23.9623497019887,23.9623497019887 0 0,0 0.40990827976657873,0.046057971348800304 l -0.35609826598424166 2.940868882122349" fill="#ff2103" stroke="none" /><path d="M 103.59715602781102 79.31037775812273 l 0.3047516207563851 -1.7528280292268394 a22.779123281393645,22.779123281393645 0 0,0 0.3857317798029561,0.07049001722350245 l -0.3348785216622421 1.7473225306525986" fill="#ff1001" stroke="none" /><path d="M 103.95276090670814 79.375362276772 l 0.5558592460560701 -2.9003513861810295 a23.95313691940422,23.95313691940422 0 0,0 0.40427601537476177,0.08109396545288597 l -0.6057016708979572 2.8903534646509352" fill="#ff2103" stroke="none" /><path d="M 105.01212808612495 79.60689891045804 l 0.47805869344036755 -1.945101780030751 a23.002988030182085,23.002988030182085 0 0,0 0.3837020114598833,0.09781418620279317 l -0.5114695935852759 1.93658459765909" fill="#ff1302" stroke="none" /><path d="M 105.36241919743992 79.69619591428918 l 0.4517876520826644 -1.7106100135940492 a22.769265017226815,22.769265017226815 0 0,0 0.3780805129681767,0.10334368626832137 l -0.48116605427455195 1.7025797864994343" fill="#ff1001" stroke="none" /><path d="M 106.0581310904928 79.89281104454417 l 0.5956353165516541 -1.9769383791054016 a23.064719541512474,23.064719541512474 0 0,0 0.37915612190738296,0.11780565271405333 l -0.6295768111697553 1.9663925915088278" fill="#ff1402" stroke="none" /><path d="M 106.74666289553966 80.11325718540242 l 0.570673431524131 -1.6821406285687086 a22.776306634488837,22.776306634488837 0 0,0 0.3701887302535283,0.12915157913919625 l -0.5995441658409328 1.672068196257305" fill="#ff1001" stroke="none" /><path d="M 107.08798089147638 80.2323363322302 l 1.1024355772534107 -3.074581610785044 a24.266254166988787,24.266254166988787 0 0,0 0.391978204797022,0.14436888086689215 l -1.155196107823009 3.055149462111827" fill="#ff2503" stroke="none" /><path d="M 107.4271985657038 80.35727306442388 l 1.0462595915288948 -2.7670448390902864 a23.958242091919185,23.958242091919185 0 0,0 0.3844919486662076,0.14917690264166866 l -1.0937347051947695 2.7486252325580707" fill="#ff2103" stroke="none" /><path d="M 107.76421540070413 80.48803036053334 l 1.0929319720883848 -2.7466079129459753 a23.95607092659673,23.95607092659673 0 0,0 0.3818325409722186,0.15575908070670658 l -1.1400483826489909 2.7273879460556896" fill="#ff2103" stroke="none" /><path d="M 109.08828744355905 81.06846463323043 l 1.3104246310604923 -2.7297057231601487 a24.0279541028132,24.0279541028132 0 0,0 0.3713219762532126,0.18220608111381406 l -1.3572178743241368 2.7067444819115023" fill="#ff2203" stroke="none" /><path d="M 109.41281617654863 81.2277094730956 l 0.7977971854033784 -1.5910733052719856 a22.779886123263697,22.779886123263697 0 0,0 0.34900902162297787,0.17877597645923343 l -0.8250666946151118 1.5771048035002515" fill="#ff1001" stroke="none" /><path d="M 109.73455568895987 81.39251694778311 l 1.4519998733533777 -2.7754798368338185 a24.132346078722673,24.132346078722673 0 0,0 0.3664151469568481,0.19572628174421172 l -1.499560066838537 2.7500748285878527" fill="#ff2303" stroke="none" /><path d="M 110.36928655335952 81.73862282372117 l 2.5002662196368344 -4.4032252598038495 a26.063568292975987,26.063568292975987 0 0,0 0.38822711074552163,0.22488620086989392 l -2.575690062847684 4.359534901543906" fill="#ff3e05" stroke="none" /><line stroke="#e1ed5e" stroke-width="0.3" x1="143.23703022742887" x2="145.7803849466894" y1="26.81831364943548" y2="22.513508569990506" /><path d="M 143.74570117128098 25.957352633546492 a86.0,86.0 0 0,1 28.547481713284135,27.462654790039103" fill="none" id="id122" stroke="none" /><text fill="#e1ed5e" style="font-size:6.75px; font-family:Arial;" text-anchor="middle"><textPath startOffset="19.985693538727396" xlink:href="#id122">February</textPath></text><path d="M 110.68208982089419 81.91981866633111 l 1.654792288815899 -2.8008512522359523 a24.253168494910195,24.253168494910195 0 0,0 0.3576048085923563,0.21545289590938127 l -1.7027591636258927 2.7719517468679564" fill="#ff2503" stroke="none" /><path d="M 110.99172775467656 82.1063720568725 l 3.0606910913704053 -4.982553139976169 a26.847535014814408,26.847535014814408 0 0,0 0.3916938349787705,0.24527864352964462 l -3.146004078721439 4.9291301551235795" fill="#ff4906" stroke="none" /><path d="M 111.2981086023043 82.29822771554956 l 1.6065769692432115 -2.5171699678285595 a23.98617384039187,23.98617384039187 0 0,0 0.3461238856623449,0.2251286032970392 l -1.6496678806898364 2.4891424403719924" fill="#ff2103" stroke="none" /><path d="M 111.60114157652 82.49532879139004 l 2.056533442413158 -3.1030516696574733 a24.722668325855494,24.722668325855494 0 0,0 0.3527045415319231,0.23814768088150223 l -2.1096426783516233 3.067192076477301" fill="#ff2c04" stroke="none" /><path d="M 112.48926042617603 83.11751280151076 l 1.5239192422339487 -2.059973626991086 a23.56238584150586,23.56238584150586 0 0,0 0.32398712087446846,0.24402038248522998 l -1.5591525168668001 2.0334366550000085" fill="#ff1b02" stroke="none" /><path d="M 113.06298171725822 83.55741782278167 l 1.7780753250304775 -2.238091599751099 a23.858427167230026,23.858427167230026 0 0,0 0.3193582282049988,0.2582321439990109 l -1.8163369517999675 2.2071533584879584" fill="#ff1f03" stroke="none" /><path d="M 113.34407831869373 83.78471172551755 l 0.43353895833836137 -0.5268223866632357 a21.682274032546058,21.682274032546058 0 0,0 0.2861466109384374,0.23963955752495167 l -0.44254310623591614 0.5192816717444647" fill="#ff0000" stroke="none" /><path d="M 113.6212207817346 84.01681056812373 l 3.1166042115692343 -3.65703458565855 a25.80490621888439,25.80490621888439 0 0,0 0.3355942816055242,0.29102405400734527 l -3.1790922918215228 3.6028455382315334" fill="#ff3b05" stroke="none" /><path d="M 113.89432698308785 84.25364557470407 l 6.919940825724616 -7.842325934646959 a31.458855439137047,31.458855439137047 0 0,0 0.40295649790161864,0.36177832245404645 l -7.053908311222225 7.722048603423615" fill="#ff880c" stroke="none" /><path d="M 114.42810811169701 84.74124197986012 l 4.495475188064575 -4.754287086649236 a27.543129440014457,27.543129440014457 0 0,0 0.34168794011789894,0.3287035276744186 l -4.576646371794893 4.676200472212515" fill="#ff5307" stroke="none" /><path d="M 114.68862486808459 84.99185889309783 l 3.497960722746493 -3.5740505721163993 a26.00095657948784,26.00095657948784 0 0,0 0.3171673446223187,0.3158053272490603 l -3.5589638675361344 3.51330939421722" fill="#ff3e05" stroke="none" /><path d="M 115.19652480421416 85.50635884689758 l 2.3980857469466024 -2.287167277940752 a24.313902443795133,24.313902443795133 0 0,0 0.28624720069182746,0.30534855568915137 l -2.4371002696088926 2.2455493053735456" fill="#ff2603" stroke="none" /><path d="M 115.68641384162765 86.03803664274999 l 2.928839110642954 -2.6068637965906527 a24.92094853192526,24.92094853192526 0 0,0 0.2824470722836138,0.32288582953351663 l -2.9732780465044155 2.5560624108541883" fill="#ff2e04" stroke="none" /><path d="M 116.15771136456269 86.58626213691792 l 2.2625705152181754 -1.8783308541108201 a23.940638048764132,23.940638048764132 0 0,0 0.2604986616569288,0.3193405574829267 l -2.294567668951513 1.8391061270197924" fill="#ff2103" stroke="none" /><path d="M 117.04232023915458 87.72973835380427 l 1.43654198564573 -1.03429261874339 a22.770145219384567,22.770145219384567 0 0,0 0.22627818821516693,0.32005445011233485 l -1.4541327936647799 1.009411668299262" fill="#ff1001" stroke="none" /><path d="M 117.45458315368197 88.32363383020206 l 2.477630392282976 -1.65742827766205 a23.980892627445357,23.980892627445357 0 0,0 0.2265661802097853,0.3450758362716649 l -2.505793207850686 1.6145343774127112" fill="#ff2103" stroke="none" /><line stroke="#e1ed5e" stroke-width="0.3" x1="172.23445277983987" x2="176.4835382374775" y1="55.19839476539836" y2="52.563006222186495" /><path d="M 173.08426987136738 54.67131705675599 a86.0,86.0 0 0,1 12.851231095245387,41.99856678651699" fill="none" id="id123" stroke="none" /><text fill="#e1ed5e" style="font-size:6.75px; font-family:Arial;" text-anchor="middle"><textPath startOffset="22.20632615414155" xlink:href="#id123">March</textPath></text><path d="M 117.84615892207809 88.93136811851018 l 1.2655844699275995 -0.7849469834782707 a22.48924337077375,22.48924337077375 0 0,0 0.20120826370784078,0.33073348138494946 l -1.2789085319216642 0.7630457288862398" fill="#ff0c01" stroke="none" /><path d="M 118.03404312379186 89.2402003453031 l 1.519078675076975 -0.9063404191369118 a22.768912936363712,22.768912936363712 0 0,0 0.19791641806479085,0.3383033140222476 l -1.534454767612093 0.8800576927607688" fill="#ff1001" stroke="none" /><path d="M 118.21658344932153 89.55222093294921 l 5.345471320816599 -3.0657946109663095 a27.16223662628293,27.16223662628293 0 0,0 0.22912298398822978,0.4075842222854696 l -5.397451946097261 2.973326878746046" fill="#ff4e07" stroke="none" /><path d="M 118.73160827565052 90.50648371742162 l 2.629013569464832 -1.3324314047970953 a23.947386265306903,23.947386265306903 0 0,0 0.18318608664088729,0.369291972501504 l -2.651559669059127 1.2869798437966415" fill="#ff2103" stroke="none" /><path d="M 119.04729006885535 91.15688171328212 l 3.2032152215473233 -1.487162268205037 a24.531605777479307,24.531605777479307 0 0,0 0.1745221459201895,0.38453641474805167 l -3.2283396844308596 1.4318038446149226" fill="#ff2904" stroke="none" /><path d="M 119.34039704204932 91.81776055985345 l 3.2531019905967207 -1.3762726459238863 a24.53225125906166,24.53225125906166 0 0,0 0.16118660217187084,0.3903261423657844 l -3.2763102796547887 1.3200719331047988" fill="#ff2904" stroke="none" /><path d="M 119.47837535516314 92.15188598940014 l 4.6413170992155885 -1.8700525628968943 a26.003890586680352,26.003890586680352 0 0,0 0.16370866970141312,0.41662070783189287 l -4.672819318798702 1.789882850169217" fill="#ff3e05" stroke="none" /><path d="M 119.61058180528143 92.48833698450437 l 3.8487166645850652 -1.4742174869436755 a25.121399903317478,25.121399903317478 0 0,0 0.15120141324738307,0.4051446148898654 l -3.8735226663340736 1.4077497350244768" fill="#ff3104" stroke="none" /><path d="M 119.7369772167798 92.82701384747503 l 2.763886786122761 -1.004476087004366 a23.94075540905183,23.94075540905183 0 0,0 0.13742782417367078,0.3885269651687967 l -2.780767691106241 0.9567514954089548" fill="#ff2103" stroke="none" /><path d="M 119.85752413597 93.16781622104841 l 59.57257240790998 -20.496551336854747 a84.0,84.0 0 0,0 0.45865082491291975,1.371307588310744 l -59.91656052659467 19.46807064562169" fill="#4dd2ff" stroke="none" /><path d="M 119.97218684219823 93.5106431181261 l 4.477486525500892 -1.4548235617526812 a25.70790794110004,25.70790794110004 0 0,0 0.13312352439935307,0.4220379516294846 l -4.501865533668451 1.3775354436967775" fill="#ff3a05" stroke="none" /><path d="M 120.08093135843002 93.85539295169968 l 2.815643906443341 -0.8615648888104276 a23.944510938258244,23.944510938258244 0 0,0 0.117207358142728,0.3951649447584087 l -2.830057161697771 0.8129705573054891" fill="#ff2103" stroke="none" /><path d="M 120.37134235888165 94.90015583598534 l 4.566402406154578 -1.1431716305831274 a25.707321139661538,25.707321139661538 0 0,0 0.10376845837166422,0.43018725252149576 l -4.585403664787061 1.0643991464022255" fill="#ff3a05" stroke="none" /><path d="M 120.45610955862082 95.25157060432595 l 4.65662546691028 -1.0809316985889266 a25.780436598898863,25.780436598898863 0 0,0 0.09662214599387811,0.43313813479164764 l -4.674541999906196 1.000615394247315" fill="#ff3b05" stroke="none" /><path d="M 120.53481517161879 95.60439243477599 l 33.94583016095679 -7.266320471661135 a55.714821020904104,55.714821020904104 0 0,0 0.1926690252622851,0.9395225921905056 l -34.065878482134075 6.680922223307218" fill="#5aff2a" stroke="none" /><path d="M 120.6074358757038 95.95851677861258 l 2.8849761455210845 -0.5657949274501012 a23.93993388703793,23.93993388703793 0 0,0 0.0758260653401027,0.4050658730553076 l -2.894287934771046 0.5160509769322308" fill="#ff2103" stroke="none" /><path d="M 120.67395015179393 96.31383870115 l 3.4796618722779793 -0.6204230363572775 a24.534539784671814,24.534539784671814 0 0,0 0.07055215171687425,0.41640279316131035 l -3.4898258855150766 0.5604344548801292" fill="#ff2904" stroke="none" /><path d="M 120.78858239683441 97.02765380044208 l 3.022913308979457 -0.43221537255500103 a24.05365600581958,24.05365600581958 0 0,0 0.055076000859348224,0.41038017872244203 l -3.0299053088966414 0.38011685176789467" fill="#ff2203" stroke="none" /><path d="M 120.83666639777658 97.38593545837742 l 4.095225115904498 -0.5137665767202798 a25.127326597846345,25.127326597846345 0 0,0 0.0501465422704415,0.42962495019586694 l -4.103462011178529 0.44319788819956013" fill="#ff3104" stroke="none" /><path d="M 120.87857604477298 97.74499172005257 l 2.955722473162219 -0.31923530780616355 a23.97291212788173,23.97291212788173 0 0,0 0.04078006318929976,0.4106496710795938 l -2.9607796620337474 0.2683101060221348" fill="#ff2103" stroke="none" /><path d="M 120.91429891909075 98.10471618934814 l 45.34960924264681 -4.109646732576839 a66.53543954687751,66.53543954687751 0 0,0 0.09354729509135053,1.1415139467239908 l -45.413631021557656 3.3284188686450795" fill="#37ff7c" stroke="none" /><path d="M 120.94382443527127 98.46500227214037 l 4.098377797302147 -0.3003749685837969 a25.10937047382819,25.10937047382819 0 0,0 0.027882651414326318,0.43133227622599946 l -4.102941039720889 0.2297836281047622" fill="#ff3104" stroke="none" /><line stroke="#e1ed5e" stroke-width="0.3" x1="184.98032266829074" x2="189.97916517819016" y1="98.17113171792111" y2="98.06355123074" /><path d="M 185.9800911702706 98.14961562048488 a86.0,86.0 0 0,1 -9.607161424134198,41.387399972396054" fill="none" id="id124" stroke="none" /><text fill="#e1ed5e" style="font-size:6.75px; font-family:Arial;" text-anchor="middle"><textPath startOffset="21.466115282336823" xlink:href="#id124">April</textPath></text><path d="M 120.99513854157772 99.54816195383933 l 4.11352315337724 -0.08852745890568287 a25.114475646343156,25.114475646343156 0 0,0 0.005581384718275697,0.4322843973322179 l -4.114437545213231 0.01770680351300224" fill="#ff3104" stroke="none" /><line stroke="#e1ed5e" stroke-width="0.3" x1="174.80103733775053" x2="179.2010983576182" y1="140.37084112569926" y2="142.7455964860345" /><path d="M 175.68104954172406 140.8457921977663 a86.0,86.0 0 0,1 -30.038265399797805,32.042727171017184" fill="none" id="id125" stroke="none" /><text fill="#e1ed5e" style="font-size:6.75px; font-family:Arial;" text-anchor="middle"><textPath startOffset="22.206326154141568" xlink:href="#id125">May</textPath></text><line stroke="#e1ed5e" stroke-width="0.3" x1="143.8653032363475" x2="146.44561519142675" y1="172.8068346515853" y2="177.08958963109032" /><path d="M 144.38136562736335 173.6633856474863 a86.0,86.0 0 0,1 -40.68145358897372,12.25698825130547" fill="none" id="id126" stroke="none" /><text fill="#e1ed5e" style="font-size:6.75px; font-family:Arial;" text-anchor="middle"><textPath startOffset="21.466115282336833" xlink:href="#id126">June</textPath></text><line stroke="#e1ed5e" stroke-width="0.3" x1="102.19456741930631" x2="102.32365962044197" y1="184.97166512339345" y2="189.96999836594603" /><path d="M 102.22038585953345 185.97133177190398 a86.0,86.0 0 0,1 -42.740103519485714,-10.115201625700543" fill="none" id="id127" stroke="none" /><text fill="#e1ed5e" style="font-size:6.75px; font-family:Arial;" text-anchor="middle"><textPath startOffset="22.20632615414155" xlink:href="#id127">July</textPath></text><line stroke="#e1ed5e" stroke-width="0.3" x1="58.666819895761336" x2="56.23545636021788" y1="174.27360380694188" y2="178.64263932499728" /><path d="M 58.180547188652646 175.14741091055294 a86.0,86.0 0 0,1 -31.652253787137756,-30.449443065178592" fill="none" id="id128" stroke="none" /><text fill="#e1ed5e" style="font-size:6.75px; font-family:Arial;" text-anchor="middle"><textPath startOffset="22.20632615414155" xlink:href="#id128">August</textPath></text><line stroke="#e1ed5e" stroke-width="0.3" x1="26.63291911575756" x2="22.317208475507996" y1="142.92168965132927" y2="145.44649492493687" /><path d="M 25.769776987707644 143.4266507060508 a86.0,86.0 0 0,1 -11.730757126820373,-40.83630448921669" fill="none" id="id129" stroke="none" /><text fill="#e1ed5e" style="font-size:6.75px; font-family:Arial;" text-anchor="middle"><textPath startOffset="21.46611528233685" xlink:href="#id129">September</textPath></text><line stroke="#e1ed5e" stroke-width="0.3" x1="15.007084014347285" x2="10.007500721073583" y1="101.09737516637583" y2="101.16192664675087" /><path d="M 14.007167355692545 101.11028546245083 a86.0,86.0 0 0,1 10.666146001902534,-42.60595125391555" fill="none" id="id130" stroke="none" /><text fill="#e1ed5e" style="font-size:6.75px; font-family:Arial;" text-anchor="middle"><textPath startOffset="22.20632615414155" xlink:href="#id130">October</textPath></text><line stroke="#e1ed5e" stroke-width="0.3" x1="26.266209847984243" x2="21.928928074336255" y1="57.711370442889674" y2="55.22380399835377" /><path d="M 25.398753493254645 57.213857153982495 a86.0,86.0 0 0,1 29.58750427330803,-30.492523968695096" fill="none" id="id131" stroke="none" /><text fill="#e1ed5e" style="font-size:6.75px; font-family:Arial;" text-anchor="middle"><textPath startOffset="21.46611528233685" xlink:href="#id131">November</textPath></text><line stroke="#e1ed5e" stroke-width="0.3" x1="56.762969772571076" x2="54.21961505331055" y1="26.818313649435495" y2="22.513508569990535" /><path d="M 56.25429882871897 25.957352633546506 a86.0,86.0 0 0,1 42.265352541879196,-11.944610805530505" fill="none" id="id132" stroke="none" /><text fill="#e1ed5e" style="font-size:6.75px; font-family:Arial;" text-anchor="middle"><textPath startOffset="22.20632615414155" xlink:href="#id132">December</textPath></text></svg>