<?xml version="1.0" encoding="utf-8" ?>
<svg baseProfile="full" height="200mm" version="1.1" viewBox="0,0,200,200" width="200mm" xmlns="http://www.w3.org/2000/svg" xmlns:ev="http://www.w3.org/2001/xml-events" xmlns:xlink="http://www.w3.org/1999/xlink"><defs /><rect fill="#1a1a1a" height="200" width="200" x="0" y="0" /><text alignment-baseline="middle" fill="#e1ed5e" style="dominant-baseline: central; font-size:9.0px; font-family:Arial;" text-anchor="middle" x="100.0" y="100.0">2023</text><line stroke="#e1ed5e" stroke-width="0.3" x1="100.0" x2="100.0" y1="15.0" y2="10.0" /><path d="M 100.0 14.0 a86.0,86.0 0 0,1 42.46469731375804,11.215312516191453" fill="none" id="id85" stroke="none" /><text fill="#e1ed5e" style="font-size:6.75px; font-family:Arial;" text-anchor="middle"><textPath startOffset="22.20632615414155" xlink:href="#id85">January</textPath></text><path d="M 107.4271985657038 80.35727306442388 l 0.33498024552057015 -0.8859229268430483 a21.94713842557209,21.94713842557209 0 0,0 0.35221691092859503,0.13665468942227085 l -0.35018032144883227 0.8800255335302306" fill="#ff0901" stroke="none" /><line stroke="#e1ed5e" stroke-width="0.3" x1="143.23703022742887" x2="145.7803849466894" y1="26.81831364943548" y2="22.513508569990506" /><path d="M 143.74570117128098 25.957352633546492 a86.0,86.0 0 0,1 28.547481713284135,27.462654790039103" fill="none" id="id86" stroke="none" /><text fill="#e1ed5e" style="font-size:6.75px; font-family:Arial;" text-anchor="middle"><textPath startOffset="19.985693538727396" xlink:href="#id86">February</textPath></text><path d="M 113.34407831869373 83.78471172551755 l 5.525087141530504 -6.713905494397872 a29.695005170165896,29.695005170165896 0 0,0 0.3918927082319772,0.32819887291333594 l -5.639837386721599 6.617805464090718" fill="#ff750a" stroke="none" /><path d="M 113.89432698308785 84.25364557470407 l 0.8766279433454435 -0.9934770004936143 a22.324942678595512,22.324942678595512 0 0,0 0.28596020395674,0.2567378945737825 l -0.8935991348981734 0.9782400971505344" fill="#ff0e01" stroke="none" /><path d="M 114.16331599549186 84.49514656593476 l 3.2339454784833 -3.5402620878896975 a25.794982691183744,25.794982691183744 0 0,0 0.3252527644892305,0.3022869972659213 l -3.2944061267673774 3.484070504549136" fill="#ff3f05" stroke="none" /><path d="M 114.42810811169701 84.74124197986012 l 2.1263021350601443 -2.248716845300477 a24.09481634671582,24.09481634671582 0 0,0 0.2989096857333756,0.28755088084967373 l -2.164695064405938 2.2117828776885013" fill="#ff2803" stroke="none" /><path d="M 114.68862486808459 84.99185889309783 l 1.2674494317005247 -1.2950197916862551 a22.812044238636876,22.812044238636876 0 0,0 0.2782680504256217,0.27707307898379885 l -1.289553282293469 1.2730108620523377" fill="#ff1502" stroke="none" /><path d="M 115.19652480421416 85.50635884689758 l 6.221946292855206 -5.934163106653944 a29.598075799127816,29.598075799127816 0 0,0 0.3484576925876,0.371710370942453 l -6.3231713074132685 5.826183318833436" fill="#ff730a" stroke="none" /><path d="M 115.9244219780498 86.31012108654704 l 10.406991233808004 -8.946663812386973 a34.72400305714157,34.72400305714157 0 0,0 0.3857495890700964,0.4566058417752947 l -10.559451436365217 8.766199020982572" fill="#ffb610" stroke="none" /><path d="M 117.2510076193507 88.02491185347247 l 26.11836006496998 -18.13051567317853 a52.79440722924066,52.79440722924066 0 0,0 0.5117928410188168,0.7509928422755198 l -26.42657737165753 17.678244807632602" fill="#76ff27" stroke="none" /><line stroke="#e1ed5e" stroke-width="0.3" x1="172.23445277983987" x2="176.4835382374775" y1="55.19839476539836" y2="52.563006222186495" /><path d="M 173.08426987136738 54.67131705675599 a86.0,86.0 0 0,1 12.851231095245387,41.99856678651699" fill="none" id="id87" stroke="none" /><text fill="#e1ed5e" style="font-size:6.75px; font-family:Arial;" text-anchor="middle"><textPath startOffset="22.20632615414155" xlink:href="#id87">March</textPath></text><path d="M 118.21658344932153 89.55222093294921 l 1.131394273065206 -0.648889921405765 a22.30426651081239,22.30426651081239 0 0,0 0.18814430376035726,0.334687722684101 l -1.1423962181179963 0.62931868878687" fill="#ff0e01" stroke="none" /><path d="M 118.56541770881063 90.18545643968196 l 15.209987428219454 -8.040707001992525 a38.20455424178393,38.20455424178393 0 0,0 0.3023445964431978,0.5840335259760424 l -15.346141457822768 7.777700753756137" fill="#ffe215" stroke="none" /><path d="M 119.04729006885535 91.15688171328212 l 1.1946337933458233 -0.5546346963624763 a22.317106505417435,22.317106505417435 0 0,0 0.15876780971388482,0.34982382323385924 l -1.204003920023055 0.5339888642865543" fill="#ff0e01" stroke="none" /><path d="M 119.34039704204932 91.81776055985345 l 15.56900657627651 -6.586697231465541 a37.904985838241245,37.904985838241245 0 0,0 0.24905076212205257,0.6030961750078009 l -15.680079025284762 6.317726486004437" fill="#ffde14" stroke="none" /><path d="M 119.85752413597 93.16781622104841 l 21.392168023473143 -7.36019366592806 a43.62293755338759,43.62293755338759 0 0,0 0.2381868606426905,0.7121483963257871 l -21.5156921778876 6.990872166679959" fill="#dbff1b" stroke="none" /><path d="M 120.08093135843002 93.85539295169968 l 1.7876299142573984 -0.5470006930872393 a22.869446567459427,22.869446567459427 0 0,0 0.11194496397399292,0.3774227676977086 l -1.7967807753430936 0.5161485386430008" fill="#ff1602" stroke="none" /><path d="M 120.73433829027371 96.67025291283417 l 0.5292260482847673 -0.084988913948371 a21.536006833610575,21.536006833610575 0 0,0 0.05562864045592085,0.3665232360886954 l -0.530610582179988 0.07586656546759345" fill="#ff0300" stroke="none" /><path d="M 120.78858239683441 97.02765380044208 l 2.351017354639077 -0.3361478606747261 a23.374926943308008,23.374926943308008 0 0,0 0.05352190519833488,0.39880036092217813 l -2.356455258895248 0.2956291576878836" fill="#ff1d03" stroke="none" /><path d="M 120.83666639777658 97.38593545837742 l 15.63041941095692 -1.9609146862970206 a36.75294249876366,36.75294249876366 0 0,0 0.07334775458107523,0.6283987685317964 l -15.661857518541584 1.6915721794403715" fill="#ffd013" stroke="none" /><path d="M 120.87857604477298 97.74499172005257 l 11.859790880862858 -1.2809267536943059 a32.9287641055613,32.9287641055613 0 0,0 0.056014766742024096,0.564061056782471 l -11.88008277328711 1.0765901662074" fill="#ff9f0e" stroke="none" /><path d="M 120.91429891909075 98.10471618934814 l 11.813480718403827 -1.0705545923225297 a32.86188913366003,32.86188913366003 0 0,0 0.04620305901608804,0.5637943480532839 l -11.83015826123941 0.867046327061477" fill="#ff9e0e" stroke="none" /><line stroke="#e1ed5e" stroke-width="0.3" x1="184.98032266829074" x2="189.97916517819016" y1="98.17113171792111" y2="98.06355123074" /><path d="M 185.9800911702706 98.14961562048488 a86.0,86.0 0 0,1 -9.607161424134198,41.387399972396054" fill="none" id="id88" stroke="none" /><text fill="#e1ed5e" style="font-size:6.75px; font-family:Arial;" text-anchor="middle"><textPath startOffset="21.466115282336823" xlink:href="#id88">April</textPath></text><path d="M 120.99513854157772 99.54816195383933 l 16.197018335292498 -0.3485773196377828 a37.20076878118959,37.20076878118959 0 0,0 0.008267415386539112,0.6403204326988718 l -16.20061875779675 0.06972062887844829" fill="#ffd614" stroke="none" /><path d="M 120.76222939487914 103.15116336523771 l 15.990485438791913 2.426937442446138 a37.17360967495392,37.17360967495392 0 0,0 -0.10146314717269496,0.6318111142985088 l -15.946340537257928 -2.7018277864378515" fill="#ffd513" stroke="none" /><path d="M 120.23288151984713 105.62410040840565 l 11.290347518487906 3.1383591124913295 a32.71841478217866,32.71841478217866 0 0,0 -0.15550184307981516,0.5413223156861122 l -11.234653038521992 -3.3322389036820237" fill="#ff9d0e" stroke="none" /><path d="M 120.02730092923936 106.31721596034902 l 16.331243619621507 5.151367785940559 a38.12443015780246,38.12443015780246 0 0,0 -0.20279972734363907,0.6241533821891525 l -16.24015164126162 -5.4317200681075075" fill="#ffe115" stroke="none" /><path d="M 119.9155931802556 106.66101706037122 l 10.976870649591943 3.671350484248126 a32.57456278379715,32.57456278379715 0 0,0 -0.18243177435190197,0.5302321306872978 l -10.91204804429681 -3.859755318024724" fill="#ff9b0e" stroke="none" /><path d="M 119.67450827220406 107.3425965602758 l 0.4445037190902744 0.1658903711170827 a21.474450388886392,21.474450388886392 0 0,0 -0.13222710846992639,0.3452032555475655 l -0.44158233102684125 -0.17351719349779207" fill="#ff0200" stroke="none" /><path d="M 119.54520255179757 107.68017299344265 l 0.2966533462881291 0.11656819685232374 a21.318733983725217,21.318733983725217 0 0,0 -0.1371478680258744,0.3403897610254266 l -0.2946028640048623 -0.12165732572056391" fill="#ff0000" stroke="none" /><path d="M 119.41010516605496 108.01547362559984 l 11.144179429062289 4.602029485590685 a33.05700669873668,33.05700669873668 0 0,0 -0.22171652182077772,0.524072363582558 l -11.063311926049202 -4.7931763748394065" fill="#ffa10e" stroke="none" /><path d="M 119.12269723197855 108.67885076344098 l 10.83158128065898 4.915921448032773 a32.89493323742301,32.89493323742301 0 0,0 -0.23844970552832784,0.5135994522263626 l -10.74535695829082 -5.101640967537966" fill="#ff9f0e" stroke="none" /><path d="M 118.97047184881838 109.00673069616215 l 14.317817857549331 6.797760784620684 a36.84958863462662,36.84958863462662 0 0,0 -0.27698036005063087,0.5706615805770021 l -14.198684240883987 -7.0432113211629614" fill="#ffd113" stroke="none" /><line stroke="#e1ed5e" stroke-width="0.3" x1="174.80103733775053" x2="179.2010983576182" y1="140.37084112569926" y2="142.7455964860345" /><path d="M 175.68104954172406 140.8457921977663 a86.0,86.0 0 0,1 -30.038265399797805,32.042727171017184" fill="none" id="id89" stroke="none" /><text fill="#e1ed5e" style="font-size:6.75px; font-family:Arial;" text-anchor="middle"><textPath startOffset="22.206326154141568" xlink:href="#id89">May</textPath></text><path d="M 116.71984013943494 112.70617746262583 l 1.4461262324438968 1.0989780039494825 a22.816324236838557,22.816324236838557 0 0,0 -0.24032454177765936,0.3106518663218709 l -1.426994873448169 -1.1237078643846061" fill="#ff1602" stroke="none" /><path d="M 116.498646956653 112.99209946851258 l 1.1584582482983705 0.9122447938642689 a22.474522321629276,22.474522321629276 0 0,0 -0.24195652057351136,0.30187796193123534 l -1.1425838156700052 -0.9320505893737545" fill="#ff1101" stroke="none" /><path d="M 116.0416608686014 113.55231037782055 l 1.2101021791766515 1.0223181038054707 a22.584134334397337,22.584134334397337 0 0,0 -0.2534343057504994,0.2948013531747968 l -1.1923253638553735 -1.0429965561417955" fill="#ff1202" stroke="none" /><path d="M 115.80600337817218 113.82643327865902 l 19.72317012225416 17.253007557595737 a47.20438340151958,47.20438340151958 0 0,0 -0.5402455146839096,0.6069715628507517 l -19.423265757921914 -17.589953290187353" fill="#b2ff20" stroke="none" /><path d="M 115.32070863581623 114.36230785411682 l 10.54472241049204 9.885087765564894 a35.4535853976532,35.4535853976532 0 0,0 -0.42121129937337537,0.441638363412401 l -10.3730045597397 -10.065133245559801" fill="#ffc011" stroke="none" /><path d="M 115.07121518719521 114.62390073753431 l 0.9782998184198181 0.9492638289893437 a22.363147956660523,22.363147956660523 0 0,0 -0.27044433699352777,0.2739586855413236 l -0.9618148563707547 -0.9659630085113319" fill="#ff0f01" stroke="none" /><path d="M 114.81725581225074 114.88116024355365 l 0.22891260196989643 0.22989986505236695 a21.324430157802453,21.324430157802453 0 0,0 -0.2623413117536816,0.2567561890778644 l -0.22492133784042062 -0.23380615705280333" fill="#ff0000" stroke="none" /><path d="M 114.55890576462653 115.13401014063108 l 0.850878577402133 0.8844898941606658 a22.22732095490716,22.22732095490716 0 0,0 -0.27801527201659076,0.2628807925300242 l -0.8355274709947347 -0.8990053234366114" fill="#ff0d01" stroke="none" /><path d="M 114.29624159901734 115.38237550388516 l 0.6740094422291429 0.7252162228599653 a21.990064289888952,21.990064289888952 0 0,0 -0.2794837174392375,0.255301749385762 l -0.6614261753230414 -0.7367107388323103" fill="#ff0a01" stroke="none" /><path d="M 113.75828350139079 115.86535959552629 l 0.31455045497042877 0.3627237422849862 a21.480115092388615,21.480115092388615 0 0,0 -0.2814248204292627,0.2398363373509097 l -0.3082601579641188 -0.3680844698588427" fill="#ff0200" stroke="none" /><path d="M 113.48314897796784 116.09983520530334 l 7.496484541533569 8.951333693264953 a32.67577215303691,32.67577215303691 0 0,0 -0.4343230514657216,0.35741830279348874 l -7.341291361523156 -9.07904711491562" fill="#ff9c0e" stroke="none" /><path d="M 112.34349029814194 116.9893568818739 l 8.222907709876267 11.317861505576714 a34.989646180820934,34.989646180820934 0 0,0 -0.4903093656786784,0.34982271389065966 l -8.026871016348704 -11.457728481311593" fill="#ffba11" stroke="none" /><path d="M 112.04921762599082 117.19931262002967 l 12.367055940146123 17.65300187168602 a42.55394506136762,42.55394506136762 0 0,0 -0.6035428366030667,0.41512226641299627 l -12.061356218920173 -17.863264927464108" fill="#e8ff1a" stroke="none" /><path d="M 111.45004920935366 117.60387380957326 l 3.2192056409759497 4.949366490452485 a26.904194578069504,26.904194578069504 0 0,0 -0.39039036615276584,0.2491656023595825 l -3.1335334727762536 -5.0040465216358765" fill="#ff4f07" stroke="none" /><line stroke="#e1ed5e" stroke-width="0.3" x1="143.8653032363475" x2="146.44561519142675" y1="172.8068346515853" y2="177.08958963109032" /><path d="M 144.38136562736335 173.6633856474863 a86.0,86.0 0 0,1 -40.68145358897372,12.25698825130547" fill="none" id="id90" stroke="none" /><text fill="#e1ed5e" style="font-size:6.75px; font-family:Arial;" text-anchor="middle"><textPath startOffset="21.466115282336833" xlink:href="#id90">June</textPath></text><path d="M 108.2653958097858 119.30500536409082 l 6.575987007177497 15.359151257759672 a37.70769680348874,37.70769680348874 0 0,0 -0.5988853847895166,0.2503341394130608 l -6.3106301628905195 -15.470070440192705" fill="#ffdc14" stroke="none" /><line stroke="#e1ed5e" stroke-width="0.3" x1="102.19456741930631" x2="102.32365962044197" y1="184.97166512339345" y2="189.96999836594603" /><path d="M 102.22038585953345 185.97133177190398 a86.0,86.0 0 0,1 -42.740103519485714,-10.115201625700543" fill="none" id="id91" stroke="none" /><text fill="#e1ed5e" style="font-size:6.75px; font-family:Arial;" text-anchor="middle"><textPath startOffset="22.20632615414155" xlink:href="#id91">July</textPath></text><path d="M 100.18074693466247 120.99922214144158 l 0.014662038354057603 1.7034391261913588 a22.703502225419232,22.703502225419232 0 0,0 -0.3908179460330249,0.0 l 0.014662038354056429 -1.7034391261913588" fill="#ff1402" stroke="none" /><path d="M 99.81925306533755 120.99922214144158 l -0.010844436865749176 1.259909271313453 a22.25995594119498,22.25995594119498 0 0,0 -0.38312597039814583,-0.006595861028999557 l 0.03253009715656296 -1.2595359330052938" fill="#ff0e01" stroke="none" /><path d="M 99.45781275523022 120.99299961872073 l -0.039798098931601876 1.5409463866153559 a22.541460234680574,22.541460234680574 0 0,0 -0.3877986107774008,-0.01335656826049151 l 0.0663170613836457 -1.5400330199287706" fill="#ff1202" stroke="none" /><path d="M 98.73552117531835 120.96189622390904 l -0.6289251509786455 10.426005948134263 a31.444957964303377,31.444957964303377 0 0,0 -0.5400106108413794,-0.03724229338990708 l 0.8082985225989548 -10.413635310228072" fill="#ff8c0c" stroke="none" /><path d="M 98.01472825383883 120.90594882070398 l -0.19785479616801804 2.083514385684301 a23.092887650047206,23.092887650047206 0 0,0 -0.39540236424791597,-0.04098507175702013 l 0.23368975702152736 -2.07979994547152" fill="#ff1902" stroke="none" /><path d="M 96.58105272829116 120.7198165907248 l -0.4442802317199679 2.6924676470723803 a23.728876500472058,23.728876500472058 0 0,0 -0.4024316081645632,-0.06996789347660583 l 0.49056081135658103 -2.684421175074768" fill="#ff2203" stroke="none" /><path d="M 92.06813273071674 119.44442032107085 l -0.4612153365335312 1.1306372834567742 a22.221089781054715,22.221089781054715 0 0,0 -0.35292226871671595,-0.14752153694643128 l 0.4806090647477094 -1.1225307034903698" fill="#ff0d01" stroke="none" /><path d="M 91.7346041902142 119.30500536409082 l -0.4815504396844586 1.1247294183035246 a22.223481544755654,22.223481544755654 0 0,0 -0.3503683465044664,-0.15359118673098138 l 0.5008394608466683 -1.1162736782780909" fill="#ff0d01" stroke="none" /><path d="M 90.7491055286396 118.85261126421891 l -0.9343917747451486 1.9042185544641073 a23.121116755833295,23.121116755833295 0 0,0 -0.3557856442694371,-0.1783983080255134 l 0.9670313266973461 -1.8878524055292918" fill="#ff1a02" stroke="none" /><path d="M 90.10565033884886 118.52300852407294 l -3.580687282324633 6.703331024671133 a28.59973474801061,28.59973474801061 0 0,0 -0.43223349502982583,-0.2356881645397283 l 3.6955435892230994 -6.640702208371639" fill="#ff6609" stroke="none" /><line stroke="#e1ed5e" stroke-width="0.3" x1="58.666819895761336" x2="56.23545636021788" y1="174.27360380694188" y2="178.64263932499728" /><path d="M 58.180547188652646 175.14741091055294 a86.0,86.0 0 0,1 -31.652253787137756,-30.449443065178592" fill="none" id="id92" stroke="none" /><text fill="#e1ed5e" style="font-size:6.75px; font-family:Arial;" text-anchor="middle"><textPath startOffset="22.20632615414155" xlink:href="#id92">August</textPath></text><path d="M 89.7882731507175 118.34994917583269 l -5.4471113033928376 9.78817951631613 a32.20176235220069,32.20176235220069 0 0,0 -0.48203160489164437,-0.27371012550959006 l 5.61479167520569 -9.692966225011908" fill="#ff960d" stroke="none" /><path d="M 89.4739219176387 118.17145234162733 l -3.8621016367948617 6.667250165010693 a28.70506676257699,28.70506676257699 0 0,0 -0.4254256686090126,-0.25134898374789977 l 3.9762951764322563 -6.5997826089690435" fill="#ff6709" stroke="none" /><path d="M 88.24862548938628 117.40417183066458 l -5.153969815821817 7.633198669960268 a30.21027289484332,30.21027289484332 0 0,0 -0.4284724664472757,-0.29470726944297543 l 5.284599166891983 -7.543350611152191" fill="#ff7c0b" stroke="none" /><path d="M 86.79598089348748 116.32954008644616 l -6.443748909737122 7.969047551335902 a31.248298341051118,31.248298341051118 0 0,0 -0.41534921424451493,-0.34180412649269065 l 6.579968252526326 -7.85694830598603" fill="#ff890c" stroke="none" /><path d="M 84.43433777217949 114.09645910891817 l -10.506664548669312 9.514967305196043 a35.174787573618666,35.174787573618666 0 0,0 -0.4025689956580403,-0.452290534226434 l 10.66889239397569 -9.332702601228746" fill="#ffbc11" stroke="none" /><path d="M 83.95833913139862 113.55231037782056 l -2.4797274327447325 2.094922470698183 a24.246189812525287,24.246189812525287 0 0,0 -0.2665972483358417,-0.32113355972556734 l 2.5154206809741106 -2.0519276538588542" fill="#ff2a04" stroke="none" /><path d="M 82.85270091963577 112.12312394758628 l -1.8647485386635367 1.3183754222369497 a23.28372521692218,23.28372521692218 0 0,0 -0.22855647590964218,-0.32925265009531607 l 1.887165921735313 -1.286081509954621" fill="#ff1c02" stroke="none" /><line stroke="#e1ed5e" stroke-width="0.3" x1="26.63291911575756" x2="22.317208475507996" y1="142.92168965132927" y2="145.44649492493687" /><path d="M 25.769776987707644 143.4266507060508 a86.0,86.0 0 0,1 -11.730757126820373,-40.83630448921669" fill="none" id="id93" stroke="none" /><text fill="#e1ed5e" style="font-size:6.75px; font-family:Arial;" text-anchor="middle"><textPath startOffset="21.46611528233685" xlink:href="#id93">September</textPath></text><path d="M 81.87401531095188 110.60418214915194 l -1.046259575698823 0.6120896219617943 a22.212152137751204,22.212152137751204 0 0,0 -0.19022910586353625,-0.3316804805321314 l 1.0566406777147366 -0.5939892955713559" fill="#ff0d01" stroke="none" /><path d="M 81.69416730710424 110.29060199501025 l -22.6116496270306 12.7111118442974 a46.93952704221553,46.93952704221553 0 0,0 -0.38987432596908894,-0.7077351482870521 l 22.827100362451205 -12.320006177612525" fill="#b5ff1f" stroke="none" /><path d="M 81.51974371655577 109.97397251340807 l -12.37824620132084 6.680658833004134 a35.06599379580092,35.06599379580092 0 0,0 -0.2821100808762987,-0.5336459570581443 l 12.491408790422025 -6.466597860859864" fill="#ffbb11" stroke="none" /><path d="M 81.35079622478065 109.6543875284942 l -8.208539450648818 4.249426509286155 a30.243254057456276,30.243254057456276 0 0,0 -0.23535203847911387,-0.4643718997729743 l 8.280470158914198 -4.107500397810496" fill="#ff7c0b" stroke="none" /><path d="M 81.18737489456691 109.33194174019688 l -1.5709750014986703 0.7792770603320756 a22.753634851413928,22.753634851413928 0 0,0 -0.17102796007016768,-0.3523682545530003 l 1.584156218183557 -0.7521198498137905" fill="#ff1502" stroke="none" /><path d="M 81.02952815118164 109.00673069616217 l -1.070015464709237 0.5080179980850187 a22.184489502315337,22.184489502315337 0 0,0 -0.16081154355727595,-0.3463737583558438 l 1.0786016251063397 -0.48952417245034785" fill="#ff0c01" stroke="none" /><path d="M 80.87730276802145 108.67885076344099 l -8.429903019452567 3.8259179324223243 a30.257478757361866,30.257478757361866 0 0,0 -0.21116682216406174,-0.476125437567007 l 8.494510926347909 -3.6802441583626213" fill="#ff7c0b" stroke="none" /><path d="M 80.73074385275274 108.34839909993369 l -22.627868810368298 9.803516968499213 a45.66027963853797,45.66027963853797 0 0,0 -0.3062478850272845,-0.7238795360417183 l 22.793267676587888 -9.412562906791337" fill="#c4ff1e" stroke="none" /><path d="M 80.45479744820244 107.68017299344265 l -24.593142357548214 9.663731407120217 a47.423670368205734,47.423670368205734 0 0,0 -0.2920072314895618,-0.762338737646617 l 24.75584386863128 -9.238969102640443" fill="#b0ff20" stroke="none" /><path d="M 79.67330655649465 105.27499134158121 l -24.948382038622185 6.474368278636141 a46.7747785820258,46.7747785820258 0 0,0 -0.1955379207550329,-0.7810767936698851 l 25.05613127367228 -6.043963645568864" fill="#b7ff1f" stroke="none" /><path d="M 79.50377843672027 104.57218783832718 l -12.039598924243963 2.6857295433606123 a33.335521287596094,33.335521287596094 0 0,0 -0.12011258394513462,-0.5611260046535005 l 12.084045546913538 -2.4780897192909483" fill="#ffa50f" stroke="none" /><path d="M 79.23777060512086 103.15116336523772 l -9.200111024161947 1.3963362153492662 a30.30547138425572,30.30547138425572 0 0,0 -0.07383848584594033,-0.5164261980297289 l 9.222783561024485 -1.2377645453391368" fill="#ff7d0b" stroke="none" /><path d="M 79.07016306316243 101.71520430193888 l -12.942285491181273 1.0606228714722812 a33.985671896776516,33.985671896776516 0 0,0 -0.04276278131512482,-0.5834641758569059 l 12.958624831160733 -0.8376855591186145" fill="#ffad10" stroke="none" /><line stroke="#e1ed5e" stroke-width="0.3" x1="15.007084014347285" x2="10.007500721073583" y1="101.09737516637583" y2="101.16192664675087" /><path d="M 14.007167355692545 101.11028546245083 a86.0,86.0 0 0,1 10.666146001902534,-42.60595125391555" fill="none" id="id94" stroke="none" /><text fill="#e1ed5e" style="font-size:6.75px; font-family:Arial;" text-anchor="middle"><textPath startOffset="22.20632615414155" xlink:href="#id94">October</textPath></text><path d="M 79.00019446554 99.90962569577889 l -0.48700263850165226 -0.0020958539133237902 a21.487007148316323,21.487007148316323 0 0,0 0.004775224258227969,-0.36984638128151454 l 0.48689440712570875 0.010478493255310304" fill="#ff0200" stroke="none" /><path d="M 79.00486145842228 99.54816195383935 l -3.4669084217625095 -0.07461161184551791 a24.467711190037313,24.467711190037313 0 0,0 0.012686281686102792,-0.4209959274830475 l 3.4651104456207618 0.1342776867535598" fill="#ff2d04" stroke="none" /><path d="M 79.03285615573316 98.82574320788736 l -2.7111900472097052 -0.15183915135464263 a23.715438564941778,23.715438564941778 0 0,0 0.026334762447885234,-0.4073871190270147 l 2.7081746937574067 0.19848533463466908" fill="#ff2203" stroke="none" /><path d="M 79.16333360222342 97.38593545837743 l -11.107205649249225 -1.3934547825419161 a32.19427235534775,32.19427235534775 0 0,0 0.07371568677461401,-0.5492674893093283 l 11.081573963416778 1.5844406139159037" fill="#ff960d" stroke="none" /><path d="M 79.21141760316559 97.0276538004421 l -5.501065957032514 -0.7865410049986292 a26.55701119453311,26.55701119453311 0 0,0 0.06859815929380467,-0.4519761606256801 l 5.4867119042994075 0.8811162780164014" fill="#ff4a06" stroke="none" /><path d="M 79.71946130924805 94.55025226153421 l -19.629168963616536 -5.274712905738191 a41.32552263633503,41.32552263633503 0 0,0 0.19051701449793118,-0.685391067359053 l 19.535465178552244 5.611815276516187" fill="#f6ff19" stroke="none" /><path d="M 80.02781315780177 93.51064311812611 l -24.11986732327564 -7.837019963856718 a46.3611293440633,46.3611293440633 0 0,0 0.2531377406851044,-0.7568496246686713 l 23.98139228881876 8.251042691447712" fill="#bcff1f" stroke="none" /><path d="M 80.65960295795068 91.81776055985345 l -5.428029129816118 -2.296407562455071 a26.893809288315424,26.893809288315424 0 0,0 0.1840423924976252,-0.42479521648852797 l 5.387696027475812 2.389501923530198" fill="#ff4f07" stroke="none" /><path d="M 80.95270993114464 91.15688171328213 l -22.032418795662025 -10.229029161010407 a45.29116126421795,45.29116126421795 0 0,0 0.3343820688289929,-0.7042939150132435 l 21.85307853299128 10.606765491664184" fill="#c8ff1d" stroke="none" /><line stroke="#e1ed5e" stroke-width="0.3" x1="26.266209847984243" x2="21.928928074336255" y1="57.711370442889674" y2="55.22380399835377" /><path d="M 25.398753493254645 57.213857153982495 a86.0,86.0 0 0,1 29.58750427330803,-30.492523968695096" fill="none" id="id95" stroke="none" /><text fill="#e1ed5e" style="font-size:6.75px; font-family:Arial;" text-anchor="middle"><textPath startOffset="21.46611528233685" xlink:href="#id95">November</textPath></text><path d="M 82.15384107792192 88.93136811851018 l -13.632765553048321 -8.455380459862893 a37.041999730252215,37.041999730252215 0 0,0 0.3407377203690106,-0.5389652452832361 l 13.485200236433348 8.688793352860344" fill="#ffd413" stroke="none" /><path d="M 82.95767976084542 87.72973835380427 l -1.3148808092323205 -0.9466980632000204 a22.62023108393652,22.62023108393652 0 0,0 0.2302280522008807,-0.314030804466515 l 1.2983901445178063 0.969191311338036" fill="#ff1302" stroke="none" /><path d="M 83.17141714833178 87.43820079747576 l -0.36603283656148444 -0.27322746276047455 a21.456763925729444,21.456763925729444 0 0,0 0.22348145311849676,-0.294075396102463 l 0.36127544321887883 0.27948763474396415" fill="#ff0200" stroke="none" /><path d="M 86.37877921826538 84.01681056812374 l -1.8148359424563232 -2.1295350189869815 a23.797954412624197,23.797954412624197 0 0,0 0.31406779529759415,-0.263022746455471 l 1.7779106101996187 2.160458922836265" fill="#ff2303" stroke="none" /><path d="M 86.93701828274178 83.55741782278169 l -0.37163398960036836 -0.4677815942878088 a21.597437396034707,21.597437396034707 0 0,0 0.2930745976120132,-0.2287493721084127 l 0.3635268368289295 0.47410935561944323" fill="#ff0400" stroke="none" /><path d="M 87.22198572758235 83.33499621200491 l -0.30471989857030907 -0.3974137260836594 a21.500791260171738,21.500791260171738 0 0,0 0.2956398177910754,-0.2226697815040414 l 0.2978339270208437 0.40260009709355515" fill="#ff0300" stroke="none" /><path d="M 87.51073957382395 83.11751280151077 l -26.27539828823479 -35.51804190955999 a65.18062761318168,65.18062761318168 0 0,0 0.9077323727845243,-0.6595061728751749 l 25.660120599096484 35.96506731725184" fill="#36ff6d" stroke="none" /><path d="M 87.80319425747018 82.90503203632743 l -0.5007656145425371 -0.7018700074940989 a21.86219934361372,21.86219934361372 0 0,0 0.3082245926599317,-0.2159310244943653 l 0.48860988229894514 0.7103858747524068" fill="#ff0801" stroke="none" /><line stroke="#e1ed5e" stroke-width="0.3" x1="56.762969772571076" x2="54.21961505331055" y1="26.818313649435495" y2="22.513508569990535" /><path d="M 56.25429882871897 25.957352633546506 a86.0,86.0 0 0,1 42.265352541879196,-11.944610805530505" fill="none" id="id96" stroke="none" /><text fill="#e1ed5e" style="font-size:6.75px; font-family:Arial;" text-anchor="middle"><textPath startOffset="22.20632615414155" xlink:href="#id96">December</textPath></text><path d="M 97.11714578562143 79.19881850522333 l -8.648562643135705 -62.403544484330034 a84.0,84.0 0 0,0 1.433941085968569,-0.1861667073434532 l 7.573106828659279 62.54316951483762" fill="#4dd2ff" stroke="none" /></svg>