<?xml version="1.0" encoding="utf-8" ?>
<svg baseProfile="full" height="200mm" version="1.1" viewBox="0,0,200,200" width="200mm" xmlns="http://www.w3.org/2000/svg" xmlns:ev="http://www.w3.org/2001/xml-events" xmlns:xlink="http://www.w3.org/1999/xlink"><defs /><rect fill="#1a1a1a" height="200" width="200" x="0" y="0" /><text alignment-baseline="middle" fill="#e1ed5e" style="dominant-baseline: central; font-size:9.0px; font-family:Arial;" text-anchor="middle" x="100.0" y="100.0">2026</text><line stroke="#e1ed5e" stroke-width="0.3" x1="100.0" x2="100.0" y1="15.0" y2="10.0" /><path d="M 100.0 14.0 a86.0,86.0 0 0,1 42.46469731375804,11.215312516191453" fill="none" id="id121" stroke="none" /><text fill="#e1ed5e" style="font-size:6.75px; font-family:Arial;" text-anchor="middle"><textPath startOffset="22.20632615414155" xlink:href="#id121">January</textPath></text><path d="M 100.72285384407766 79.0124445844662 l 0.10048473007557697 -2.9175038054436255 a23.91923374119929,23.91923374119929 0 0,0 0.4113643118026929,0.017714212594039967 l -0.1506898742676014 2.9153418663253907" fill="#ff2003" stroke="none" /><path d="M 101.44485096284872 79.0497635885617 l 0.20092585553008444 -2.913410644255158 a23.920330936979532,23.920330936979532 0 0,0 0.41052961635175833,0.03186499934891253 l -0.251045661244184 2.909520382717781" fill="#ff2003" stroke="none" /><path d="M 101.80526077348638 79.07773832637324 l 0.2000829601243169 -2.3188827396223153 a23.327498732770955,23.327498732770955 0 0,0 0.399760982940878,0.03796212223882465 l -0.23996907015543903 2.315095072868312" fill="#ff1802" stroke="none" /><path d="M 102.16513564639614 79.11191278185805 l 0.3005671397756365 -2.89971330017643 a23.91524918810262,23.91524918810262 0 0,0 0.4091025620108796,0.0459674395709881 l -0.3504364052962413 2.894109907134841" fill="#ff2003" stroke="none" /><path d="M 103.59715602781102 79.31037775812273 l 0.29990615705721263 -1.7249585643641732 a22.750835729534366,22.750835729534366 0 0,0 0.3852527706861364,0.07040248136915286 l -0.3295540488462499 1.7195406016442818" fill="#ff1001" stroke="none" /><path d="M 103.95276090670814 79.375362276772 l 0.5470212428588138 -2.854236627802703 a23.906182886129045,23.906182886129045 0 0,0 0.40348353506029894,0.08093500135707243 l -0.5960711873862381 2.844397670368422" fill="#ff2003" stroke="none" /><path d="M 105.01212808612495 79.60689891045804 l 0.47045769680123617 -1.9141752174650053 a22.971141092777664,22.971141092777664 0 0,0 0.38317078769343693,0.09767876543653543 l -0.5033373731796982 1.905793455859602" fill="#ff1302" stroke="none" /><path d="M 105.36241919743992 79.69619591428918 l 0.4446043574951978 -1.6834118031177965 a22.741134208951173,22.741134208951173 0 0,0 0.3776134047670548,0.10321600795184024 l -0.4735156514859634 1.6755092543396626" fill="#ff1001" stroke="none" /><path d="M 106.0581310904928 79.89281104454417 l 0.5861648851979742 -1.945505623710433 a23.031891090715266,23.031891090715266 0 0,0 0.37861646184040954,0.11763797770431407 l -0.6195667197491019 1.9351275111235984" fill="#ff1402" stroke="none" /><path d="M 106.74666289553966 80.11325718540242 l 0.5615998870105053 -1.6553950731803448 a22.748063866510595,22.748063866510595 0 0,0 0.36972969382657406,0.12899143034324842 l -0.590011584900353 1.645482789664889" fill="#ff1001" stroke="none" /><path d="M 107.08798089147638 80.2323363322302 l 1.0849071665529206 -3.02569664161498 a24.21432165893802,24.21432165893802 0 0,0 0.391139327435223,0.1440599152549643 l -1.1368288197607201 3.0065734585536914" fill="#ff2503" stroke="none" /><path d="M 107.4271985657038 80.35727306442388 l 1.0296243629513349 -2.7230496167235687 a23.911206887859624,23.911206887859624 0 0,0 0.38373710792307675,0.14888403616048845 l -1.0763446358740787 2.7049228766725335" fill="#ff2003" stroke="none" /><path d="M 107.76421540070413 80.48803036053334 l 1.0755546659947355 -2.7029376318658995 a23.90907024344547,23.90907024344547 0 0,0 0.3810834035059761,0.15545348872450468 l -1.121921939089099 2.6840232569578157" fill="#ff2003" stroke="none" /><path d="M 109.08828744355905 81.06846463323043 l 1.289589253829206 -2.6863041820685285 a23.979810497697905,23.979810497697905 0 0,0 0.3705779770546594,0.18184100393823704 l -1.3356384978942972 2.6637080179954595" fill="#ff2103" stroke="none" /><path d="M 109.41281617654863 81.2277094730956 l 0.7851124380948011 -1.5657756943051162 a22.751586442436636,22.751586442436636 0 0,0 0.3485754442177068,0.1785538812720158 l -0.8119483699012635 1.5520292877206" fill="#ff1001" stroke="none" /><path d="M 109.73455568895987 81.39251694778311 l 1.4289134902192224 -2.7313505004129515 a24.08254267101634,24.08254267101634 0 0,0 0.3656589534688989,0.19532234937158816 l -1.4757174902164325 2.706349424539609" fill="#ff2303" stroke="none" /><path d="M 110.36928655335952 81.73862282372117 l 2.460512701097874 -4.333215236222338 a25.983059003834228,25.983059003834228 0 0,0 0.38702789318788183,0.2241915366563716 l -2.534737326751084 4.290219542175917" fill="#ff3e05" stroke="none" /><line stroke="#e1ed5e" stroke-width="0.3" x1="143.23703022742887" x2="145.7803849466894" y1="26.81831364943548" y2="22.513508569990506" /><path d="M 143.74570117128098 25.957352633546492 a86.0,86.0 0 0,1 28.547481713284135,27.462654790039103" fill="none" id="id122" stroke="none" /><text fill="#e1ed5e" style="font-size:6.75px; font-family:Arial;" text-anchor="middle"><textPath startOffset="19.985693538727396" xlink:href="#id122">February</textPath></text><path d="M 110.68208982089419 81.91981866633111 l 1.6284815642158896 -2.7563185175590807 a24.20144404530676,24.20144404530676 0 0,0 0.3568421489875355,0.21499340203093328 l -1.6756857794210627 2.727878506069533" fill="#ff2403" stroke="none" /><path d="M 110.99172775467656 82.1063720568725 l 3.0120269774903647 -4.903331968620196 a26.75456087878324,26.75456087878324 0 0,0 0.39033738285473785,0.24442923333401653 l -3.0959835127173663 4.850758393963235" fill="#ff4806" stroke="none" /><path d="M 111.2981086023043 82.29822771554956 l 1.5810328544487655 -2.4771476845229343 a23.938694529512,23.938694529512 0 0,0 0.3454387524818859,0.22468297361824935 l -1.6234386327149315 2.449565786745157" fill="#ff2103" stroke="none" /><path d="M 111.60114157652 82.49532879139004 l 2.023835148252771 -3.053714034685546 a24.66347896308124,24.66347896308124 0 0,0 0.3518601198543881,0.23757752359541345 l -2.076099962513701 3.0184245987914626" fill="#ff2b04" stroke="none" /><path d="M 112.48926042617603 83.11751280151076 l 1.4996893616827398 -2.0272206348788098 a23.521644638727437,23.521644638727437 0 0,0 0.3234269218743361,0.24359845221247353 l -1.534362437315459 2.001105593160489" fill="#ff1b02" stroke="none" /><path d="M 113.06298171725822 83.55741782278167 l 1.7498044353779616 -2.2025065827621804 a23.812978991954814,23.812978991954814 0 0,0 0.318749879271127,0.2577402348023191 l -1.7874577132135796 2.1720602506957314" fill="#ff1f03" stroke="none" /><path d="M 113.34407831869373 83.78471172551755 l 0.4266458127675789 -0.5184460612341781 a21.67142607036169,21.67142607036169 0 0,0 0.2860034475594493,0.2395196623122075 l -0.43550679728614555 0.5110252415281513" fill="#ff0000" stroke="none" /><path d="M 113.6212207817346 84.01681056812373 l 3.0670510950530177 -3.5988887806011514 a25.728509582818116,25.728509582818116 0 0,0 0.3346007389830372,0.2901624636356562 l -3.128545632682819 3.545561323545824" fill="#ff3a05" stroke="none" /><path d="M 113.89432698308785 84.25364557470407 l 6.809915743697985 -7.717635192923925 a31.29256262586357,31.29256262586357 0 0,0 0.400826453158175,0.35986594725213755 l -6.941753184452151 7.59927023690249" fill="#ff860c" stroke="none" /><path d="M 114.42810811169701 84.74124197986012 l 4.423998416980526 -4.678695280323065 a27.439095551361504,27.439095551361504 0 0,0 0.3403973414880773,0.32746197281507017 l -4.503879002081021 4.601850220745693" fill="#ff5207" stroke="none" /><path d="M 114.68862486808459 84.99185889309783 l 3.4423441466602656 -3.5172241891648883 a25.921442798701698,25.921442798701698 0 0,0 0.3161974120494257,0.3148395598748788 l -3.5023773588770135 3.4574487786398906" fill="#ff3d05" stroke="none" /><path d="M 115.19652480421416 85.50635884689758 l 2.3599568687293435 -2.250801971690073 a24.261212341756778,24.261212341756778 0 0,0 0.2856268809283707,0.3046868418160404 l -2.398351071628177 2.2098457129959774" fill="#ff2503" stroke="none" /><path d="M 115.68641384162765 86.03803664274999 l 2.882271405584934 -2.5654154070342137 a24.858606570525307,24.858606570525307 0 0,0 0.28174050590010413,0.3220781020148155 l -2.926003775062886 2.5154217488164505" fill="#ff2e04" stroke="none" /><path d="M 116.15771136456269 86.58626213691792 l 2.2265962904672203 -1.8484659301900201 a23.89388274396107,23.89388274396107 0 0,0 0.2599899160545037,0.3187168955291107 l -2.258084698598133 1.8098648650528084" fill="#ff2003" stroke="none" /><path d="M 117.04232023915458 87.72973835380427 l 1.4137013785096386 -1.0178476616140248 a22.7420004161461,22.7420004161461 0 0,0 0.22599849939354927,0.31965885010903144 l -1.4310124977070708 0.9933623111732003" fill="#ff1001" stroke="none" /><path d="M 117.45458315368197 88.32363383020206 l 2.438236776931638 -1.6310756415925163 a23.933497286342433,23.933497286342433 0 0,0 0.22611839948868154,0.3443938355129544 l -2.465951811778244 1.5888637421018879" fill="#ff2103" stroke="none" /><line stroke="#e1ed5e" stroke-width="0.3" x1="172.23445277983987" x2="176.4835382374775" y1="55.19839476539836" y2="52.563006222186495" /><path d="M 173.08426987136738 54.67131705675599 a86.0,86.0 0 0,1 12.851231095245387,41.99856678651699" fill="none" id="id123" stroke="none" /><text fill="#e1ed5e" style="font-size:6.75px; font-family:Arial;" text-anchor="middle"><textPath startOffset="22.20632615414155" xlink:href="#id123">March</textPath></text><path d="M 117.84615892207809 88.93136811851018 l 1.2454620384470043 -0.7724665507088602 a22.465564826671482,22.465564826671482 0 0,0 0.20099641492896464,0.3303852576943629 l -1.258574251662193 0.7509135198074158" fill="#ff0c01" stroke="none" /><path d="M 118.03404312379186 89.2402003453031 l 1.494925758160559 -0.8919298654239554 a22.740787726073204,22.740787726073204 0 0,0 0.19767194258659943,0.3378854261821279 l -1.5100573752174857 0.8660650268879322" fill="#ff1001" stroke="none" /><path d="M 118.21658344932153 89.55222093294921 l 5.260479854074937 -3.0170493525828253 a27.06425882454309,27.06425882454309 0 0,0 0.2282965068976975,0.4061140117622047 l -5.311634002265068 2.926051830885827" fill="#ff4d07" stroke="none" /><path d="M 118.73160827565052 90.50648371742162 l 2.5872130048481234 -1.3112461261509718 a23.90052366578885,23.90052366578885 0 0,0 0.18282761009900397,0.3685693056676023 l -2.6094006279005355 1.2665172319844196" fill="#ff2003" stroke="none" /><path d="M 119.04729006885535 91.15688171328212 l 3.152285014718163 -1.4635168130390184 a24.475454254635583,24.475454254635583 0 0,0 0.1741226741386737,0.3836562316294728 l -3.177010005820184 1.409038572567483" fill="#ff2803" stroke="none" /><path d="M 119.34039704204932 91.81776055985345 l 3.201378598392866 -1.3543903040697656 a24.476089473245196,24.476089473245196 0 0,0 0.16081759700670825,0.38943256708911606 l -3.224217882285772 1.2990831665273463" fill="#ff2803" stroke="none" /><path d="M 119.47837535516314 92.15188598940014 l 4.5675214834128575 -1.8403192614411987 a25.924330156018122,25.924330156018122 0 0,0 0.16320779341056854,0.41534603230488204 l -4.598522826705127 1.7614242242405322" fill="#ff3d05" stroke="none" /><path d="M 119.61058180528143 92.48833698450437 l 3.78752316923839 -1.4507778501012472 a25.055870822383525,25.055870822383525 0 0,0 0.15080700490691842,0.4040877966249101 l -3.8119347626469335 1.385366916447004" fill="#ff3104" stroke="none" /><path d="M 119.7369772167798 92.82701384747503 l 2.719941775895937 -0.9885052042107443 a23.893998238253726,23.893998238253726 0 0,0 0.13715942260749167,0.3877681577978648 l -2.7365542793132382 0.9415394199862649" fill="#ff2003" stroke="none" /><path d="M 119.85752413597 93.16781622104841 l 58.62538552715637 -20.1706620266865 a82.99831799978551,82.99831799978551 0 0,0 0.4531815121069817,1.354955039168263 l -58.963904333035124 19.158533884595922" fill="#4cdbff" stroke="none" /><path d="M 119.97218684219823 93.5106431181261 l 4.406295769012048 -1.4316922827797351 a25.633053549937074,25.633053549937074 0 0,0 0.13273590513483677,0.420809092634452 l -4.430287157915091 1.3556330237188638" fill="#ff3905" stroke="none" /><path d="M 120.08093135843002 93.85539295169968 l 2.770875972790991 -0.8478662532368046 a23.89769405561875,23.89769405561875 0 0,0 0.1169781915022064,0.3943923087714094 l -2.7850600614049 0.8000445577188654" fill="#ff2003" stroke="none" /><path d="M 120.37134235888165 94.90015583598534 l 4.493797912567574 -1.1249955282734294 a25.63247607847379,25.63247607847379 0 0,0 0.10346634378827407,0.42893479252917527 l -4.5124970566166684 1.047475504084848" fill="#ff3905" stroke="none" /><path d="M 120.45610955862082 95.25157060432595 l 4.582586452434973 -1.063745193415311 a25.704429022799125,25.704429022799125 0 0,0 0.09633727823819148,0.43186112849985814 l -4.600218117675203 0.984705895365489" fill="#ff3a05" stroke="none" /><path d="M 120.53481517161879 95.60439243477599 l 33.40610116009062 -7.150788052228547 a55.16286528507383,55.16286528507383 0 0,0 0.19076029125467792,0.9302149272963276 l -33.52424074726029 6.574697468768807" fill="#5fff29" stroke="none" /><path d="M 120.6074358757038 95.95851677861258 l 2.839105849076373 -0.5567989497574113 a23.893189778205127,23.893189778205127 0 0,0 0.0756780105515078,0.4042749584544614 l -2.84826958353774 0.5078459138403871" fill="#ff2003" stroke="none" /><path d="M 120.67395015179393 96.31383870115 l 3.4243362426860178 -0.610558487340809 a24.478341611952008,24.478341611952008 0 0,0 0.07039054681037357,0.41544899185521417 l -3.4343386510166143 0.551523707169757" fill="#ff2803" stroke="none" /><path d="M 120.78858239683441 97.02765380044208 l 2.9748498510459087 -0.42534327162001145 a24.005103747789796,24.005103747789796 0 0,0 0.05496483005835545,0.4095518271270413 l -2.9817306801621006 0.37407310242830577" fill="#ff2203" stroke="none" /><path d="M 120.83666639777658 97.38593545837742 l 4.030112206611993 -0.5055978349391287 a25.061703284162707,25.061703284162707 0 0,0 0.05001557798895502,0.42850292821062963 l -4.038218137604537 0.43615116840364626" fill="#ff3104" stroke="none" /><path d="M 120.87857604477298 97.74499172005257 l 2.9087273303210117 -0.31415955762104664 a23.925643674441755,23.925643674441755 0 0,0 0.04069965533113635,0.409839974921112 l -2.913704111334377 0.26404405199549963" fill="#ff2003" stroke="none" /><path d="M 120.91429891909075 98.10471618934814 l 44.62856341256555 -4.044304523699657 a65.81143906805272,65.81143906805272 0 0,0 0.09252936709838695,1.1290926468927773 l -44.69156726348343 3.275497959599111" fill="#37ff73" stroke="none" /><path d="M 120.94382443527127 98.46500227214037 l 4.033214761276177 -0.2955990924037116 a25.044032657386182,25.044032657386182 0 0,0 0.027810097163636336,0.43020989408109694 l -4.037705449444229 0.22613013406957946" fill="#ff3004" stroke="none" /><line stroke="#e1ed5e" stroke-width="0.3" x1="184.98032266829074" x2="189.97916517819016" y1="98.17113171792111" y2="98.06355123074" /><path d="M 185.9800911702706 98.14961562048488 a86.0,86.0 0 0,1 -9.607161424134198,41.387399972396054" fill="none" id="id124" stroke="none" /><text fill="#e1ed5e" style="font-size:6.75px; font-family:Arial;" text-anchor="middle"><textPath startOffset="21.466115282336823" xlink:href="#id124">April</textPath></text><path d="M 120.99513854157772 99.54816195383933 l 4.048119310516866 -0.08711989760234079 a25.04905665911676,25.04905665911676 0 0,0 0.005566846149335133,0.43115836914570616 l -4.049019163783917 0.01742527039617194" fill="#ff3004" stroke="none" /><path d="M 120.99980553446 99.90962569577887 l 2.9042503359268728 -0.012498668283507215 a23.904277230300202,23.904277230300202 0 0,0 -0.0017708547085547347,0.4114842690069047 l -2.904035183928815 -0.03749507892708219" fill="#ff2003" stroke="none" /><path d="M 120.99824983174949 100.27111621757518 l 3.4965292690359586 0.045144990542432054 a24.496820698777135,24.496820698777135 0 0,0 -0.00907308265770002,0.42159049910959867 l -3.495234123693251 -0.10532530544214556" fill="#ff2903" stroke="none" /><path d="M 120.9904718944345 100.63252640178507 l 57.79251930519258 1.7415184599018039 a78.8187527899663,78.8187527899663 0 0,0 -0.052537830018466944,1.3557679461768621 l -57.75397934232291 -2.736063653092672" fill="#47fffc" stroke="none" /><path d="M 120.9764740272857 100.99374915477107 l 6.929566138319759 0.328284462103973 a27.937337929883963,27.937337929883963 0 0,0 -0.026891216478628237,0.4801607347233474 l -6.922888570953601 -0.4475169131627437" fill="#ff5908" stroke="none" /><path d="M 120.95626037817324 101.35467743843564 l 6.627666124590029 0.42843282181288384 a27.641499299242962,27.641499299242962 0 0,0 -0.03478016834110941,0.4745477640420375 l -6.619309397584582 -0.5424537223516916" fill="#ff5507" stroke="none" /><path d="M 120.92983693683757 101.71520430193887 l 3.4688496365691717 0.2842729180059022 a24.480478256366165,24.480478256366165 0 0,0 -0.03803264221162976,0.41968703759637416 l -3.4634423980804665 -0.34394134415084693" fill="#ff2803" stroke="none" /><path d="M 120.89721153311464 102.0752229133903 l 2.8850048214834607 0.2864988996879636 a23.89919548142329,23.89919548142329 0 0,0 -0.04417675069358631,0.4090218457151383 l -2.8796457692888224 -0.3361170672878933" fill="#ff2003" stroke="none" /><path d="M 120.8583938346157 102.4346265915055 l 2.8791869072998924 0.33606350814959446 a23.898733504252665,23.898733504252665 0 0,0 -0.05120985421919783,0.40819292395202006 l -2.8729755438338467 -0.3855741863890095" fill="#ff2003" stroke="none" /><path d="M 120.64145759157962 103.86396538481128 l 2.479840216538569 0.46421221534649676 a23.522915075946663,23.522915075946663 0 0,0 -0.07792813230673191,0.3973538677399318 l -2.471482151256173 -0.5068298101543736" fill="#ff1b02" stroke="none" /><path d="M 120.5718875245553 104.21870165774334 l 2.845013169241123 0.5834302641919877 a23.904219483153874,23.904219483153874 0 0,0 -0.08613027360641591,0.40237196404465053 l -2.8345488569102644 -0.6323160476528072" fill="#ff2003" stroke="none" /><path d="M 120.32669344350535 105.2749913415812 l 7.538869195837091 1.9564160715012981 a28.788588613912662,28.788588613912662 0 0,0 -0.1286053751083979,0.47858844315219456 l -7.504075744386916 -2.085895447829041" fill="#ff6409" stroke="none" /><path d="M 120.23288151984713 105.62410040840565 l 47.13289978869116 13.101453724764548 a69.91991754074152,69.91991754074152 0 0,0 -0.3323105999467989,1.1568167934698426 l -46.900396551858265 -13.910827993738973" fill="#3cffa1" stroke="none" /><path d="M 120.13307415673323 105.97154293290107 l 2.7726453239294746 0.822376675348162 a23.892034835278558,23.892034835278558 0 0,0 -0.12033988742492006,0.3932777149239263 l -2.758078663998422 -0.8699813628241454" fill="#ff2003" stroke="none" /><path d="M 120.02730092923936 106.31721596034902 l 3.8895952916718213 1.2268959028809507 a25.078507703744307,25.078507703744307 0 0,0 -0.13340303064080883,0.41057231121250615 l -3.8679000100147656 -1.2936671140712521" fill="#ff3104" stroke="none" /><path d="M 119.67450827220406 107.3425965602758 l 0.626233245080069 0.23371247746768437 a21.668423218752608,21.668423218752608 0 0,0 -0.13342147973207577,0.3483213820255426 l -0.6221174857544864 -0.24445742632637077" fill="#ff0000" stroke="none" /><path d="M 119.54520255179757 107.68017299344265 l 5.416372504915249 2.1283318872973043 a26.819526418402823,26.819526418402823 0 0,0 -0.17253561457052477,0.4282192458212776 l -5.378934276087332 -2.221250500961395" fill="#ff4906" stroke="none" /><path d="M 119.41010516605496 108.01547362559984 l 40.64571168317124 16.784794683130038 a64.97502940063046,64.97502940063046 0 0,0 -0.4357937684799848,1.0300877372885653 l -40.35076693349895 -17.481956946084765" fill="#35ff6a" stroke="none" /><path d="M 119.26925614724726 108.34839909993367 l 3.714447298181606 1.6092831110826402 a25.048074957629176,25.048074957629176 0 0,0 -0.17481041406475714,0.39415133511449585 l -3.686195799385576 -1.6729827826898238" fill="#ff3004" stroke="none" /><path d="M 119.12269723197855 108.67885076344098 l 2.6371286638970983 1.1968628609400092 a23.896019388375223,23.896019388375223 0 0,0 -0.17321812892372557,0.3730964394935346 l -2.616135918133541 -1.2420793677123743" fill="#ff2003" stroke="none" /><path d="M 118.64920377521936 109.65438752849418 l 3.0902488085048083 1.5997712243573738 a24.479785290610224,24.479785290610224 0 0,0 -0.19694277733532164,0.3725415148949685 l -3.0622535229445935 -1.6527277543384766" fill="#ff2803" stroke="none" /><line stroke="#e1ed5e" stroke-width="0.3" x1="174.80103733775053" x2="179.2010983576182" y1="140.37084112569926" y2="142.7455964860345" /><path d="M 175.68104954172406 140.8457921977663 a86.0,86.0 0 0,1 -30.038265399797805,32.042727171017184" fill="none" id="id125" stroke="none" /><text fill="#e1ed5e" style="font-size:6.75px; font-family:Arial;" text-anchor="middle"><textPath startOffset="22.206326154141568" xlink:href="#id125">May</textPath></text><path d="M 118.48025628344425 109.97397251340804 l 55.44076885033275 29.921917540224147 a84.0,84.0 0 0,0 -0.6976943621939617,1.2665179264087798 l -54.91749807868728 -30.871805985030733" fill="#4dd2ff" stroke="none" /><path d="M 118.30583269289576 110.29060199501025 l 8.268258237830818 4.64799149784113 a30.48514202589822,30.48514202589822 0 0,0 -0.261080568589,0.45521597788153906 l -8.187025673089439 -4.789627321580984" fill="#ff7b0b" stroke="none" /><path d="M 118.12598468904814 110.60418214915192 l 3.0344525576519867 1.7752352876996382 a24.515588521333903,24.515588521333903 0 0,0 -0.21622646846019325,0.36240799846251226 l -3.003445213493566 -1.8272053800482546" fill="#ff2904" stroke="none" /><path d="M 117.75023020441432 111.22182372390056 l 2.0315022079787988 1.2843303669934025 a23.40343623019296,23.40343623019296 0 0,0 -0.21820376162557717,0.3386570837129209 l -2.0090935829761714 -1.3191090506277765" fill="#ff1902" stroke="none" /><path d="M 117.55443506779139 111.5257021239791 l 2.426214622151976 1.5929778950889621 a23.90242932161769,23.90242932161769 0 0,0 -0.22877686032308955,0.341990365330993 l -2.3984346564181656 -1.6345051746257622" fill="#ff2003" stroke="none" /><path d="M 117.35343817320211 111.8261652097733 l 2.396096396173355 1.6329116776090569 a23.899599711447593,23.899599711447593 0 0,0 -0.23460199065266088,0.3379616649784261 l -2.3676334983585576 -1.6739146047745026" fill="#ff2003" stroke="none" /><path d="M 117.14729908036423 112.12312394758627 l 2.3655587776956124 1.6724477792624715 a23.897058837009137,23.897058837009137 0 0,0 -0.24035912996026218,0.3338378091112169 l -2.3364198553597477 -1.7129191938248196" fill="#ff2003" stroke="none" /><path d="M 116.93607887273984 112.41649034213515 l 50.70563868843644 37.17425254083701 a83.87278303663827,83.87278303663827 0 0,0 -0.8636449696476205,1.1569935716868434 l -50.058232452093726 -38.04155899203317" fill="#4dd3ff" stroke="none" /><path d="M 116.71984013943494 112.70617746262583 l 24.762355999103324 18.818056099426173 a52.10134257532107,52.10134257532107 0 0,0 -0.5487838948308108,0.7093771608823043 l -24.434765287054447 -19.24151125442173" fill="#7fff26" stroke="none" /><path d="M 116.498646956653 112.99209946851258 l 2.2759377483393037 1.7922202765023183 a23.89688559557015,23.89688559557015 0 0,0 -0.257269418611085,0.32098315669881794 l -2.244750417673365 -1.8311312667793864" fill="#ff2003" stroke="none" /><path d="M 116.27256486870786 113.27417163493432 l 2.246271827305598 1.8323723404975276 a23.898848998545322,23.898848998545322 0 0,0 -0.26277808722401425,0.3165331341372963 l -2.21439774018804 -1.8707667317485945" fill="#ff2003" stroke="none" /><path d="M 116.0416608686014 113.55231037782055 l 2.214882976450556 1.8711766688797964 a23.899484217154935,23.899484217154935 0 0,0 -0.2681948796746435,0.31197123534046617 l -2.182345587205134 -1.9090250033817906" fill="#ff2003" stroke="none" /><path d="M 115.56566222782051 114.09645910891815 l 17.031751932255673 15.424168349045349 a43.97793600699565,43.97793600699565 0 0,0 -0.5129787330403742,0.5567371001850947 l -16.763726791219575 -15.71505670403178" fill="#daff1c" stroke="none" /><path d="M 115.32070863581623 114.36230785411682 l 38.95517071586563 36.518294788466285 a74.39561011693338,74.39561011693338 0 0,0 -0.8838674919209385,0.9267315316234385 l -38.32079667256572 -37.18343343667223" fill="#41ffd0" stroke="none" /><path d="M 115.07121518719521 114.62390073753431 l 2.076458398288598 2.0148290051615367 a23.893305272497784,23.893305272497784 0 0,0 -0.2889489939219435,0.2927038053129505 l -2.041468779311119 -2.050273304455152" fill="#ff2003" stroke="none" /><path d="M 114.81725581225074 114.88116024355365 l 2.448026779430201 2.4585847235688485 a24.469506298563747,24.469506298563747 0 0,0 -0.30103324369403556,0.2946243880536819 l -2.4053435833603714 -2.500359214545102" fill="#ff2803" stroke="none" /><path d="M 114.0293411484842 115.62618273729858 l 13.639219648101909 15.191656996552618 a41.416041607277236,41.416041607277236 0 0,0 -0.5345778471424492,0.47170279580270164 l -13.375699448052872 -15.424182934127609" fill="#f8ff18" stroke="none" /><path d="M 113.75828350139079 115.86535959552629 l 13.450760933548056 15.51074005871623 a41.53061194559302,41.53061194559302 0 0,0 -0.5441192916721107,0.4637102647789092 l -13.181776165298897 -15.739974713718087" fill="#f7ff19" stroke="none" /><path d="M 112.92097659922987 116.55440617244103 l 12.484218566143696 15.994830058108 a41.290152828281066,41.290152828281066 0 0,0 -0.5640456496450931,0.4324861520074821 l -12.20704418800511 -16.207355551942854" fill="#f9ff18" stroke="none" /><line stroke="#e1ed5e" stroke-width="0.3" x1="143.8653032363475" x2="146.44561519142675" y1="172.8068346515853" y2="177.08958963109032" /><path d="M 144.38136562736335 173.6633856474863 a86.0,86.0 0 0,1 -40.68145358897372,12.25698825130547" fill="none" id="id126" stroke="none" /><text fill="#e1ed5e" style="font-size:6.75px; font-family:Arial;" text-anchor="middle"><textPath startOffset="21.466115282336833" xlink:href="#id126">June</textPath></text><line stroke="#e1ed5e" stroke-width="0.3" x1="102.19456741930631" x2="102.32365962044197" y1="184.97166512339345" y2="189.96999836594603" /><path d="M 102.22038585953345 185.97133177190398 a86.0,86.0 0 0,1 -42.740103519485714,-10.115201625700543" fill="none" id="id127" stroke="none" /><text fill="#e1ed5e" style="font-size:6.75px; font-family:Arial;" text-anchor="middle"><textPath startOffset="22.20632615414155" xlink:href="#id127">July</textPath></text><line stroke="#e1ed5e" stroke-width="0.3" x1="58.666819895761336" x2="56.23545636021788" y1="174.27360380694188" y2="178.64263932499728" /><path d="M 58.180547188652646 175.14741091055294 a86.0,86.0 0 0,1 -31.652253787137756,-30.449443065178592" fill="none" id="id128" stroke="none" /><text fill="#e1ed5e" style="font-size:6.75px; font-family:Arial;" text-anchor="middle"><textPath startOffset="22.20632615414155" xlink:href="#id128">August</textPath></text><line stroke="#e1ed5e" stroke-width="0.3" x1="26.63291911575756" x2="22.317208475507996" y1="142.92168965132927" y2="145.44649492493687" /><path d="M 25.769776987707644 143.4266507060508 a86.0,86.0 0 0,1 -11.730757126820373,-40.83630448921669" fill="none" id="id129" stroke="none" /><text fill="#e1ed5e" style="font-size:6.75px; font-family:Arial;" text-anchor="middle"><textPath startOffset="21.46611528233685" xlink:href="#id129">September</textPath></text><line stroke="#e1ed5e" stroke-width="0.3" x1="15.007084014347285" x2="10.007500721073583" y1="101.09737516637583" y2="101.16192664675087" /><path d="M 14.007167355692545 101.11028546245083 a86.0,86.0 0 0,1 10.666146001902534,-42.60595125391555" fill="none" id="id130" stroke="none" /><text fill="#e1ed5e" style="font-size:6.75px; font-family:Arial;" text-anchor="middle"><textPath startOffset="22.20632615414155" xlink:href="#id130">October</textPath></text><line stroke="#e1ed5e" stroke-width="0.3" x1="26.266209847984243" x2="21.928928074336255" y1="57.711370442889674" y2="55.22380399835377" /><path d="M 25.398753493254645 57.213857153982495 a86.0,86.0 0 0,1 29.58750427330803,-30.492523968695096" fill="none" id="id131" stroke="none" /><text fill="#e1ed5e" style="font-size:6.75px; font-family:Arial;" text-anchor="middle"><textPath startOffset="21.46611528233685" xlink:href="#id131">November</textPath></text><line stroke="#e1ed5e" stroke-width="0.3" x1="56.762969772571076" x2="54.21961505331055" y1="26.818313649435495" y2="22.513508569990535" /><path d="M 56.25429882871897 25.957352633546506 a86.0,86.0 0 0,1 42.265352541879196,-11.944610805530505" fill="none" id="id132" stroke="none" /><text fill="#e1ed5e" style="font-size:6.75px; font-family:Arial;" text-anchor="middle"><textPath startOffset="22.20632615414155" xlink:href="#id132">December</textPath></text></svg>