<?xml version="1.0" encoding="utf-8" ?>
<svg baseProfile="full" height="200mm" version="1.1" viewBox="0,0,200,200" width="200mm" xmlns="http://www.w3.org/2000/svg" xmlns:ev="http://www.w3.org/2001/xml-events" xmlns:xlink="http://www.w3.org/1999/xlink"><defs /><rect fill="#1a1a1a" height="200" width="200" x="0" y="0" /><text alignment-baseline="middle" fill="#e1ed5e" style="dominant-baseline: central; font-size:9.0px; font-family:Arial;" text-anchor="middle" x="100.0" y="100.0">2026</text><line stroke="#e1ed5e" stroke-width="0.3" x1="100.0" x2="100.0" y1="15.0" y2="10.0" /><path d="M 100.0 14.0 a86.0,86.0 0 0,1 42.46469731375804,11.215312516191453" fill="none" id="id121" stroke="none" /><text fill="#e1ed5e" style="font-size:6.75px; font-family:Arial;" text-anchor="middle"><textPath startOffset="22.20632615414155" xlink:href="#id121">January</textPath></text><path d="M 100.72285384407766 79.0124445844662 l 0.09221726875463011 -2.67746385263608 a23.679051456547523,23.679051456547523 0 0,0 0.40723364351699476,0.017536337328566253 l -0.13829174466095642 2.675479788783319" fill="#ff1e03" stroke="none" /><path d="M 101.44485096284872 79.0497635885617 l 0.18439452049317137 -2.673707459549398 a23.68005837966974,23.68005837966974 0 0,0 0.4064059693574037,0.03154492497776736 l -0.23039067921291626 2.670137272383166" fill="#ff1e03" stroke="none" /><path d="M 101.80526077348638 79.07773832637324 l 0.18362097497926855 -2.128094812509215 a23.136001917948803,23.136001917948803 0 0,0 0.39647932142198533,0.03765048893531871 l -0.2202254234914981 2.124618779058718" fill="#ff1602" stroke="none" /><path d="M 102.16513564639614 79.11191278185805 l 0.27583773859623634 -2.661137075380755 a23.675394735735257,23.675394735735257 0 0,0 0.40499952841079395,0.04550641593881477 l -0.32160397051675554 2.6559947059713394" fill="#ff1e03" stroke="none" /><path d="M 103.59715602781102 79.31037775812273 l 0.27523113875821886 -1.5830362225278494 a22.606784323292143,22.606784323292143 0 0,0 0.3828134667398639,0.06995671416461001 l -0.3024397266009836 1.5780640270125008" fill="#ff0e01" stroke="none" /><path d="M 103.95276090670814 79.375362276772 l 0.5020146337584058 -2.619402032502099 a23.6670743709885,23.6670743709885 0 0,0 0.39944791174847766,0.08012549328589408 l -0.5470289549740087 2.610372583138996" fill="#ff1e03" stroke="none" /><path d="M 105.01212808612495 79.60689891045804 l 0.4317504145254065 -1.7566849245617542 a22.80896388704291,22.80896388704291 0 0,0 0.3804655860921615,0.09698914931454408 l -0.46192488930259307 1.7489927790783422" fill="#ff1101" stroke="none" /><path d="M 105.36241919743992 79.69619591428918 l 0.4080241793332887 -1.544907754203758 a22.597881003053576,22.597881003053576 0 0,0 0.37523470499219946,0.1025658194474677 l -0.434556773549199 1.5376553939299966" fill="#ff0e01" stroke="none" /><path d="M 106.0581310904928 79.89281104454417 l 0.5379377017002764 -1.7854375966419116 a22.864715630441548,22.864715630441548 0 0,0 0.37586829925896637,0.11678411021288972 l -0.568591373669961 1.7759133515465013" fill="#ff1202" stroke="none" /><path d="M 106.74666289553966 80.11325718540242 l 0.5153938083335232 -1.5191961230701059 a22.604240517509695,22.604240517509695 0 0,0 0.3673920987194361,0.12817588931025115 l -0.541467911116233 1.5100993805876473" fill="#ff0e01" stroke="none" /><path d="M 107.08798089147638 80.2323363322302 l 0.9956455640233807 -2.77675503690891 a23.94986078047057,23.94986078047057 0 0,0 0.38686743200103874,0.14248654011454565 l -1.0432953217969958 2.7592052289880393" fill="#ff2203" stroke="none" /><path d="M 107.4271985657038 80.35727306442388 l 0.9449111971857272 -2.4990085374038666 a23.671685018969185,23.671685018969185 0 0,0 0.37989316020084724,0.14739264416357434 l -0.9877875223862415 2.4823731893497456" fill="#ff1e03" stroke="none" /><path d="M 107.76421540070413 80.48803036053334 l 0.9870625479088588 -2.480551282143153 a23.66972416867855,23.66972416867855 0 0,0 0.377268499126205,0.15389729344145162 l -1.0296149166234514 2.463193102518122" fill="#ff1e03" stroke="none" /><path d="M 109.08828744355905 81.06846463323043 l 1.183487269299589 -2.46528636269592 a23.73464421208476,23.73464421208476 0 0,0 0.366789238766955,0.1799818865147702 l -1.2257477750769759 2.444549316046318" fill="#ff1f03" stroke="none" /><path d="M 109.41281617654863 81.2277094730956 l 0.7205166859873798 -1.436950250078813 a22.607473270691553,22.607473270691553 0 0,0 0.3463674965220258,0.17742288470513423 l -0.7451446700981612 1.4243348400611782" fill="#ff0e01" stroke="none" /><path d="M 109.73455568895987 81.39251694778311 l 1.3113484930054036 -2.506626459266313 a23.828924013896717,23.828924013896717 0 0,0 0.3618081170348308,0.1932653659114201 l -1.3543016565685455 2.4836823668531385" fill="#ff2003" stroke="none" /><path d="M 110.36928655335952 81.73862282372117 l 2.2580720559299423 -3.976696496172369 a25.573073849441016,25.573073849441016 0 0,0 0.38092100290526737,0.22065403163218833 l -2.3261897913005383 3.937238307150131" fill="#ff3905" stroke="none" /><line stroke="#e1ed5e" stroke-width="0.3" x1="143.23703022742887" x2="145.7803849466894" y1="26.81831364943548" y2="22.513508569990506" /><path d="M 143.74570117128098 25.957352633546492 a86.0,86.0 0 0,1 28.547481713284135,27.462654790039103" fill="none" id="id122" stroke="none" /><text fill="#e1ed5e" style="font-size:6.75px; font-family:Arial;" text-anchor="middle"><textPath startOffset="19.985693538727396" xlink:href="#id122">February</textPath></text><path d="M 110.68208982089419 81.91981866633111 l 1.494496944523885 -2.5295402128854243 a23.93804268277295,23.93804268277295 0 0,0 0.3529583845279913,0.21265347739979504 l -1.5378173952695136 2.5034401260270145" fill="#ff2103" stroke="none" /><path d="M 110.99172775467656 82.1063720568725 l 2.7642100553040714 -4.4999064196453435 a26.281099792222214,26.281099792222214 0 0,0 0.38342979194905613,0.24010370054258223 l -2.8412589996253907 4.451658377779817" fill="#ff4206" stroke="none" /><path d="M 111.2981086023043 82.29822771554956 l 1.450952115201418 -2.273338382824428 a23.696911092978457,23.696911092978457 0 0,0 0.34194978324908315,0.22241365097724136 l -1.4898689242347811 2.2480258076876587" fill="#ff1e03" stroke="none" /><path d="M 111.60114157652 82.49532879139004 l 1.8573224970711646 -2.8024672766158707 a24.36206330913465,24.36206330913465 0 0,0 0.34755999057082715,0.2346740571077896 l -1.9052871820485335 2.770081307209411" fill="#ff2703" stroke="none" /><path d="M 112.48926042617603 83.11751280151076 l 1.3763012231882417 -1.8604294400845325 a23.314174314627724,23.314174314627724 0 0,0 0.3205741669188701,0.24144981632382911 l -1.4081215438654946 1.836463034254856" fill="#ff1902" stroke="none" /><path d="M 113.06298171725822 83.55741782278167 l 1.6058378796850918 -2.021293596784892 a23.581538901553706,23.581538901553706 0 0,0 0.31565192580219,0.25523523854532815 l -1.640393204051773 1.9933522609754342" fill="#ff1c02" stroke="none" /><path d="M 113.34407831869373 83.78471172551755 l 0.39154318819818446 -0.4757904979955939 a21.616183954844082,21.616183954844082 0 0,0 0.2852744029900141,0.23890910845150495 l -0.39967512814731593 0.46898023215026957" fill="#ff0000" stroke="none" /><path d="M 113.6212207817346 84.01681056812373 l 2.8147070197029915 -3.3027873354399704 a25.339467685086266,25.339467685086266 0 0,0 0.32954122684699916,0.28577490456854443 l -2.8711420451967546 3.2538474374517548" fill="#ff3505" stroke="none" /><path d="M 113.89432698308785 84.25364557470407 l 6.249624493797779 -7.082660601275155 a30.44573382571902,30.44573382571902 0 0,0 0.3899794225569295,0.3501273760789178 l -6.370614903950699 6.97403421642694" fill="#ff7b0b" stroke="none" /><path d="M 114.42810811169701 84.74124197986012 l 4.060010418318366 -4.293751894064529 a26.90931382857912,26.90931382857912 0 0,0 0.33382510263033005,0.32113948424109534 l -4.133318764561115 4.223229323061132" fill="#ff4b07" stroke="none" /><path d="M 114.68862486808459 84.99185889309783 l 3.159122536128034 -3.227841763405784 a25.516527166735365,25.516527166735365 0 0,0 0.31125813162740673,0.3099214902926901 l -3.214216467922763 3.1729844224629753" fill="#ff3805" stroke="none" /><path d="M 115.19652480421416 85.50635884689758 l 2.165789534880231 -2.0656154440648047 a23.992893494956974,23.992893494956974 0 0,0 0.28246796725884155,0.30131713296227275 l -2.2010248241095356 2.028028894224477" fill="#ff2203" stroke="none" /><path d="M 115.68641384162765 86.03803664274999 l 2.6451302265797043 -2.3543438080572914 a24.54113663702819,24.54113663702819 0 0,0 0.27814239031716537,0.31796483390634644 l -2.685264480474718 2.3084634179479973" fill="#ff2a04" stroke="none" /><path d="M 116.15771136456269 86.58626213691792 l 2.043401304572787 -1.696381921311857 a23.65578623282889,23.65578623282889 0 0,0 0.25739918215807284,0.31554096210391047 l -2.0722989788072685 1.6609567895998456" fill="#ff1d03" stroke="none" /><path d="M 117.04232023915458 87.72973835380427 l 1.2973879699210191 -0.9341034333449033 a22.59867594236059,22.59867594236059 0 0,0 0.22457421325296426,0.31764429837020414 l -1.3132748029778663 0.911632634642906" fill="#ff0e01" stroke="none" /><path d="M 117.45458315368197 88.32363383020206 l 2.2376289011933914 -1.496877592115123 a23.692141457136366,23.692141457136366 0 0,0 0.22383812288913574,0.3409208178110609 l -2.2630636594404523 1.458138710326388" fill="#ff1e03" stroke="none" /><line stroke="#e1ed5e" stroke-width="0.3" x1="172.23445277983987" x2="176.4835382374775" y1="55.19839476539836" y2="52.563006222186495" /><path d="M 173.08426987136738 54.67131705675599 a86.0,86.0 0 0,1 12.851231095245387,41.99856678651699" fill="none" id="id123" stroke="none" /><text fill="#e1ed5e" style="font-size:6.75px; font-family:Arial;" text-anchor="middle"><textPath startOffset="22.20632615414155" xlink:href="#id123">March</textPath></text><path d="M 117.84615892207809 88.93136811851018 l 1.1429906557620573 -0.7089112490734046 a22.344984311515265,22.344984311515265 0 0,0 0.1999175971274236,0.3286119648846709 l -1.1550240511757048 0.6891315109816523" fill="#ff0b01" stroke="none" /><path d="M 118.03404312379186 89.2402003453031 l 1.371929548945648 -0.818545624277627 a22.59756302733077,22.59756302733077 0 0,0 0.196426976723155,0.3357573759598874 l -1.3858162001391303 0.7948088359638442" fill="#ff0e01" stroke="none" /><path d="M 118.21658344932153 89.55222093294921 l 4.8276696779369885 -2.7688192104795846 a26.565317092456908,26.565317092456908 0 0,0 0.2240877585510601,0.3986271180782975 l -4.874615077780481 2.685308582466493" fill="#ff4606" stroke="none" /><path d="M 118.73160827565052 90.50648371742162 l 2.3743479911237007 -1.2033623051759732 a23.661880767516003,23.661880767516003 0 0,0 0.1810021057138939,0.3648892002210079 l -2.394710109791003 1.1623135164560154" fill="#ff1d03" stroke="none" /><path d="M 119.04729006885535 91.15688171328212 l 2.8929282506388727 -1.3431047998380572 a24.189508483558637,24.189508483558637 0 0,0 0.17208840577329154,0.37917399093884346 l -2.915618973375511 1.293108800057151" fill="#ff2503" stroke="none" /><path d="M 119.34039704204932 91.81776055985345 l 2.9379826205561033 -1.2429567614415444 a24.19009143905045,24.19009143905045 0 0,0 0.1589384767061342,0.38488212823079077 l -2.958942784148435 1.1922000627574505" fill="#ff2503" stroke="none" /><path d="M 119.47837535516314 92.15188598940014 l 4.19172500997547 -1.6889055262327228 a25.519176964425412,25.519176964425412 0 0,0 0.1606571331622556,0.4088548801867384 l -4.220175693019426 1.6165016411502" fill="#ff3805" stroke="none" /><path d="M 119.61058180528143 92.48833698450437 l 3.4759016792834805 -1.3314139452375207 a24.722170815212362,24.722170815212362 0 0,0 0.14879852158675605,0.39870605988195684 l -3.4983047893718617 1.2713847483262306" fill="#ff2d04" stroke="none" /><path d="M 119.7369772167798 92.82701384747503 l 2.4961563966593685 -0.9071751500301702 a23.65589222473649,23.65589222473649 0 0,0 0.13579261563748402,0.3839040104374471 l -2.511402093106662 0.8640735131661086" fill="#ff1d03" stroke="none" /><path d="M 119.85752413597 93.16781622104841 l 53.80193516900922 -18.511104718843832 a77.89735693195487,77.89735693195487 0 0,0 0.4253296073259197,1.2716813889302412 l -54.11260207010691 17.582250226991277" fill="#45fff3" stroke="none" /><path d="M 119.97218684219823 93.5106431181261 l 4.043764269832426 -1.3138986581914323 a25.251865373453235,25.251865373453235 0 0,0 0.13076199447555037,0.41455125642478435 l -4.065781748076182 1.2440972353402286" fill="#ff3404" stroke="none" /><path d="M 120.08093135843002 93.85539295169968 l 2.542899941876041 -0.7781073809315385 a23.659283965779757,23.659283965779757 0 0,0 0.11581118429722936,0.3904577406265849 l -2.5559170232849726 0.7342202535584238" fill="#ff1d03" stroke="none" /><path d="M 120.37134235888165 94.90015583598534 l 4.1240671047288 -1.032435623805921 a25.25133541391522,25.25133541391522 0 0,0 0.10192785679582834,0.42255677070341197 l -4.141227761785448 0.9612936214431028" fill="#ff3404" stroke="none" /><path d="M 120.45610955862082 95.25157060432595 l 4.205550496654369 -0.9762247091060066 a25.317368372351254,25.317368372351254 0 0,0 0.09488661891624435,0.42535810720527717 l -4.22173150257265 0.9036884323507656" fill="#ff3505" stroke="none" /><path d="M 120.53481517161879 95.60439243477599 l 30.65758753999171 -6.562451261239275 a52.352088292941446,52.352088292941446 0 0,0 0.1810402624835074,0.8828166150101439 l -30.766007098390215 6.03375899006572" fill="#7cff26" stroke="none" /><path d="M 120.6074358757038 95.95851677861258 l 2.6055161506648954 -0.5109878720225063 a23.65515028138328,23.65515028138328 0 0,0 0.07492405698903319,0.40024730837586214 l -2.6139259315637875 0.46606248618408136" fill="#ff1d03" stroke="none" /><path d="M 120.67395015179393 96.31383870115 l 3.1425962468176905 -0.5603243007686861 a24.192158281248684,24.192158281248684 0 0,0 0.06956759068632043,0.41059185822617733 l -3.151775699024234 0.5061466542266709" fill="#ff2503" stroke="none" /><path d="M 120.78858239683441 97.02765380044208 l 2.730091706593033 -0.3903478146625359 a23.757856439849593,23.757856439849593 0 0,0 0.05439870435416763,0.4053335330599525 l -2.7364064100050363 0.343295939537919" fill="#ff1f03" stroke="none" /><path d="M 120.83666639777658 97.38593545837742 l 3.6985315101003886 -0.4639993697676561 a24.72752340654626,24.72752340654626 0 0,0 0.04934865605065935,0.4227891483256764 l -3.705970519154637 0.40026648311712704" fill="#ff2d04" stroke="none" /><path d="M 120.87857604477298 97.74499172005257 l 2.6694094690049384 -0.2883118294211073 a23.684934007419432,23.684934007419432 0 0,0 0.040290186703416775,0.4057166817199731 l -2.6739767813905835 0.24231961699669918" fill="#ff1e03" stroke="none" /><path d="M 120.91429891909075 98.10471618934814 l 40.956712758786594 -3.7115561429788335 a62.124542173843544,62.124542173843544 0 0,0 0.08734567500763325,1.065838473574993 l -41.01453291761372 3.0060037521960714" fill="#32ff49" stroke="none" /><path d="M 120.94382443527127 98.46500227214037 l 3.70137879960475 -0.2712784412847147 a24.71130664468316,24.71130664468316 0 0,0 0.027440622212508155,0.4244942801206281 l -3.7055000128216737 0.2075250969110513" fill="#ff2c04" stroke="none" /><line stroke="#e1ed5e" stroke-width="0.3" x1="184.98032266829074" x2="189.97916517819016" y1="98.17113171792111" y2="98.06355123074" /><path d="M 185.9800911702706 98.14961562048488 a86.0,86.0 0 0,1 -9.607161424134198,41.387399972396054" fill="none" id="id124" stroke="none" /><text fill="#e1ed5e" style="font-size:6.75px; font-family:Arial;" text-anchor="middle"><textPath startOffset="21.466115282336823" xlink:href="#id124">April</textPath></text><path d="M 120.99513854157772 99.54816195383933 l 3.7150570651677053 -0.07995203853389853 a24.715917292663846,24.715917292663846 0 0,0 0.005492810003999681,0.4254241880987805 l -3.7158828822894203 0.015991592374655257" fill="#ff2c04" stroke="none" /><path d="M 120.99980553446 99.90962569577887 l 2.665300822895756 -0.011470330380628613 a23.665325504513067,23.665325504513067 0 0,0 -0.0017531529062935452,0.4073709935764799 l -2.6651033726999596 -0.03441014139953595" fill="#ff1e03" stroke="none" /><path d="M 120.99824983174949 100.27111621757518 l 3.2088495343382464 0.04143065043460325 a24.209116986465002,24.209116986465002 0 0,0 -0.008966523541526,0.41663911569699885 l -3.207660948111713 -0.09665958192171696" fill="#ff2503" stroke="none" /><path d="M 120.9904718944345 100.63252640178507 l 53.037593679812595 1.5982336394507364 a74.06166878370081,74.06166878370081 0 0,0 -0.04936692383106835,1.2739409470850118 l -53.002224623130324 -2.5109518335497545" fill="#41ffcd" stroke="none" /><path d="M 120.9764740272857 100.99374915477107 l 6.359430556760131 0.30127459612064295 a27.36656291797404,27.36656291797404 0 0,0 -0.02634181429706093,0.47035078970395333 l -6.35330239157554 -0.4106971021600196" fill="#ff5107" stroke="none" /><path d="M 120.95626037817324 101.35467743843564 l 6.082369607477569 0.3931831696488379 a27.09506464665158,27.09506464665158 0 0,0 -0.034092611960798866,0.4651666034987876 l -6.074700436852432 -0.49782290964439574" fill="#ff4e07" stroke="none" /><path d="M 120.92983693683757 101.71520430193887 l 3.1834472657119663 0.26088413692007134 a24.194119131539324,24.194119131539324 0 0,0 -0.03758775735176218,0.41477777023939294 l -3.178484912083129 -0.3156432957080348" fill="#ff2503" stroke="none" /><path d="M 120.89721153311464 102.0752229133903 l 2.6476387485048107 0.2629269741836353 a23.660661860578582,23.660661860578582 0 0,0 -0.043735830399500006,0.40493947139677033 l -2.6427206166042585 -0.308462767465197" fill="#ff1d03" stroke="none" /><path d="M 120.8583938346157 102.4346265915055 l 2.642299507851489 0.3084136149477243 a23.660237892948174,23.660237892948174 0 0,0 -0.050698809335390574,0.40411939340652986 l -2.63659918926925 -0.35385076264164905" fill="#ff1d03" stroke="none" /><path d="M 120.64145759157962 103.86396538481128 l 2.275809384620716 0.426018785039209 a23.315340225611347,23.315340225611347 0 0,0 -0.0772404658186179,0.3938474711321995 l -2.268138985826434 -0.4651299832393534" fill="#ff1902" stroke="none" /><path d="M 120.5718875245553 104.21870165774334 l 2.6109374413509783 0.5354280738188911 a23.665272508559266,23.665272508559266 0 0,0 -0.08526931396229272,0.398349847215531 l -2.6013340886642426 -0.5802917404505912" fill="#ff1e03" stroke="none" /><path d="M 120.32669344350535 105.2749913415812 l 6.918602719195489 1.7954503786378113 a28.1477762729544,28.1477762729544 0 0,0 -0.12574271613653012,0.46793542418259787 l -6.886671926717182 -1.9142767359959576" fill="#ff5c08" stroke="none" /><path d="M 120.23288151984713 105.62410040840565 l 43.25500286192441 12.023521168880698 a65.89499230296862,65.89499230296862 0 0,0 -0.3131812106747654,1.0902248798737884 l -43.04162901436355 -12.766303524259069" fill="#37ff75" stroke="none" /><path d="M 120.13307415673323 105.97154293290107 l 2.544523718238237 0.7547149783960363 a23.654090362307258,23.654090362307258 0 0,0 -0.11914140385965809,0.38936100128885515 l -2.531155541872446 -0.7984029522369486" fill="#ff1d03" stroke="none" /><path d="M 120.02730092923936 106.31721596034902 l 3.569575736423501 1.1259520638094087 a24.74294522910235,24.74294522910235 0 0,0 -0.13161803403672928,0.40507865655021674 l -3.5496654513705246 -1.1872296203374206" fill="#ff2d04" stroke="none" /><path d="M 119.67450827220406 107.3425965602758 l 0.5747094053116141 0.214483596957845 a21.613428165246432,21.613428165246432 0 0,0 -0.13308285235053244,0.3474373327872361 l -0.5709322733675748 -0.22434449657822497" fill="#ff0000" stroke="none" /><path d="M 119.54520255179757 107.68017299344265 l 4.970736136578021 1.9532216835565575 a26.340720240248324,26.340720240248324 0 0,0 -0.16945535443023513,0.42057429276337427 l -4.936378167890394 -2.038495344162745" fill="#ff4306" stroke="none" /><path d="M 119.41010516605496 108.01547362559984 l 37.301553332442396 15.403812311794201 a61.35694877899005,61.35694877899005 0 0,0 -0.411526953931167,0.972728155996294 l -37.030875397318916 -16.043614993456657" fill="#31ff40" stroke="none" /><path d="M 119.26925614724726 108.34839909993367 l 3.40883818380856 1.4768780594362674 a24.71501636144923,24.71501636144923 0 0,0 -0.1724859994658496,0.38891039382149234 l -3.3829110996114373 -1.5353367897504473" fill="#ff2c04" stroke="none" /><path d="M 119.12269723197855 108.67885076344098 l 2.42015679950804 1.0983900143507124 a23.657747083119528,23.657747083119528 0 0,0 -0.17149093402067772,0.36937621533084153 l -2.400891248647531 -1.1398862969603847" fill="#ff1d03" stroke="none" /><path d="M 118.64920377521936 109.65438752849418 l 2.835996122776341 1.4681487707786984 a24.19348318009371,24.19348318009371 0 0,0 -0.19463944288476523,0.3681844741487672 l -2.8103041716666826 -1.5167482600136" fill="#ff2503" stroke="none" /><line stroke="#e1ed5e" stroke-width="0.3" x1="174.80103733775053" x2="179.2010983576182" y1="140.37084112569926" y2="142.7455964860345" /><path d="M 175.68104954172406 140.8457921977663 a86.0,86.0 0 0,1 -30.038265399797805,32.042727171017184" fill="none" id="id125" stroke="none" /><text fill="#e1ed5e" style="font-size:6.75px; font-family:Arial;" text-anchor="middle"><textPath startOffset="22.206326154141568" xlink:href="#id125">May</textPath></text><path d="M 118.48025628344425 109.97397251340804 l 50.879335369554724 27.460067906689737 a78.81662474658681,78.81662474658681 0 0,0 -0.6546418420577466,1.1883650969117387 l -50.399117118045474 -28.33180352199928" fill="#47fffc" stroke="none" /><path d="M 118.30583269289576 110.29060199501025 l 7.58798069594507 4.265574289777882 a29.70474439967361,29.70474439967361 0 0,0 -0.254397094527861,0.44356277750423817 l -7.513431605264829 -4.395556913140435" fill="#ff710a" stroke="none" /><path d="M 118.12598468904814 110.60418214915192 l 2.784790552969612 1.6291763883464936 a24.226340671450323,24.226340671450323 0 0,0 -0.213675314485831,0.3581321176593787 l -2.756334362785554 -1.6768705998919764" fill="#ff2603" stroke="none" /><path d="M 117.75023020441432 111.22182372390056 l 1.8643587433424234 1.1786610615730733 a23.205691597197102,23.205691597197102 0 0,0 -0.2163600741287258,0.33579563977487803 l -1.8437938058366472 -1.2105783012694042" fill="#ff1702" stroke="none" /><path d="M 117.55443506779139 111.5257021239791 l 2.226595878787981 1.4619143680947038 a23.663629633991437,23.663629633991437 0 0,0 -0.22649124148300545,0.3385736752819038 l -2.201101531894255 -1.5000249575824145" fill="#ff1e03" stroke="none" /><path d="M 117.35343817320211 111.8261652097733 l 2.1989556538762516 1.4985625668038471 a23.661032832255188,23.661032832255188 0 0,0 -0.23226018303085694,0.3345881164389519 l -2.1728345636832582 -1.5361919454298187" fill="#ff1d03" stroke="none" /><path d="M 117.14729908036423 112.12312394758627 l 2.1709305423178074 1.5348458041568382 a23.658701010287945,23.658701010287945 0 0,0 -0.23796170188174073,0.3305079911951359 l -2.144189048060464 -1.5719874008031054" fill="#ff1d03" stroke="none" /><path d="M 116.93607887273984 112.41649034213515 l 46.53379181881498 34.11571126013373 a78.69987466036324,78.69987466036324 0 0,0 -0.8103791051339033,1.0856352415875454 l -45.93965144698599 -34.911659381230585" fill="#46fffb" stroke="none" /><path d="M 116.71984013943494 112.70617746262583 l 22.725013407008728 17.269785523186385 a49.54245480622829,49.54245480622829 0 0,0 -0.5218311076866494,0.6745370502262057 l -22.42437548210401 -17.658400567525845" fill="#9aff22" stroke="none" /><path d="M 116.498646956653 112.99209946851258 l 2.0886831546400844 1.6447639236469622 a23.65854202242654,23.65854202242654 0 0,0 -0.25470345610324624,0.31778172393551707 l -2.060061786481984 -1.6804734811607296" fill="#ff1d03" stroke="none" /><path d="M 116.27256486870786 113.27417163493432 l 2.0614580209231352 1.6816124445487377 a23.660343884855774,23.660343884855774 0 0,0 -0.2601556212813113,0.3133742049709368 l -2.03220639974828 -1.716847906633445" fill="#ff1d03" stroke="none" /><path d="M 116.0416608686014 113.55231037782055 l 2.032651712810239 1.7172241158601824 a23.660926840347585,23.660926840347585 0 0,0 -0.2655178400202721,0.3088572334287115 l -2.002791363219188 -1.7519584484504218" fill="#ff1d03" stroke="none" /><path d="M 115.56566222782051 114.09645910891815 l 15.63045095625684 14.155132594681529 a42.087407993135756,42.087407993135756 0 0,0 -0.49092675076515074,0.5328040287447339 l -15.384477797495968 -14.422087878227597" fill="#efff19" stroke="none" /><path d="M 115.32070863581623 114.36230785411682 l 35.75010297172113 33.513722955079245 a70.00244370231417,70.00244370231417 0 0,0 -0.83167386148525,0.8720067187790037 l -35.16792255885691 -34.12413679044076" fill="#3cffa2" stroke="none" /><path d="M 115.07121518719521 114.62390073753431 l 1.905616127234136 1.8490573415867206 a23.65525627329088,23.65525627329088 0 0,0 -0.2860701951102892,0.2897875973155998 l -1.8735053070683114 -1.881585432882985" fill="#ff1d03" stroke="none" /><path d="M 114.81725581225074 114.88116024355365 l 2.246613423427164 2.2563027042900146 a24.184049900317135,24.184049900317135 0 0,0 -0.29752144969014765,0.29118735848621763 l -2.207442021361222 -2.2946401656988042" fill="#ff2503" stroke="none" /><path d="M 114.0293411484842 115.62618273729858 l 12.517041971913995 13.941751299183215 a39.73629549870874,39.73629549870874 0 0,0 -0.5128965124804067,0.4525715388090047 l -12.275203106527002 -14.155145979764509" fill="#fff216" stroke="none" /><path d="M 113.75828350139079 115.86535959552629 l 12.344088848428534 14.234581547883304 a39.84143947104991,39.84143947104991 0 0,0 -0.5219883553024636,0.44484980068428487 l -12.097235016549023 -14.444955738790537" fill="#fff316" stroke="none" /><path d="M 112.92097659922987 116.55440617244103 l 11.457069525287334 14.678842656429483 a39.62076431942259,39.62076431942259 0 0,0 -0.5412409065891607,0.41500044747632336 l -11.202699890204679 -14.873882445733177" fill="#fff116" stroke="none" /><path d="M 112.34349029814194 116.9893568818739 l 10.954137673712586 15.077077048450157 a39.636292133886286,39.636292133886286 0 0,0 -0.5554227428762359,0.39627937965372667 l -10.692987602987465 -15.263400689948103" fill="#fff116" stroke="none" /><path d="M 112.04921762599082 117.19931262002967 l 10.82787575474658 15.455942941474767 a39.871382184947464,39.871382184947464 0 0,0 -0.5654960325884011,0.3889533276824279 l -10.560222837535296 -15.640037058522289" fill="#fff417" stroke="none" /><path d="M 111.7513745106137 117.40417183066458 l 11.879201612405259 17.5934879691458 a42.22843022620019,42.22843022620019 0 0,0 -0.6059283076022941,0.40157624201806486 l -11.574598606063 -17.795362232255187" fill="#eeff19" stroke="none" /><path d="M 111.45004920935366 117.60387380957326 l 34.35014762806101 52.81162142871979 a84.0,84.0 0 0,0 -1.2188727918122781,0.7779422847047646 l -33.4359930342018 -53.39507814224836" fill="#4dd2ff" stroke="none" /><path d="M 111.1453310114006 117.79835938074945 l 8.525352709622387 13.614426634641246 a37.06344456875594,37.06344456875594 0 0,0 -0.543633897587273,0.33394434149884444 l -8.289739612102805 -13.759159442968468" fill="#ffd113" stroke="none" /><line stroke="#e1ed5e" stroke-width="0.3" x1="143.8653032363475" x2="146.44561519142675" y1="172.8068346515853" y2="177.08958963109032" /><path d="M 144.38136562736335 173.6633856474863 a86.0,86.0 0 0,1 -40.68145358897372,12.25698825130547" fill="none" id="id126" stroke="none" /><text fill="#e1ed5e" style="font-size:6.75px; font-family:Arial;" text-anchor="middle"><textPath startOffset="21.466115282336833" xlink:href="#id126">June</textPath></text><path d="M 110.8373102113329 117.98757091392108 l 1.6483647562116628 2.7359259231464566 a24.194119131539324,24.194119131539324 0 0,0 -0.3585708193286636,0.2118499603810743 l -1.6010260658546172 -2.7638944558212803" fill="#ff2503" stroke="none" /><path d="M 110.5260780823613 118.17145234162733 l 10.724412178079396 18.513841837492894 a42.39568545639611,42.39568545639611 0 0,0 -0.6346255238304335,0.3603569351396866 l -10.404137887327764 -18.69570193842721" fill="#ecff1a" stroke="none" /><path d="M 110.21172684928248 118.3499491758327 l 1.2938845571021518 2.32504415880332 a23.660820848439982,23.660820848439982 0 0,0 -0.35759070427416834,0.19498696356475512 l -1.2536710409593346 -2.3469717741278453" fill="#ff1d03" stroke="none" /><path d="M 108.92500713936063 119.00905698771935 l 4.823972477653813 10.274408334140581 a32.350514397234114,32.350514397234114 0 0,0 -0.5061037777561084,0.23232742154507538 l -4.646400704130285 -10.35592282601973" fill="#ff950d" stroke="none" /><path d="M 108.2653958097858 119.30500536409082 l 8.832842623066798 20.63035795776289 a43.44171959252,43.44171959252 0 0,0 -0.6899549206006544,0.28840121276807446 l -8.476416242968682 -20.779344213550935" fill="#e0ff1b" stroke="none" /><line stroke="#e1ed5e" stroke-width="0.3" x1="102.19456741930631" x2="102.32365962044197" y1="184.97166512339345" y2="189.96999836594603" /><path d="M 102.22038585953345 185.97133177190398 a86.0,86.0 0 0,1 -42.740103519485714,-10.115201625700543" fill="none" id="id127" stroke="none" /><text fill="#e1ed5e" style="font-size:6.75px; font-family:Arial;" text-anchor="middle"><textPath startOffset="22.20632615414155" xlink:href="#id127">July</textPath></text><line stroke="#e1ed5e" stroke-width="0.3" x1="58.666819895761336" x2="56.23545636021788" y1="174.27360380694188" y2="178.64263932499728" /><path d="M 58.180547188652646 175.14741091055294 a86.0,86.0 0 0,1 -31.652253787137756,-30.449443065178592" fill="none" id="id128" stroke="none" /><text fill="#e1ed5e" style="font-size:6.75px; font-family:Arial;" text-anchor="middle"><textPath startOffset="22.20632615414155" xlink:href="#id128">August</textPath></text><line stroke="#e1ed5e" stroke-width="0.3" x1="26.63291911575756" x2="22.317208475507996" y1="142.92168965132927" y2="145.44649492493687" /><path d="M 25.769776987707644 143.4266507060508 a86.0,86.0 0 0,1 -11.730757126820373,-40.83630448921669" fill="none" id="id129" stroke="none" /><text fill="#e1ed5e" style="font-size:6.75px; font-family:Arial;" text-anchor="middle"><textPath startOffset="21.46611528233685" xlink:href="#id129">September</textPath></text><line stroke="#e1ed5e" stroke-width="0.3" x1="15.007084014347285" x2="10.007500721073583" y1="101.09737516637583" y2="101.16192664675087" /><path d="M 14.007167355692545 101.11028546245083 a86.0,86.0 0 0,1 10.666146001902534,-42.60595125391555" fill="none" id="id130" stroke="none" /><text fill="#e1ed5e" style="font-size:6.75px; font-family:Arial;" text-anchor="middle"><textPath startOffset="22.20632615414155" xlink:href="#id130">October</textPath></text><line stroke="#e1ed5e" stroke-width="0.3" x1="26.266209847984243" x2="21.928928074336255" y1="57.711370442889674" y2="55.22380399835377" /><path d="M 25.398753493254645 57.213857153982495 a86.0,86.0 0 0,1 29.58750427330803,-30.492523968695096" fill="none" id="id131" stroke="none" /><text fill="#e1ed5e" style="font-size:6.75px; font-family:Arial;" text-anchor="middle"><textPath startOffset="21.46611528233685" xlink:href="#id131">November</textPath></text><line stroke="#e1ed5e" stroke-width="0.3" x1="56.762969772571076" x2="54.21961505331055" y1="26.818313649435495" y2="22.513508569990535" /><path d="M 56.25429882871897 25.957352633546506 a86.0,86.0 0 0,1 42.265352541879196,-11.944610805530505" fill="none" id="id132" stroke="none" /><text fill="#e1ed5e" style="font-size:6.75px; font-family:Arial;" text-anchor="middle"><textPath startOffset="22.20632615414155" xlink:href="#id132">December</textPath></text></svg>