<?xml version="1.0" encoding="utf-8" ?>
<svg baseProfile="full" height="200mm" version="1.1" viewBox="0,0,200,200" width="200mm" xmlns="http://www.w3.org/2000/svg" xmlns:ev="http://www.w3.org/2001/xml-events" xmlns:xlink="http://www.w3.org/1999/xlink"><defs /><rect fill="#1a1a1a" height="200" width="200" x="0" y="0" /><text alignment-baseline="middle" fill="#e1ed5e" style="dominant-baseline: central; font-size:9.0px; font-family:Arial;" text-anchor="middle" x="100.0" y="100.0">2023</text><line stroke="#e1ed5e" stroke-width="0.3" x1="100.0" x2="100.0" y1="15.0" y2="10.0" /><path d="M 100.0 14.0 a86.0,86.0 0 0,1 42.46469731375804,11.215312516191453" fill="none" id="id85" stroke="none" /><text fill="#e1ed5e" style="font-size:6.75px; font-family:Arial;" text-anchor="middle"><textPath startOffset="22.20632615414155" xlink:href="#id85">January</textPath></text><path d="M 107.4271985657038 80.35727306442388 l 0.6637568461533475 -1.7554390616152764 a22.876736382622813,22.876736382622813 0 0,0 0.3671354900385003,0.14244286634288153 l -0.6938755011915149 1.743753491381848" fill="#ff1202" stroke="none" /><line stroke="#e1ed5e" stroke-width="0.3" x1="143.23703022742887" x2="145.7803849466894" y1="26.81831364943548" y2="22.513508569990506" /><path d="M 143.74570117128098 25.957352633546492 a86.0,86.0 0 0,1 28.547481713284135,27.462654790039103" fill="none" id="id86" stroke="none" /><text fill="#e1ed5e" style="font-size:6.75px; font-family:Arial;" text-anchor="middle"><textPath startOffset="19.985693538727396" xlink:href="#id86">February</textPath></text><path d="M 113.34407831869373 83.78471172551755 l 10.947852790798354 -13.30347325230406 a38.22898375713904,38.22898375713904 0 0,0 0.5045178437144481,0.4225191849544024 l -11.17522817147192 13.113052909955838" fill="#ffdf14" stroke="none" /><path d="M 113.89432698308785 84.25364557470407 l 1.7370212324629013 -1.9685553682389747 a23.62534816735789,23.62534816735789 0 0,0 0.30261709863040404,0.2716926190755901 l -1.7706493186892955 1.9383637403940872" fill="#ff1d02" stroke="none" /><path d="M 114.16331599549186 84.49514656593476 l 6.408000113839949 -7.014960522111222 a30.50116501202625,30.50116501202625 0 0,0 0.3845937157265242,0.35743794423049013 l -6.5278017133613195 6.903617991806091" fill="#ff7c0b" stroke="none" /><path d="M 114.42810811169701 84.74124197986012 l 4.213226355910531 -4.455788725120179 a27.132318443219273,27.132318443219273 0 0,0 0.33659159971916414,0.32380085224866095 l -4.2893011992421135 4.3826047861092166" fill="#ff4e07" stroke="none" /><path d="M 114.68862486808459 84.99185889309783 l 2.5114264160175064 -2.566056548498907 a24.590530441754346,24.590530441754346 0 0,0 0.29996255019395707,0.2986744156756397 l -2.555224766378786 2.5224462821731484" fill="#ff2a04" stroke="none" /><path d="M 115.19652480421416 85.50635884689758 l 12.32866565568109 -11.75842886529346 a38.03692009225074,38.03692009225074 0 0,0 0.44780807706679315,0.4776904340996248 l -12.529241054718348 11.54446901431578" fill="#ffdd14" stroke="none" /><path d="M 115.9244219780498 86.31012108654704 l 20.62125086977326 -17.727640465710945 a48.19384533153847,48.19384533153847 0 0,0 0.5353863148138748,0.6337285272030196 l -20.92334779807425 17.370052988878818" fill="#a9ff21" stroke="none" /><path d="M 117.2510076193507 88.02491185347247 l 51.75302285805209 -35.92526443958259 a84.0,84.0 0 0,0 0.8143021373250665,1.1948879069183742 l -52.36374946104589 35.02909850939381" fill="#4dd2ff" stroke="none" /><line stroke="#e1ed5e" stroke-width="0.3" x1="172.23445277983987" x2="176.4835382374775" y1="55.19839476539836" y2="52.563006222186495" /><path d="M 173.08426987136738 54.67131705675599 a86.0,86.0 0 0,1 12.851231095245387,41.99856678651699" fill="none" id="id87" stroke="none" /><text fill="#e1ed5e" style="font-size:6.75px; font-family:Arial;" text-anchor="middle"><textPath startOffset="22.20632615414155" xlink:href="#id87">March</textPath></text><path d="M 118.21658344932153 89.55222093294921 l 2.2418357634154984 -1.285762768081005 a23.584378742737233,23.584378742737233 0 0,0 0.19894249900671795,0.35389650713237214 l -2.263635903714649 1.2469827510138392" fill="#ff1c02" stroke="none" /><path d="M 118.56541770881063 90.18545643968196 l 30.13829448270267 -15.932504653197373 a55.090489859347315,55.090489859347315 0 0,0 0.4359771303434187,0.8421690470900165 l -30.408081046206203 15.411362883847012" fill="#60ff29" stroke="none" /><path d="M 119.04729006885535 91.15688171328212 l 2.3671436437905964 -1.0989978715093187 a23.609820942501656,23.609820942501656 0 0,0 0.16796440693904738,0.3700873061643472 l -2.3857103676929907 1.0580885565029088" fill="#ff1d02" stroke="none" /><path d="M 119.34039704204932 91.81776055985345 l 30.84968394703567 -13.05141255159798 a54.496900889843516,54.496900889843516 0 0,0 0.35806621212908074,0.8670857342277491 l -31.069771846050944 12.518452246916928" fill="#66ff29" stroke="none" /><path d="M 119.85752413597 93.16781622104841 l 42.388165181433216 -14.584080703571649 a65.826911084936,65.826911084936 0 0,0 0.35942341750684903,1.0746302700693973 l -42.63292589271183 13.852277330579938" fill="#37ff74" stroke="none" /><path d="M 120.08093135843002 93.85539295169968 l 3.5421539324891413 -1.0838712423863948 a24.704272040701184,24.704272040701184 0 0,0 0.1209263562824921,0.407703557672684 l -3.5602861858833355 1.0227382979671809" fill="#ff2c04" stroke="none" /><path d="M 120.73433829027371 96.67025291283417 l 1.0486511291607612 -0.16840388122798922 a22.062087123499193,22.062087123499193 0 0,0 0.05698753356564476,0.3754766438296108 l -1.0513945561657059 0.15032812500629628" fill="#ff0601" stroke="none" /><path d="M 120.78858239683441 97.02765380044208 l 4.658495196162812 -0.6660704528886889 a25.705871581427115,25.705871581427115 0 0,0 0.05885910254002301,0.438568680422216 l -4.66927029776067 0.5857834304018086" fill="#ff3a05" stroke="none" /><path d="M 120.83666639777658 97.38593545837742 l 30.9713722853956 -3.885514340493735 a52.21414940264676,52.21414940264676 0 0,0 0.10420364617537117,0.8927532043362842 l -31.03366628457456 3.351817397832598" fill="#7eff26" stroke="none" /><path d="M 120.87857604477298 97.74499172005257 l 23.499945135231396 -2.5381314676162487 a44.63661423947579,44.63661423947579 0 0,0 0.07593086478322074,0.76461344611649 l -23.540153125696847 2.1332424907953236" fill="#d2ff1c" stroke="none" /><path d="M 120.91429891909075 98.10471618934814 l 23.408182448357465 -2.1212831184439143 a44.504102782369415,44.504102782369415 0 0,0 0.0625717431809389,0.7635337552210817 l -23.4412286753579 1.7180354460150635" fill="#d3ff1c" stroke="none" /><line stroke="#e1ed5e" stroke-width="0.3" x1="184.98032266829074" x2="189.97916517819016" y1="98.17113171792111" y2="98.06355123074" /><path d="M 185.9800911702706 98.14961562048488 a86.0,86.0 0 0,1 -9.607161424134198,41.387399972396054" fill="none" id="id88" stroke="none" /><text fill="#e1ed5e" style="font-size:6.75px; font-family:Arial;" text-anchor="middle"><textPath startOffset="21.466115282336823" xlink:href="#id88">April</textPath></text><path d="M 120.99513854157772 99.54816195383933 l 32.09407704210869 -0.6906991842572808 a53.10150847776381,53.10150847776381 0 0,0 0.011801160100204332,0.9140128550955509 l -32.10121120932661 0.13815007110126726" fill="#74ff27" stroke="none" /><path d="M 120.76222939487914 103.15116336523771 l 31.68483612166245 4.808929374644557 a53.047693236595435,53.047693236595435 0 0,0 -0.14479051007153312,0.9016106444287717 l -31.59736385722963 -5.353619248766534" fill="#75ff27" stroke="none" /><path d="M 120.23288151984713 105.62410040840565 l 22.371604179824985 6.218597587349194 a44.21981114333508,44.21981114333508 0 0,0 -0.21016489274337866,0.7316115626833789 l -22.261246650195506 -6.602766625537154" fill="#d7ff1c" stroke="none" /><path d="M 120.02730092923936 106.31721596034902 l 32.360041834336386 10.207335150937679 a54.931725544150694,54.931725544150694 0 0,0 -0.29220473373001904,0.8993136984855644 l -32.179544849590116 -10.76284774940104" fill="#61ff29" stroke="none" /><path d="M 119.9155931802556 106.66101706037122 l 21.75045585653488 7.274709631790671 a43.93477120430767,43.93477120430767 0 0,0 -0.24605390162085225,0.7151478133885016 l -21.622011123970797 -7.6480301482684725" fill="#daff1c" stroke="none" /><path d="M 119.67450827220406 107.3425965602758 l 0.8807754804415031 0.3287085462868621 a21.940114224628573,21.940114224628573 0 0,0 -0.13509439407696894,0.35268883348683416 l -0.8749868067710275 -0.3438209466068401" fill="#ff0400" stroke="none" /><path d="M 119.54520255179757 107.68017299344265 l 0.5878128402080758 0.23097761655837554 a21.631565194152174,21.631565194152174 0 0,0 -0.1391603765357495,0.34538464210231506 l -0.5837498494149338 -0.24106162650350413" fill="#ff0000" stroke="none" /><path d="M 119.41010516605496 108.01547362559984 l 22.081974951406956 9.118831985191804 a44.89072444545626,44.89072444545626 0 0,0 -0.30108640436709266,0.7116793204377655 l -21.921737565847554 -9.497585831295732" fill="#cfff1d" stroke="none" /><path d="M 119.12269723197855 108.67885076344098 l 21.462567795695087 9.740802808276202 a44.569579031763155,44.569579031763155 0 0,0 -0.3230772021617888,0.6958795511593021 l -21.291715976693464 -10.108802426714336" fill="#d2ff1c" stroke="none" /><path d="M 118.97047184881838 109.00673069616215 l 28.370477817747663 13.469630880151849 a52.40565184254026,52.40565184254026 0 0,0 -0.39390768944419413,0.811566511858705 l -28.134416871688753 -13.955986347975829" fill="#7cff26" stroke="none" /><line stroke="#e1ed5e" stroke-width="0.3" x1="174.80103733775053" x2="179.2010983576182" y1="140.37084112569926" y2="142.7455964860345" /><path d="M 175.68104954172406 140.8457921977663 a86.0,86.0 0 0,1 -30.038265399797805,32.042727171017184" fill="none" id="id89" stroke="none" /><text fill="#e1ed5e" style="font-size:6.75px; font-family:Arial;" text-anchor="middle"><textPath startOffset="22.206326154141568" xlink:href="#id89">May</textPath></text><path d="M 116.71984013943494 112.70617746262583 l 2.8654710241044272 2.1776035561733256 a24.599011175009156,24.599011175009156 0 0,0 -0.2591015988137418,0.33492374371376815 l -2.827562608072617 -2.2266052940003465" fill="#ff2b04" stroke="none" /><path d="M 116.498646956653 112.99209946851258 l 2.295462504351283 1.8075953295519733 a23.921737322946875,23.921737322946875 0 0,0 -0.2575369676784361,0.32131696529788817 l -2.2640076246179928 -1.8468401284281117" fill="#ff2103" stroke="none" /><path d="M 116.0416608686014 113.55231037782055 l 2.397793949686096 2.0257034539241796 a24.13893139593582,24.13893139593582 0 0,0 -0.27088190449568444,0.31509685225689493 l -2.362569535619633 -2.0666774053426025" fill="#ff2403" stroke="none" /><path d="M 115.80600337817218 113.82643327865902 l 39.0810782771649 34.18649916293754 a72.92347642756039,72.92347642756039 0 0,0 -0.8345958196305785,0.9376772508444926 l -38.48682360788598 -34.8541505835229" fill="#3fffc1" stroke="none" /><path d="M 115.32070863581623 114.36230785411682 l 20.894162519565363 19.58710929065059 a49.63949855981946,49.63949855981946 0 0,0 -0.5897490325480135,0.6183495028410313 l -20.553906935638388 -19.94386591007413" fill="#99ff23" stroke="none" /><path d="M 115.07121518719521 114.62390073753431 l 1.9384820769284858 1.8809478281868535 a23.7010511833236,23.7010511833236 0 0,0 -0.28662400685922,0.290348605693372 l -1.9058174450137302 -1.9140369278608902" fill="#ff1e03" stroke="none" /><path d="M 114.81725581225074 114.88116024355365 l 0.4535858718837937 0.4555421144942374 a21.642852052381,21.642852052381 0 0,0 -0.26625865992648906,0.2605901387574541 l -0.4456772595815104 -0.46328235617426355" fill="#ff0000" stroke="none" /><path d="M 114.55890576462653 115.13401014063108 l 1.685999364285512 1.7525995352061428 a23.431912619148957,23.431912619148957 0 0,0 -0.2930820846064889,0.277127404256798 l -1.6555814452882154 -1.7813615762088622" fill="#ff1a02" stroke="none" /><path d="M 114.29624159901734 115.38237550388516 l 1.335536610394299 1.4370018510097902 a22.961793148501915,22.961793148501915 0 0,0 -0.29183394935161133,0.26658339341654314 l -1.3106031115758237 -1.4597780110129162" fill="#ff1302" stroke="none" /><path d="M 113.75828350139079 115.86535959552629 l 0.6232756132315024 0.718730045796799 a21.951338724524643,21.951338724524643 0 0,0 -0.28759862468894737,0.24509778727883602 l -0.6108115119655078 -0.7293522232985818" fill="#ff0500" stroke="none" /><path d="M 113.48314897796784 116.09983520530334 l 14.854138424768934 17.736893743911462 a44.13531560245078,44.13531560245078 0 0,0 -0.5866421414643607,0.482766544031518 l -14.546626154759883 -17.98995540680016" fill="#d8ff1c" stroke="none" /><path d="M 112.34349029814194 116.9893568818739 l 16.293531814795752 22.426122610506734 a48.72021201833137,48.72021201833137 0 0,0 -0.6827155704001552,0.48709943225785246 l -15.905088916546712 -22.703266304608807" fill="#a4ff21" stroke="none" /><path d="M 112.04921762599082 117.19931262002967 l 24.505080991497806 34.97908012241247 a63.70872323788219,63.70872323788219 0 0,0 -0.903581171708064,0.6214913691938204 l -23.89934293516686 -35.39571228097138" fill="#34ff5b" stroke="none" /><path d="M 111.45004920935366 117.60387380957326 l 6.378793412288083 9.80707350982601 a32.69904680834216,32.69904680834216 0 0,0 -0.4744759342010044,0.30283299025892546 l -6.2090356760401475 -9.915420928908745" fill="#ff990e" stroke="none" /><line stroke="#e1ed5e" stroke-width="0.3" x1="143.8653032363475" x2="146.44561519142675" y1="172.8068346515853" y2="177.08958963109032" /><path d="M 144.38136562736335 173.6633856474863 a86.0,86.0 0 0,1 -40.68145358897372,12.25698825130547" fill="none" id="id90" stroke="none" /><text fill="#e1ed5e" style="font-size:6.75px; font-family:Arial;" text-anchor="middle"><textPath startOffset="21.466115282336833" xlink:href="#id90">June</textPath></text><path d="M 108.2653958097858 119.30500536409082 l 13.030190450324579 30.433859711935543 a54.10597650179652,54.10597650179652 0 0,0 -0.8593279702432789,0.35919916125525253 l -12.504391020583839 -30.65364391621077" fill="#6aff28" stroke="none" /><line stroke="#e1ed5e" stroke-width="0.3" x1="102.19456741930631" x2="102.32365962044197" y1="184.97166512339345" y2="189.96999836594603" /><path d="M 102.22038585953345 185.97133177190398 a86.0,86.0 0 0,1 -42.740103519485714,-10.115201625700543" fill="none" id="id91" stroke="none" /><text fill="#e1ed5e" style="font-size:6.75px; font-family:Arial;" text-anchor="middle"><textPath startOffset="22.20632615414155" xlink:href="#id91">July</textPath></text><path d="M 100.18074693466247 120.99922214144158 l 0.029052544041648757 3.3753315221854114 a24.375456552079108,24.375456552079108 0 0,0 -0.4195989574082061,0.0 l 0.029052544041646432 -3.3753315221854114" fill="#ff2703" stroke="none" /><path d="M 99.81925306533755 120.99922214144158 l -0.021488040887702856 2.496485734753649 a23.496578210216867,23.496578210216867 0 0,0 -0.40441002451247454,-0.006962285322622691 l 0.06445775529284535 -2.4957459721518664" fill="#ff1b02" stroke="none" /><path d="M 99.45781275523022 120.99299961872073 l -0.07885915955637075 3.053355316764178 a24.054373496718764,24.054373496718764 0 0,0 -0.41382645702768295,-0.014253019912080899 l 0.13140596825869674 -3.051545498426003" fill="#ff2303" stroke="none" /><path d="M 98.73552117531835 120.96189622390904 l -1.2462029634952545 20.658928156659506 a41.69648120836591,41.69648120836591 0 0,0 -0.7160620889627763,-0.04938383407131746 l 1.601627813236961 -20.634415978071903" fill="#f4ff19" stroke="none" /><path d="M 98.01472825383883 120.90594882070398 l -0.3920454332962517 4.128443262102793 a25.147016203268368,25.147016203268368 0 0,0 -0.4305736818726799,-0.04463072263566809 l 0.4630517117745249 -4.121083171011364" fill="#ff3204" stroke="none" /><path d="M 96.58105272829116 120.7198165907248 l -0.8803326445607222 5.33507231452829 a26.407215749933187,26.407215749933187 0 0,0 -0.44785509761419934,-0.07786534935896841 l 0.9720367136469715 -5.319128386648315" fill="#ff4406" stroke="none" /><path d="M 92.06813273071674 119.44442032107085 l -0.913889225614803 2.2403358032184926 a23.41956566926328,23.41956566926328 0 0,0 -0.3719568360415581,-0.15547798763196444 l 0.9523175211538234 -2.2242727725665548" fill="#ff1a02" stroke="none" /><path d="M 91.7346041902142 119.30500536409082 l -0.9541828372953586 2.2286294832367717 a23.424304902552734,23.424304902552734 0 0,0 -0.36930014589278454,-0.16189033122852114 l 0.9924036578458864 -2.2118745987137984" fill="#ff1a02" stroke="none" /><path d="M 90.7491055286396 118.85261126421891 l -1.8514791417405605 3.773172057156919 a25.202951627750448,25.202951627750448 0 0,0 -0.38782073016037943,-0.1944613651287059 l 1.9161537795837005 -3.740742851118911" fill="#ff3304" stroke="none" /><path d="M 90.10565033884886 118.52300852407294 l -7.09506225921984 13.282520146055488 a36.05872670223401,36.05872670223401 0 0,0 -0.5449627280167714,-0.2971571305457784 l 7.322647799105251 -13.158422363749942" fill="#ffc412" stroke="none" /><line stroke="#e1ed5e" stroke-width="0.3" x1="58.666819895761336" x2="56.23545636021788" y1="174.27360380694188" y2="178.64263932499728" /><path d="M 58.180547188652646 175.14741091055294 a86.0,86.0 0 0,1 -31.652253787137756,-30.449443065178592" fill="none" id="id92" stroke="none" /><text fill="#e1ed5e" style="font-size:6.75px; font-family:Arial;" text-anchor="middle"><textPath startOffset="22.20632615414155" xlink:href="#id92">August</textPath></text><line stroke="#e1ed5e" stroke-width="0.3" x1="26.63291911575756" x2="22.317208475507996" y1="142.92168965132927" y2="145.44649492493687" /><path d="M 25.769776987707644 143.4266507060508 a86.0,86.0 0 0,1 -11.730757126820373,-40.83630448921669" fill="none" id="id93" stroke="none" /><text fill="#e1ed5e" style="font-size:6.75px; font-family:Arial;" text-anchor="middle"><textPath startOffset="21.46611528233685" xlink:href="#id93">September</textPath></text><line stroke="#e1ed5e" stroke-width="0.3" x1="15.007084014347285" x2="10.007500721073583" y1="101.09737516637583" y2="101.16192664675087" /><path d="M 14.007167355692545 101.11028546245083 a86.0,86.0 0 0,1 10.666146001902534,-42.60595125391555" fill="none" id="id94" stroke="none" /><text fill="#e1ed5e" style="font-size:6.75px; font-family:Arial;" text-anchor="middle"><textPath startOffset="22.20632615414155" xlink:href="#id94">October</textPath></text><line stroke="#e1ed5e" stroke-width="0.3" x1="26.266209847984243" x2="21.928928074336255" y1="57.711370442889674" y2="55.22380399835377" /><path d="M 25.398753493254645 57.213857153982495 a86.0,86.0 0 0,1 29.58750427330803,-30.492523968695096" fill="none" id="id95" stroke="none" /><text fill="#e1ed5e" style="font-size:6.75px; font-family:Arial;" text-anchor="middle"><textPath startOffset="21.46611528233685" xlink:href="#id95">November</textPath></text><line stroke="#e1ed5e" stroke-width="0.3" x1="56.762969772571076" x2="54.21961505331055" y1="26.818313649435495" y2="22.513508569990535" /><path d="M 56.25429882871897 25.957352633546506 a86.0,86.0 0 0,1 42.265352541879196,-11.944610805530505" fill="none" id="id96" stroke="none" /><text fill="#e1ed5e" style="font-size:6.75px; font-family:Arial;" text-anchor="middle"><textPath startOffset="22.20632615414155" xlink:href="#id96">December</textPath></text></svg>