<?xml version="1.0" encoding="utf-8" ?>
<svg baseProfile="full" height="200mm" version="1.1" viewBox="0,0,200,200" width="200mm" xmlns="http://www.w3.org/2000/svg" xmlns:ev="http://www.w3.org/2001/xml-events" xmlns:xlink="http://www.w3.org/1999/xlink"><defs /><rect fill="#1a1a1a" height="200" width="200" x="0" y="0" /><text alignment-baseline="middle" fill="#e1ed5e" style="dominant-baseline: central; font-size:9.0px; font-family:Arial;" text-anchor="middle" x="100.0" y="100.0">2026</text><line stroke="#e1ed5e" stroke-width="0.3" x1="100.0" x2="100.0" y1="15.0" y2="10.0" /><path d="M 100.0 14.0 a86.0,86.0 0 0,1 42.46469731375804,11.215312516191453" fill="none" id="id121" stroke="none" /><text fill="#e1ed5e" style="font-size:6.75px; font-family:Arial;" text-anchor="middle"><textPath startOffset="22.20632615414155" xlink:href="#id121">January</textPath></text><path d="M 100.72285384407766 79.0124445844662 l 1.1000905417651772 -31.94035889352032 a52.95929794984495,52.95929794984495 0 0,0 0.910796950705304,0.03922083260964953 l -1.6497283248598127 31.916690334386477" fill="red" stroke="none" /><path d="M 101.44485096284872 79.0497635885617 l 2.199703707204819 -31.895547628107487 a52.97130987145137,52.97130987145137 0 0,0 0.9091133219046922,0.07056469072321205 l -2.7484072184718524 31.852957675195807" fill="red" stroke="none" /><path d="M 101.80526077348638 79.07773832637324 l 2.1904758248899174 -25.38675246878185 a46.48107896558991,46.48107896558991 0 0,0 0.7965415421642853,0.07564121733314469 l -2.627142494144447 25.345285706933527" fill="red" stroke="none" /><path d="M 102.16513564639614 79.11191278185805 l 3.2905603406995194 -31.745591324727094 a52.9156757082217,52.9156757082217 0 0,0 0.9051939343178492,0.10170908554386945 l -3.8365209785270937 31.68424628571262" fill="red" stroke="none" /><path d="M 103.59715602781102 79.31037775812273 l 3.283324009007515 -18.884566840818774 a40.16786585182287,40.16786585182287 0 0,0 0.680185193894876,0.12429949654994363 l -3.607904324005292 18.825251862918094" fill="red" stroke="none" /><path d="M 103.95276090670814 79.375362276772 l 5.988699924466186 -31.247720084871393 a52.81641930336876,52.81641930336876 0 0,0 0.89142443489442,0.1788113555541375 l -6.525690768827731 31.140004773240047" fill="red" stroke="none" /><path d="M 105.01212808612495 79.60689891045804 l 5.150494629008914 -20.95608009725217 a42.57973326910919,42.57973326910919 0 0,0 0.7102524803014986,0.18105917166001087 l -5.510455997995438 20.86431792942329" fill="red" stroke="none" /><path d="M 105.36241919743992 79.69619591428918 l 4.867456459704707 -18.42971963116077 a40.06165517656622,40.06165517656622 0 0,0 0.6652182724409758,0.18182928262394032 l -5.183972621369394 18.343203807710534" fill="red" stroke="none" /><path d="M 106.0581310904928 79.89281104454417 l 6.417238177742699 -21.29908030787454 a43.2448144022639,43.2448144022639 0 0,0 0.7108924993367474,0.22087775999129797 l -6.782916049790165 21.18546241300072" fill="red" stroke="none" /><path d="M 106.74666289553966 80.11325718540242 l 6.148304558234665 -18.122997011791657 a40.13751994460668,40.13751994460668 0 0,0 0.6523646604458826,0.2275972205136795 l -6.4593512227438215 18.01447893810577" fill="red" stroke="none" /><path d="M 107.08798089147638 80.2323363322302 l 11.877387855054888 -33.12483653175789 a56.18987265556793,56.18987265556793 0 0,0 0.907647519874136,0.33429424152216236 l -12.445817700701602 32.91547902242941" fill="red" stroke="none" /><path d="M 107.4271985657038 80.35727306442388 l 11.272160679556427 -29.811505945846964 a52.87142126019809,52.87142126019809 0 0,0 0.8485028121467274,0.3292059088308267 l -11.783646656702821 29.61305733312559" fill="red" stroke="none" /><path d="M 107.76421540070413 80.48803036053334 l 11.774998194474865 -29.591323194682623 a52.84802962338562,52.84802962338562 0 0,0 0.8423375226389478,0.34361062532004866 l -12.2826195867022 29.384251683178995" fill="red" stroke="none" /><path d="M 109.08828744355905 81.06846463323043 l 14.118214178736515 -29.409222881677348 a53.62248246379866,53.62248246379866 0 0,0 0.8286683949396152,0.4066239825295428 l -14.622353840686563 29.161843739012973" fill="red" stroke="none" /><path d="M 109.41281617654863 81.2277094730956 l 8.59528374829373 -17.141858574286182 a40.17608453502724,40.17608453502724 0 0,0 0.6155349451853621,0.315300906430921 l -8.889079181067848 16.99136514254276" fill="red" stroke="none" /><path d="M 109.73455568895987 81.39251694778311 l 15.643513341863434 -29.90238267535713 a54.74717764999849,54.74717764999849 0 0,0 0.8312575610617406,0.4440290008467832 l -16.155915949453487 29.628674948008594" fill="red" stroke="none" /><path d="M 110.36928655335952 81.73862282372117 l 26.937294336512817 -47.43933822796388 a75.55372249149531,75.55372249149531 0 0,0 1.12540244141655,0.6519057337697551 l -27.749893510394696 46.96862833680408" fill="red" stroke="none" /><line stroke="#e1ed5e" stroke-width="0.3" x1="143.23703022742887" x2="145.7803849466894" y1="26.81831364943548" y2="22.513508569990506" /><path d="M 143.74570117128098 25.957352633546492 a86.0,86.0 0 0,1 28.547481713284135,27.462654790039103" fill="none" id="id122" stroke="none" /><text fill="#e1ed5e" style="font-size:6.75px; font-family:Arial;" text-anchor="middle"><textPath startOffset="19.985693538727396" xlink:href="#id122">February</textPath></text><path d="M 110.68208982089419 81.91981866633111 l 17.828352276862844 -30.17572848111717 a56.04889062829274,56.04889062829274 0 0,0 0.826422032616104,0.4979100277519663 l -18.345136375696587 29.86437184390659" fill="red" stroke="none" /><path d="M 110.99172775467656 82.1063720568725 l 32.97518326402967 -53.68088382938249 a84.0,84.0 0 0,0 1.225523390510947,0.7674226347082231 l -33.894325806912875 53.10531685335132" fill="red" stroke="none" /><path d="M 111.2981086023043 82.29822771554956 l 17.308891491184124 -27.11941143942554 a53.17235150675858,53.17235150675858 0 0,0 0.7672845630065126,0.4990632231880885 l -17.773143079974915 26.817449292077924" fill="red" stroke="none" /><path d="M 111.60114157652 82.49532879139004 l 22.15661924961404 -33.43156641100089 a61.10717403739049,61.10717403739049 0 0,0 0.8717820228421256,0.5886311133740989 l -22.72880596686271 33.045223385328114" fill="red" stroke="none" /><line stroke="#e1ed5e" stroke-width="0.3" x1="172.23445277983987" x2="176.4835382374775" y1="55.19839476539836" y2="52.563006222186495" /><path d="M 173.08426987136738 54.67131705675599 a86.0,86.0 0 0,1 12.851231095245387,41.99856678651699" fill="none" id="id123" stroke="none" /><text fill="#e1ed5e" style="font-size:6.75px; font-family:Arial;" text-anchor="middle"><textPath startOffset="22.20632615414155" xlink:href="#id123">March</textPath></text><line stroke="#e1ed5e" stroke-width="0.3" x1="184.98032266829074" x2="189.97916517819016" y1="98.17113171792111" y2="98.06355123074" /><path d="M 185.9800911702706 98.14961562048488 a86.0,86.0 0 0,1 -9.607161424134198,41.387399972396054" fill="none" id="id124" stroke="none" /><text fill="#e1ed5e" style="font-size:6.75px; font-family:Arial;" text-anchor="middle"><textPath startOffset="21.466115282336823" xlink:href="#id124">April</textPath></text><line stroke="#e1ed5e" stroke-width="0.3" x1="174.80103733775053" x2="179.2010983576182" y1="140.37084112569926" y2="142.7455964860345" /><path d="M 175.68104954172406 140.8457921977663 a86.0,86.0 0 0,1 -30.038265399797805,32.042727171017184" fill="none" id="id125" stroke="none" /><text fill="#e1ed5e" style="font-size:6.75px; font-family:Arial;" text-anchor="middle"><textPath startOffset="22.206326154141568" xlink:href="#id125">May</textPath></text><line stroke="#e1ed5e" stroke-width="0.3" x1="143.8653032363475" x2="146.44561519142675" y1="172.8068346515853" y2="177.08958963109032" /><path d="M 144.38136562736335 173.6633856474863 a86.0,86.0 0 0,1 -40.68145358897372,12.25698825130547" fill="none" id="id126" stroke="none" /><text fill="#e1ed5e" style="font-size:6.75px; font-family:Arial;" text-anchor="middle"><textPath startOffset="21.466115282336833" xlink:href="#id126">June</textPath></text><line stroke="#e1ed5e" stroke-width="0.3" x1="102.19456741930631" x2="102.32365962044197" y1="184.97166512339345" y2="189.96999836594603" /><path d="M 102.22038585953345 185.97133177190398 a86.0,86.0 0 0,1 -42.740103519485714,-10.115201625700543" fill="none" id="id127" stroke="none" /><text fill="#e1ed5e" style="font-size:6.75px; font-family:Arial;" text-anchor="middle"><textPath startOffset="22.20632615414155" xlink:href="#id127">July</textPath></text><line stroke="#e1ed5e" stroke-width="0.3" x1="58.666819895761336" x2="56.23545636021788" y1="174.27360380694188" y2="178.64263932499728" /><path d="M 58.180547188652646 175.14741091055294 a86.0,86.0 0 0,1 -31.652253787137756,-30.449443065178592" fill="none" id="id128" stroke="none" /><text fill="#e1ed5e" style="font-size:6.75px; font-family:Arial;" text-anchor="middle"><textPath startOffset="22.20632615414155" xlink:href="#id128">August</textPath></text><line stroke="#e1ed5e" stroke-width="0.3" x1="26.63291911575756" x2="22.317208475507996" y1="142.92168965132927" y2="145.44649492493687" /><path d="M 25.769776987707644 143.4266507060508 a86.0,86.0 0 0,1 -11.730757126820373,-40.83630448921669" fill="none" id="id129" stroke="none" /><text fill="#e1ed5e" style="font-size:6.75px; font-family:Arial;" text-anchor="middle"><textPath startOffset="21.46611528233685" xlink:href="#id129">September</textPath></text><line stroke="#e1ed5e" stroke-width="0.3" x1="15.007084014347285" x2="10.007500721073583" y1="101.09737516637583" y2="101.16192664675087" /><path d="M 14.007167355692545 101.11028546245083 a86.0,86.0 0 0,1 10.666146001902534,-42.60595125391555" fill="none" id="id130" stroke="none" /><text fill="#e1ed5e" style="font-size:6.75px; font-family:Arial;" text-anchor="middle"><textPath startOffset="22.20632615414155" xlink:href="#id130">October</textPath></text><line stroke="#e1ed5e" stroke-width="0.3" x1="26.266209847984243" x2="21.928928074336255" y1="57.711370442889674" y2="55.22380399835377" /><path d="M 25.398753493254645 57.213857153982495 a86.0,86.0 0 0,1 29.58750427330803,-30.492523968695096" fill="none" id="id131" stroke="none" /><text fill="#e1ed5e" style="font-size:6.75px; font-family:Arial;" text-anchor="middle"><textPath startOffset="21.46611528233685" xlink:href="#id131">November</textPath></text><line stroke="#e1ed5e" stroke-width="0.3" x1="56.762969772571076" x2="54.21961505331055" y1="26.818313649435495" y2="22.513508569990535" /><path d="M 56.25429882871897 25.957352633546506 a86.0,86.0 0 0,1 42.265352541879196,-11.944610805530505" fill="none" id="id132" stroke="none" /><text fill="#e1ed5e" style="font-size:6.75px; font-family:Arial;" text-anchor="middle"><textPath startOffset="22.20632615414155" xlink:href="#id132">December</textPath></text></svg>