<?xml version="1.0" encoding="utf-8" ?>
<svg baseProfile="full" height="200mm" version="1.1" viewBox="0,0,200,200" width="200mm" xmlns="http://www.w3.org/2000/svg" xmlns:ev="http://www.w3.org/2001/xml-events" xmlns:xlink="http://www.w3.org/1999/xlink"><defs /><rect fill="#1a1a1a" height="200" width="200" x="0" y="0" /><text alignment-baseline="middle" fill="#e1ed5e" style="dominant-baseline: central; font-size:9.0px; font-family:Arial;" text-anchor="middle" x="100.0" y="100.0">2025</text><line stroke="#e1ed5e" stroke-width="0.3" x1="100.0" x2="100.0" y1="15.0" y2="10.0" /><path d="M 100.0 14.0 a86.0,86.0 0 0,1 42.46469731375804,11.215312516191453" fill="none" id="id109" stroke="none" /><text fill="#e1ed5e" style="font-size:6.75px; font-family:Arial;" text-anchor="middle"><textPath startOffset="22.20632615414155" xlink:href="#id109">January</textPath></text><path d="M 106.40334571778207 80.00007090966166 l 0.14191567022272775 -0.4432531783158977 a21.46541748736152,21.46541748736152 0 0,0 0.35092602624520075,0.11569479345786257 l -0.14952451871034597 0.4407446605987989" fill="#ff0000" stroke="none" /><path d="M 107.08798089147638 80.2323363322302 l 1.0229602373635986 -2.852932905338795 a24.030787654982092,24.030787654982092 0 0,0 0.3881746618179098,0.14296800388826553 l -1.071917224954085 2.8349016336442046" fill="#ff2503" stroke="none" /><path d="M 107.4271985657038 80.35727306442388 l 1.257065087116043 -3.3245625558587437 a24.554283165571377,24.554283165571377 0 0,0 0.394057466579182,0.15288817498266563 l -1.3141057186948921 3.3024316769855315" fill="#ff2c04" stroke="none" /><path d="M 107.76421540070413 80.48803036053334 l 2.4136062275116443 -6.065546742632089 a27.52812012056593,27.52812012056593 0 0,0 0.43876694496485147,0.17898405363305012 l -2.5176570420648834 6.023101802815459" fill="#ff5607" stroke="none" /><path d="M 108.09893153111575 80.62456947434976 l 0.30997299720981514 -0.7415620504003634 a21.803739717566096,21.803739717566096 0 0,0 0.345035088050458,0.14772601805674998 l -0.3226918430505884 0.7361165043808225" fill="#ff0500" stroke="none" /><path d="M 109.08828744355905 81.06846463323043 l 1.0629596386895312 -2.214218918390518 a23.456145071456785,23.456145071456785 0 0,0 0.3624853828980655,0.17787000313134693 l -1.1009162885980284 2.195593755124339" fill="#ff1d02" stroke="none" /><path d="M 109.73455568895987 81.39251694778311 l 0.428082416000994 -0.8182742546456861 a21.923486497305294,21.923486497305294 0 0,0 0.33287677462073706,0.17781124474964932 l -0.4421042371500422 0.8107842833942827" fill="#ff0701" stroke="none" /><line stroke="#e1ed5e" stroke-width="0.3" x1="143.23703022742887" x2="145.7803849466894" y1="26.81831364943548" y2="22.513508569990506" /><path d="M 143.74570117128098 25.957352633546492 a86.0,86.0 0 0,1 28.547481713284135,27.462654790039103" fill="none" id="id110" stroke="none" /><text fill="#e1ed5e" style="font-size:6.75px; font-family:Arial;" text-anchor="middle"><textPath startOffset="19.985693538727396" xlink:href="#id110">February</textPath></text><path d="M 110.99172775467656 82.1063720568725 l 0.8567213479077844 -1.3946718289009954 a22.636789839377975,22.636789839377975 0 0,0 0.3302608980266459,0.20680934404609264 l -0.8806013983066936 1.3797181435319585" fill="#ff1101" stroke="none" /><path d="M 111.60114157652 82.49532879139004 l 5.400112264600769 -8.148093793867302 a30.77510332139515,30.77510332139515 0 0,0 0.4390512611544585,0.2964493714140891 l -5.539568220161769 8.053932510154544" fill="#ff810b" stroke="none" /><path d="M 111.90073688211348 82.69761687909136 l 1.0416429753936314 -1.514436123913623 a22.83807966682661,22.83807966682661 0 0,0 0.32198305814548317,0.2255697088126003 l -1.0675571731227655 1.4962815723370873" fill="#ff1402" stroke="none" /><path d="M 114.94478906791727 85.2469230424477 l 17.280653961573424 -17.058977320678437 a45.282292078118665,45.282292078118665 0 0,0 0.5428176732140988,0.5594213272676858 l -17.57173589849063 16.758991797860638" fill="#c9ff1d" stroke="none" /><path d="M 116.60985879189232 87.15038557335679 l 2.920554692034472 -2.259381140728602 a24.692484644280142,24.692484644280142 0 0,0 0.25718288035003284,0.3384225239022679 l -2.9590135126086183 2.2087738409453004" fill="#ff2e04" stroke="none" /><path d="M 117.2510076193507 88.02491185347247 l 2.5096486426548843 -1.7421164244860827 a24.05504598100318,24.05504598100318 0 0,0 0.23319137328313858,0.3421795659888826 l -2.539264481606756 1.6986588352267937" fill="#ff2503" stroke="none" /><path d="M 117.65298651832404 88.62581576622439 l 10.399461349752254 -6.700587982737599 a33.37120348548994,33.37120348548994 0 0,0 0.3069712187360683,0.4855547487428254 l -10.513260164734278 6.520585586280568" fill="#ffa40f" stroke="none" /><line stroke="#e1ed5e" stroke-width="0.3" x1="172.23445277983987" x2="176.4835382374775" y1="55.19839476539836" y2="52.563006222186495" /><path d="M 173.08426987136738 54.67131705675599 a86.0,86.0 0 0,1 12.851231095245387,41.99856678651699" fill="none" id="id111" stroke="none" /><text fill="#e1ed5e" style="font-size:6.75px; font-family:Arial;" text-anchor="middle"><textPath startOffset="22.20632615414155" xlink:href="#id111">March</textPath></text><path d="M 118.3937258080291 89.86733742301442 l 2.8556717549773736 -1.57312110802387 a24.260302316148888,24.260302316148888 0 0,0 0.19834749610448965,0.36750778651764565 l -2.882327350300328 1.5237323381737657" fill="#ff2803" stroke="none" /><path d="M 118.73160827565052 90.50648371742162 l 3.0052204143997825 -1.5230998063272552 a24.369151637899268,24.369151637899268 0 0,0 0.18641239064040818,0.3757960044927995 l -3.0309928179935985 1.4711442133355057" fill="#ff2a04" stroke="none" /><path d="M 119.47837535516314 92.15188598940014 l 2.83325649143681 -1.141559270761983 a24.05458670116457,24.05458670116457 0 0,0 0.15143673889637266,0.38538998249654527 l -2.852486780214883 1.0926202833696534" fill="#ff2503" stroke="none" /><path d="M 120.18372546131832 94.20196356495316 l 2.718752169707255 -0.7809967574140662 a23.828704525994045,23.828704525994045 0 0,0 0.10985399230387637,0.3952032590749232 l -2.731792932577495 0.734082194920191" fill="#ff2203" stroke="none" /><line stroke="#e1ed5e" stroke-width="0.3" x1="184.98032266829074" x2="189.97916517819016" y1="98.17113171792111" y2="98.06355123074" /><path d="M 185.9800911702706 98.14961562048488 a86.0,86.0 0 0,1 -9.607161424134198,41.387399972396054" fill="none" id="id112" stroke="none" /><text fill="#e1ed5e" style="font-size:6.75px; font-family:Arial;" text-anchor="middle"><textPath startOffset="21.466115282336823" xlink:href="#id112">April</textPath></text><path d="M 120.92983693683757 101.71520430193887 l 1.5485524836843731 0.12690418419451313 a22.553743694014916,22.553743694014916 0 0,0 -0.03503928540383823,0.38665559465479443 l -1.5461386020034595 -0.1535411673978781" fill="#ff1001" stroke="none" /><path d="M 120.89721153311464 102.0752229133903 l 2.960361205260216 0.2939822566916455 a23.974922525522175,23.974922525522175 0 0,0 -0.044316729244350456,0.4103178732476112 l -2.954862174514814 -0.34489645182404816" fill="#ff2403" stroke="none" /><path d="M 120.49622156327973 104.57218783832717 l 3.0066560249038523 0.6707087971632344 a24.08055688840229,24.08055688840229 0 0,0 -0.09373005200643479,0.40378661090035056 l -2.994665406966865 -0.7223640654121499" fill="#ff2503" stroke="none" /><path d="M 120.23288151984713 105.62410040840565 l 2.9842777487531036 0.8295347199603955 a24.097424984293028,24.097424984293028 0 0,0 -0.11452859264368165,0.39868905573246327 l -2.9695565192233224 -0.8807812511974408" fill="#ff2603" stroke="none" /><line stroke="#e1ed5e" stroke-width="0.3" x1="174.80103733775053" x2="179.2010983576182" y1="140.37084112569926" y2="142.7455964860345" /><path d="M 175.68104954172406 140.8457921977663 a86.0,86.0 0 0,1 -30.038265399797805,32.042727171017184" fill="none" id="id113" stroke="none" /><text fill="#e1ed5e" style="font-size:6.75px; font-family:Arial;" text-anchor="middle"><textPath startOffset="22.206326154141568" xlink:href="#id113">May</textPath></text><path d="M 111.45004920935366 117.60387380957326 l 34.35014762806101 52.81162142871979 a84.0,84.0 0 0,0 -1.2188727918122781,0.7779422847047646 l -33.4359930342018 -53.39507814224836" fill="#4dd2ff" stroke="none" /><line stroke="#e1ed5e" stroke-width="0.3" x1="143.8653032363475" x2="146.44561519142675" y1="172.8068346515853" y2="177.08958963109032" /><path d="M 144.38136562736335 173.6633856474863 a86.0,86.0 0 0,1 -40.68145358897372,12.25698825130547" fill="none" id="id114" stroke="none" /><text fill="#e1ed5e" style="font-size:6.75px; font-family:Arial;" text-anchor="middle"><textPath startOffset="21.466115282336833" xlink:href="#id114">June</textPath></text><path d="M 105.88484417918355 120.15858648285463 l 3.5388300121893694 12.122293926011503 a33.628274936973284,33.628274936973284 0 0,0 -0.5570585105229552,0.15743029938085149 l -3.3296403335618088 -12.181413018730874" fill="#ffa70f" stroke="none" /><line stroke="#e1ed5e" stroke-width="0.3" x1="102.19456741930631" x2="102.32365962044197" y1="184.97166512339345" y2="189.96999836594603" /><path d="M 102.22038585953345 185.97133177190398 a86.0,86.0 0 0,1 -42.740103519485714,-10.115201625700543" fill="none" id="id115" stroke="none" /><text fill="#e1ed5e" style="font-size:6.75px; font-family:Arial;" text-anchor="middle"><textPath startOffset="22.20632615414155" xlink:href="#id115">July</textPath></text><path d="M 97.65516085044442 120.86867818915974 l -0.7150677495927492 6.3639839656063435 a27.404031058716242,27.404031058716242 0 0,0 -0.4683121545152982,-0.05670608002145904 l 0.8245073271594368 -6.3507323568595355" fill="#ff5407" stroke="none" /><path d="M 96.22490169976321 120.6578951692458 l -1.1064065035641686 6.054419712399732 a27.15468385906405,27.15468385906405 0 0,0 -0.4590853421921428,-0.0879847984634452 l 1.2104594603280063 -6.034477715587819" fill="#ff5007" stroke="none" /><path d="M 95.51606077576429 120.51570834832081 l -1.391180000709534 6.365171722290317 a27.515427295935275,27.515427295935275 0 0,0 -0.4618397001268007,-0.105113212127886 l 1.5005398502291973 -6.340281776584743" fill="#ff5507" stroke="none" /><line stroke="#e1ed5e" stroke-width="0.3" x1="58.666819895761336" x2="56.23545636021788" y1="174.27360380694188" y2="178.64263932499728" /><path d="M 58.180547188652646 175.14741091055294 a86.0,86.0 0 0,1 -31.652253787137756,-30.449443065178592" fill="none" id="id116" stroke="none" /><text fill="#e1ed5e" style="font-size:6.75px; font-family:Arial;" text-anchor="middle"><textPath startOffset="22.20632615414155" xlink:href="#id116">August</textPath></text><path d="M 87.95078237400918 117.19931262002967 l -5.16069574289339 7.366488196496563 a29.994327595759515,29.994327595759515 0 0,0 -0.42031004433238206,-0.299880056707333 l 5.286733115074659 -7.276563877945011" fill="#ff770b" stroke="none" /><line stroke="#e1ed5e" stroke-width="0.3" x1="26.63291911575756" x2="22.317208475507996" y1="142.92168965132927" y2="145.44649492493687" /><path d="M 25.769776987707644 143.4266507060508 a86.0,86.0 0 0,1 -11.730757126820373,-40.83630448921669" fill="none" id="id117" stroke="none" /><text fill="#e1ed5e" style="font-size:6.75px; font-family:Arial;" text-anchor="middle"><textPath startOffset="21.46611528233685" xlink:href="#id117">September</textPath></text><line stroke="#e1ed5e" stroke-width="0.3" x1="15.007084014347285" x2="10.007500721073583" y1="101.09737516637583" y2="101.16192664675087" /><path d="M 14.007167355692545 101.11028546245083 a86.0,86.0 0 0,1 10.666146001902534,-42.60595125391555" fill="none" id="id118" stroke="none" /><text fill="#e1ed5e" style="font-size:6.75px; font-family:Arial;" text-anchor="middle"><textPath startOffset="22.20632615414155" xlink:href="#id118">October</textPath></text><line stroke="#e1ed5e" stroke-width="0.3" x1="26.266209847984243" x2="21.928928074336255" y1="57.711370442889674" y2="55.22380399835377" /><path d="M 25.398753493254645 57.213857153982495 a86.0,86.0 0 0,1 29.58750427330803,-30.492523968695096" fill="none" id="id119" stroke="none" /><text fill="#e1ed5e" style="font-size:6.75px; font-family:Arial;" text-anchor="middle"><textPath startOffset="21.46611528233685" xlink:href="#id119">November</textPath></text><line stroke="#e1ed5e" stroke-width="0.3" x1="56.762969772571076" x2="54.21961505331055" y1="26.818313649435495" y2="22.513508569990535" /><path d="M 56.25429882871897 25.957352633546506 a86.0,86.0 0 0,1 42.265352541879196,-11.944610805530505" fill="none" id="id120" stroke="none" /><text fill="#e1ed5e" style="font-size:6.75px; font-family:Arial;" text-anchor="middle"><textPath startOffset="22.20632615414155" xlink:href="#id120">December</textPath></text></svg>