<?xml version="1.0" encoding="utf-8" ?>
<svg baseProfile="full" height="200mm" version="1.1" viewBox="0,0,200,200" width="200mm" xmlns="http://www.w3.org/2000/svg" xmlns:ev="http://www.w3.org/2001/xml-events" xmlns:xlink="http://www.w3.org/1999/xlink"><defs /><rect fill="#1a1a1a" height="200" width="200" x="0" y="0" /><text alignment-baseline="middle" fill="#e1ed5e" style="dominant-baseline: central; font-size:9.0px; font-family:Arial;" text-anchor="middle" x="100.0" y="100.0">2026</text><line stroke="#e1ed5e" stroke-width="0.3" x1="100.0" x2="100.0" y1="15.0" y2="10.0" /><path d="M 100.0 14.0 a86.0,86.0 0 0,1 42.46469731375804,11.215312516191453" fill="none" id="id121" stroke="none" /><text fill="#e1ed5e" style="font-size:6.75px; font-family:Arial;" text-anchor="middle"><textPath startOffset="22.20632615414155" xlink:href="#id121">January</textPath></text><path d="M 100.72285384407766 79.0124445844662 l 0.6150594584533997 -17.857820877483064 a38.86840968384436,38.86840968384436 0 0,0 0.6684610708460798,0.028785339855846855 l -0.922361361688811 17.844587811103022" fill="red" stroke="none" /><path d="M 101.44485096284872 79.0497635885617 l 1.2298520163080624 -17.832766946382808 a38.875125536510794,38.875125536510794 0 0,0 0.6671893634823367,0.0517867354416389 l -1.5366315691527404 17.808954948752707" fill="red" stroke="none" /><path d="M 101.80526077348638 79.07773832637324 l 1.2246927170651398 -14.193706456456818 a35.24644430106321,35.24644430106321 0 0,0 0.604014745874567,0.05735847817928262 l -1.468832590029951 14.170522433762356" fill="red" stroke="none" /><path d="M 102.16513564639614 79.11191278185805 l 1.83974880641315 -17.748926535755487 a38.84402053468735,38.84402053468735 0 0,0 0.6644793116957934,0.07466199296433607 l -2.1449948216186687 17.71462858932055" fill="red" stroke="none" /><path d="M 103.59715602781102 79.31037775812273 l 1.8357029810172405 -10.558341348525438 a31.716733525962916,31.716733525962916 0 0,0 0.5370773897386479,0.09814746006245684 l -2.017175491858789 10.525178407112243" fill="red" stroke="none" /><path d="M 103.95276090670814 79.375362276772 l 3.348275794164895 -17.470567252097062 a38.78852638370691,38.78852638370691 0 0,0 0.6546646036979229,0.13131956073697096 l -3.6485068073299427 17.410343735282883" fill="red" stroke="none" /><path d="M 105.01212808612495 79.60689891045804 l 2.87963609995437 -11.716522219380453 a33.065206048194796,33.065206048194796 0 0,0 0.5515451320228946,0.14060113481727737 l -3.0808901206622896 11.665218088394308" fill="red" stroke="none" /><path d="M 105.36241919743992 79.69619591428918 l 2.7213897588354343 -10.304036754648646 a31.657351249754537,31.657351249754537 0 0,0 0.5256659620178954,0.14368436456624578 l -2.8983536100770406 10.255665849256106" fill="red" stroke="none" /><path d="M 106.0581310904928 79.89281104454417 l 3.5878710783529484 -11.908293274384974 a33.437052206356775,33.437052206356775 0 0,0 0.5496647388128434,0.17078350997999742 l -3.79232118987651 11.844769629522455" fill="red" stroke="none" /><path d="M 106.74666289553966 80.11325718540242 l 3.4375105761081857 -10.132548462546918 a31.69976716133195,31.69976716133195 0 0,0 0.5152238571031748,0.1797514870576706 l -3.611416437274634 10.07187612231704" fill="red" stroke="none" /><path d="M 107.08798089147638 80.2323363322302 l 6.6406349883248215 -18.520061072327014 a40.67462058518248,40.67462058518248 0 0,0 0.6570261997613565,0.2419882942442998 l -6.958443513858755 18.40300951027639" fill="red" stroke="none" /><path d="M 107.4271985657038 80.35727306442388 l 6.302253114587358 -16.66758144589781 a38.81927791960053,38.81927791960053 0 0,0 0.6229881038791467,0.24170970560420785 l -6.588224383466171 16.556629036403056" fill="red" stroke="none" /><path d="M 107.76421540070413 80.48803036053334 l 6.583389037381068 -16.54447750258545 a38.806199680197494,38.806199680197494 0 0,0 0.6185267139493362,0.25231257690082065 l -6.867199620918792 16.42870403950105" fill="red" stroke="none" /><path d="M 109.08828744355905 81.06846463323043 l 7.893478616014096 -16.442665410172125 a39.239195444216904,39.239195444216904 0 0,0 0.6063926848115119,0.29755425690249293 l -8.175342567836038 16.304355993134802" fill="red" stroke="none" /><path d="M 109.41281617654863 81.2277094730956 l 4.805614053363359 -9.583994999782265 a31.721328583050465,31.721328583050465 0 0,0 0.4860002281594061,0.24894819321452108 l -4.969874769111521 9.499854281255244" fill="red" stroke="none" /><path d="M 109.73455568895987 81.39251694778311 l 8.746271764973397 -16.7183905292564 a39.86801133335204,39.86801133335204 0 0,0 0.6053387094621299,0.3233509743875723 l -9.032755520963837 16.565360828367073" fill="red" stroke="none" /><path d="M 110.36928655335952 81.73862282372117 l 15.060612774863742 -26.52328383176609 a51.50092854938704,51.50092854938704 0 0,0 0.7671266062532346,0.4443692449381447 l -15.514936113582305 26.260110429437898" fill="red" stroke="none" /><line stroke="#e1ed5e" stroke-width="0.3" x1="143.23703022742887" x2="145.7803849466894" y1="26.81831364943548" y2="22.513508569990506" /><path d="M 143.74570117128098 25.957352633546492 a86.0,86.0 0 0,1 28.547481713284135,27.462654790039103" fill="none" id="id122" stroke="none" /><text fill="#e1ed5e" style="font-size:6.75px; font-family:Arial;" text-anchor="middle"><textPath startOffset="19.985693538727396" xlink:href="#id122">February</textPath></text><path d="M 110.68208982089419 81.91981866633111 l 9.967812902862285 -16.871217880168356 a40.59579768283446,40.59579768283446 0 0,0 0.5985713768933181,0.3606325571173755 l -10.25674634597324 16.697138713592366" fill="red" stroke="none" /><path d="M 110.99172775467656 82.1063720568725 l 18.43639008861234 -30.012925376507393 a56.22323337167224,56.22323337167224 0 0,0 0.820272471275476,0.5136545462607619 l -18.950281712260082 29.691126488923686" fill="red" stroke="none" /><path d="M 111.2981086023043 82.29822771554956 l 9.677382926967145 -15.162434254496562 a38.987527702190924,38.987527702190924 0 0,0 0.5625955465196517,0.36592779306962075 l -9.936945499271076 14.993607537267414" fill="red" stroke="none" /><path d="M 111.60114157652 82.49532879139004 l 12.387742389784771 -18.69155342341655 a43.42387858725839,43.42387858725839 0 0,0 0.6195042940668049,0.418292064761487 l -12.707651378258117 18.475549446356393" fill="red" stroke="none" /><path d="M 112.48926042617603 83.11751280151076 l 9.17948553925708 -12.408464698231489 a36.43479675709035,36.43479675709035 0 0,0 0.5009851286019731,0.37733161235206203 l -9.391716821617436 12.248616496373579" fill="red" stroke="none" /><path d="M 113.06298171725822 83.55741782278167 l 10.710421052168467 -13.481376772519292 a38.21803237299071,38.21803237299071 0 0,0 0.5115694768380926,0.4136536063306141 l -10.94089392757105 13.29501706892455" fill="red" stroke="none" /><path d="M 113.34407831869373 83.78471172551755 l 2.6114668602370807 -3.173369261380888 a25.109748365921398,25.109748365921398 0 0,0 0.3313798813556302,0.27752112066013296 l -2.665704278551828 3.1279469833269355" fill="red" stroke="none" /><path d="M 113.6212207817346 84.01681056812373 l 18.773188564604734 -22.028526948977323 a49.94285073077678,49.94285073077678 0 0,0 0.6495096308492441,0.5632483514982808 l -19.149591994100742 21.702113604059374" fill="red" stroke="none" /><path d="M 113.89432698308785 84.25364557470407 l 41.68298094926353 -47.23906327588782 a84.0,84.0 0 0,0 1.0759560496160399,0.9660039649228103 l -42.48994798647556 46.51456030219571" fill="red" stroke="none" /><path d="M 114.42810811169701 84.74124197986012 l 27.07896083813126 -28.637941140107674 a60.4132185036609,60.4132185036609 0 0,0 0.7494597965479988,0.7209797304829562 l -27.567903878291677 28.16757832286242" fill="red" stroke="none" /><path d="M 114.68862486808459 84.99185889309783 l 21.070329044648485 -21.528664140510525 a51.12378040227789,51.12378040227789 0 0,0 0.6236229666271921,0.6209449314217687 l -21.437787811443 21.162783358438638" fill="red" stroke="none" /><path d="M 115.19652480421416 85.50635884689758 l 14.44511810463473 -13.776989207736511 a40.96163492018964,40.96163492018964 0 0,0 0.48224069989460416,0.5144207553871355 l -14.680126126499797 13.526299035471322" fill="red" stroke="none" /><path d="M 115.68641384162765 86.03803664274999 l 17.64216601369628 -15.702714330542637 a44.61823996409235,44.61823996409235 0 0,0 0.505690673537619,0.5780918573254036 l -17.909848550811745 15.396706917014287" fill="red" stroke="none" /><path d="M 116.15771136456269 86.58626213691792 l 13.628828057547569 -11.314320625005726 a38.713238140657,38.713238140657 0 0,0 0.4212396805592955,0.5163900404252132 l -13.821566230183272 11.07804641497241" fill="red" stroke="none" /><path d="M 117.04232023915458 87.72973835380427 l 8.65315957585778 -6.23016881340602 a31.662653238701715,31.662653238701715 0 0,0 0.3146474359258459,0.4450464840594509 l -8.75911963158751 6.0802958290147755" fill="red" stroke="none" /><line stroke="#e1ed5e" stroke-width="0.3" x1="172.23445277983987" x2="176.4835382374775" y1="55.19839476539836" y2="52.563006222186495" /><path d="M 173.08426987136738 54.67131705675599 a86.0,86.0 0 0,1 12.851231095245387,41.99856678651699" fill="none" id="id123" stroke="none" /><text fill="#e1ed5e" style="font-size:6.75px; font-family:Arial;" text-anchor="middle"><textPath startOffset="22.20632615414155" xlink:href="#id123">March</textPath></text><line stroke="#e1ed5e" stroke-width="0.3" x1="184.98032266829074" x2="189.97916517819016" y1="98.17113171792111" y2="98.06355123074" /><path d="M 185.9800911702706 98.14961562048488 a86.0,86.0 0 0,1 -9.607161424134198,41.387399972396054" fill="none" id="id124" stroke="none" /><text fill="#e1ed5e" style="font-size:6.75px; font-family:Arial;" text-anchor="middle"><textPath startOffset="21.466115282336823" xlink:href="#id124">April</textPath></text><line stroke="#e1ed5e" stroke-width="0.3" x1="174.80103733775053" x2="179.2010983576182" y1="140.37084112569926" y2="142.7455964860345" /><path d="M 175.68104954172406 140.8457921977663 a86.0,86.0 0 0,1 -30.038265399797805,32.042727171017184" fill="none" id="id125" stroke="none" /><text fill="#e1ed5e" style="font-size:6.75px; font-family:Arial;" text-anchor="middle"><textPath startOffset="22.206326154141568" xlink:href="#id125">May</textPath></text><line stroke="#e1ed5e" stroke-width="0.3" x1="143.8653032363475" x2="146.44561519142675" y1="172.8068346515853" y2="177.08958963109032" /><path d="M 144.38136562736335 173.6633856474863 a86.0,86.0 0 0,1 -40.68145358897372,12.25698825130547" fill="none" id="id126" stroke="none" /><text fill="#e1ed5e" style="font-size:6.75px; font-family:Arial;" text-anchor="middle"><textPath startOffset="21.466115282336833" xlink:href="#id126">June</textPath></text><line stroke="#e1ed5e" stroke-width="0.3" x1="102.19456741930631" x2="102.32365962044197" y1="184.97166512339345" y2="189.96999836594603" /><path d="M 102.22038585953345 185.97133177190398 a86.0,86.0 0 0,1 -42.740103519485714,-10.115201625700543" fill="none" id="id127" stroke="none" /><text fill="#e1ed5e" style="font-size:6.75px; font-family:Arial;" text-anchor="middle"><textPath startOffset="22.20632615414155" xlink:href="#id127">July</textPath></text><line stroke="#e1ed5e" stroke-width="0.3" x1="58.666819895761336" x2="56.23545636021788" y1="174.27360380694188" y2="178.64263932499728" /><path d="M 58.180547188652646 175.14741091055294 a86.0,86.0 0 0,1 -31.652253787137756,-30.449443065178592" fill="none" id="id128" stroke="none" /><text fill="#e1ed5e" style="font-size:6.75px; font-family:Arial;" text-anchor="middle"><textPath startOffset="22.20632615414155" xlink:href="#id128">August</textPath></text><line stroke="#e1ed5e" stroke-width="0.3" x1="26.63291911575756" x2="22.317208475507996" y1="142.92168965132927" y2="145.44649492493687" /><path d="M 25.769776987707644 143.4266507060508 a86.0,86.0 0 0,1 -11.730757126820373,-40.83630448921669" fill="none" id="id129" stroke="none" /><text fill="#e1ed5e" style="font-size:6.75px; font-family:Arial;" text-anchor="middle"><textPath startOffset="21.46611528233685" xlink:href="#id129">September</textPath></text><line stroke="#e1ed5e" stroke-width="0.3" x1="15.007084014347285" x2="10.007500721073583" y1="101.09737516637583" y2="101.16192664675087" /><path d="M 14.007167355692545 101.11028546245083 a86.0,86.0 0 0,1 10.666146001902534,-42.60595125391555" fill="none" id="id130" stroke="none" /><text fill="#e1ed5e" style="font-size:6.75px; font-family:Arial;" text-anchor="middle"><textPath startOffset="22.20632615414155" xlink:href="#id130">October</textPath></text><line stroke="#e1ed5e" stroke-width="0.3" x1="26.266209847984243" x2="21.928928074336255" y1="57.711370442889674" y2="55.22380399835377" /><path d="M 25.398753493254645 57.213857153982495 a86.0,86.0 0 0,1 29.58750427330803,-30.492523968695096" fill="none" id="id131" stroke="none" /><text fill="#e1ed5e" style="font-size:6.75px; font-family:Arial;" text-anchor="middle"><textPath startOffset="21.46611528233685" xlink:href="#id131">November</textPath></text><line stroke="#e1ed5e" stroke-width="0.3" x1="56.762969772571076" x2="54.21961505331055" y1="26.818313649435495" y2="22.513508569990535" /><path d="M 56.25429882871897 25.957352633546506 a86.0,86.0 0 0,1 42.265352541879196,-11.944610805530505" fill="none" id="id132" stroke="none" /><text fill="#e1ed5e" style="font-size:6.75px; font-family:Arial;" text-anchor="middle"><textPath startOffset="22.20632615414155" xlink:href="#id132">December</textPath></text></svg>