<?xml version="1.0" encoding="utf-8" ?>
<svg baseProfile="full" height="200mm" version="1.1" viewBox="0,0,200,200" width="200mm" xmlns="http://www.w3.org/2000/svg" xmlns:ev="http://www.w3.org/2001/xml-events" xmlns:xlink="http://www.w3.org/1999/xlink"><defs /><rect fill="#1a1a1a" height="200" width="200" x="0" y="0" /><text alignment-baseline="middle" fill="#e1ed5e" style="dominant-baseline: central; font-size:9.0px; font-family:Arial;" text-anchor="middle" x="100.0" y="100.0">2021</text><line stroke="#e1ed5e" stroke-width="0.3" x1="100.0" x2="100.0" y1="15.0" y2="10.0" /><path d="M 100.0 14.0 a86.0,86.0 0 0,1 42.46469731375804,11.215312516191453" fill="none" id="id61" stroke="none" /><text fill="#e1ed5e" style="font-size:6.75px; font-family:Arial;" text-anchor="middle"><textPath startOffset="22.20632615414155" xlink:href="#id61">January</textPath></text><line stroke="#e1ed5e" stroke-width="0.3" x1="143.23703022742887" x2="145.7803849466894" y1="26.81831364943548" y2="22.513508569990506" /><path d="M 143.74570117128098 25.957352633546492 a86.0,86.0 0 0,1 28.547481713284135,27.462654790039103" fill="none" id="id62" stroke="none" /><text fill="#e1ed5e" style="font-size:6.75px; font-family:Arial;" text-anchor="middle"><textPath startOffset="19.985693538727396" xlink:href="#id62">February</textPath></text><path d="M 113.89432698308785 84.25364557470407 l 3.9670443210864725 -4.495826676363614 a26.99582339210947,26.99582339210947 0 0,0 0.34578951777507605,0.3104532432515916 l -4.043844826457539 4.426874424342725" fill="red" stroke="none" /><path d="M 116.15771136456269 86.58626213691792 l 10.112879729481365 -8.395466082507951 a34.14359871441214,34.14359871441214 0 0,0 0.37151732343719823,0.45543630983120653 l -10.255895544994972 8.220145603068644" fill="red" stroke="none" /><line stroke="#e1ed5e" stroke-width="0.3" x1="172.23445277983987" x2="176.4835382374775" y1="55.19839476539836" y2="52.563006222186495" /><path d="M 173.08426987136738 54.67131705675599 a86.0,86.0 0 0,1 12.851231095245387,41.99856678651699" fill="none" id="id63" stroke="none" /><text fill="#e1ed5e" style="font-size:6.75px; font-family:Arial;" text-anchor="middle"><textPath startOffset="22.20632615414155" xlink:href="#id63">March</textPath></text><path d="M 119.196687751892 91.48605970444005 l 6.024901995405395 -2.6721097169706196 a27.590873568334377,27.590873568334377 0 0,0 0.1888126121583655,0.43580554115330494 l -6.070005317406442 2.5680050312307117" fill="red" stroke="none" /><path d="M 120.45610955862082 95.25157060432595 l 8.835598649376193 -2.050987077227237 a30.07052101501405,30.07052101501405 0 0,0 0.11270089474546628,0.505216012719216 l -8.869593931123697 1.8985928949580573" fill="red" stroke="none" /><path d="M 120.53481517161879 95.60439243477599 l 6.499395099966084 -1.3912367865027493 a27.64662895470942,27.64662895470942 0 0,0 0.09560560286989672,0.4662068732323854 l -6.522379998750978 1.279154257106952" fill="red" stroke="none" /><path d="M 120.78858239683441 97.02765380044208 l 10.667948340449556 -1.5253005280265692 a31.776440205155808,31.776440205155808 0 0,0 0.07275897051253923,0.5421388419041085 l -10.69262331001993 1.3414433440577964" fill="red" stroke="none" /><path d="M 120.94382443527127 98.46500227214037 l 5.46762167366539 -0.4007284759195297 a26.4822869386551,26.4822869386551 0 0,0 0.02940720382194873,0.4549164271890506 l -5.473709468491754 0.30655298447744384" fill="red" stroke="none" /><path d="M 120.96714384426684 98.82574320788733 l 5.3001941154106245 -0.29683532415113967 a26.30849968170832,26.30849968170832 0 0,0 0.021430642968773134,0.45236700173701044 l -5.3045183666128946 0.20555721579112943" fill="red" stroke="none" /><path d="M 120.98425023603335 99.18683210126433 l 5.416271317890351 -0.2098877928451408 a26.420336509349497,26.420336509349497 0 0,0 0.013698699833260632,0.4545931569478652 l -5.419081712179257 0.11662448847227659" fill="red" stroke="none" /><line stroke="#e1ed5e" stroke-width="0.3" x1="184.98032266829074" x2="189.97916517819016" y1="98.17113171792111" y2="98.06355123074" /><path d="M 185.9800911702706 98.14961562048488 a86.0,86.0 0 0,1 -9.607161424134198,41.387399972396054" fill="none" id="id64" stroke="none" /><text fill="#e1ed5e" style="font-size:6.75px; font-family:Arial;" text-anchor="middle"><textPath startOffset="21.466115282336823" xlink:href="#id64">April</textPath></text><path d="M 120.99513854157772 99.54816195383933 l 5.621840905211948 -0.12098808518965838 a26.623142651602585,26.623142651602585 0 0,0 0.0059166674885272755,0.4582524173827793 l -5.62309057981819 0.024199409746416378" fill="red" stroke="none" /><path d="M 120.95626037817324 101.35467743843564 l 5.2073138422042 0.3366168605270288 a26.218182476878567,26.218182476878567 0 0,0 -0.03298926698121384,0.45011233786401755 l -5.200748016558649 -0.42620233488781667" fill="red" stroke="none" /><path d="M 120.92983693683757 101.71520430193887 l 10.738485266632129 0.8800210045218636 a31.774483875809317,31.774483875809317 0 0,0 -0.04936454116837328,0.5447335983121288 l -10.72174612918668 -1.064735991382563" fill="red" stroke="none" /><path d="M 120.8583938346157 102.4346265915055 l 5.365974269286369 0.6263254855058993 a26.402403490339978,26.402403490339978 0 0,0 -0.056574681396240396,0.45095587505359364 l -5.35439807864328 -0.7185991148468878" fill="red" stroke="none" /><path d="M 120.64145759157962 103.86396538481128 l 6.277078160874634 1.1750339153020215 a27.386111096734794,27.386111096734794 0 0,0 -0.09072636116836896,0.46261176097899503 l -6.255921866730601 -1.2829094033489614" fill="red" stroke="none" /><path d="M 120.5718875245553 104.21870165774334 l 6.0131719117262445 1.233128378813823 a27.138309379512364,27.138309379512364 0 0,0 -0.09778315555210788,0.45681034905077056 l -5.9910547174496935 -1.3364525472807625" fill="red" stroke="none" /><path d="M 120.49622156327973 104.57218783832717 l 6.103072738300767 1.3614409301896562 a27.25308070117328,27.25308070117328 0 0,0 -0.10607863776966077,0.4569839951758124 l -6.078733534600554 -1.4662935827140333" fill="red" stroke="none" /><path d="M 119.9155931802556 106.66101706037122 l 5.343904295248046 1.7873350473400984 a26.634880627681543,26.634880627681543 0 0,0 -0.1491669608832317,0.43354901183331146 l -5.312346503421583 -1.8790567622627103" fill="red" stroke="none" /><path d="M 119.79798401119884 107.00284435728193 l 15.218972074088795 5.3831790475423436 a37.14297765747675,37.14297765747675 0 0,0 -0.21839317212968065,0.6009242135657037 l -15.124054640953888 -5.644351058114178" fill="red" stroke="none" /><path d="M 119.41010516605496 108.01547362559984 l 20.985865881278297 8.666189752332501 a43.704832340504815,43.704832340504815 0 0,0 -0.29313251201498797,0.6928786684592078 l -20.833582388071 -9.026142946457872" fill="red" stroke="none" /><path d="M 119.12269723197855 108.67885076344098 l 9.074371498159502 4.118410444361788 a30.965215636143444,30.965215636143444 0 0,0 -0.22446151499281816,0.4834701342607245 l -9.002135366326852 -4.274000645901344" fill="red" stroke="none" /><path d="M 118.97047184881838 109.00673069616215 l 4.756878780426614 2.2584533727483125 a26.26578649097656,26.26578649097656 0 0,0 -0.19742708857399432,0.4067582784344596 l -4.717298435237906 -2.3400006071480477" fill="red" stroke="none" /><line stroke="#e1ed5e" stroke-width="0.3" x1="174.80103733775053" x2="179.2010983576182" y1="140.37084112569926" y2="142.7455964860345" /><path d="M 175.68104954172406 140.8457921977663 a86.0,86.0 0 0,1 -30.038265399797805,32.042727171017184" fill="none" id="id65" stroke="none" /><text fill="#e1ed5e" style="font-size:6.75px; font-family:Arial;" text-anchor="middle"><textPath startOffset="22.206326154141568" xlink:href="#id65">May</textPath></text><path d="M 117.75023020441432 111.22182372390056 l 3.934706782900596 2.487550043827908 a25.655085679979713,25.655085679979713 0 0,0 -0.23919719075167178,0.37123935191953705 l -3.8913047287718743 -2.5549109956688985" fill="red" stroke="none" /><path d="M 117.35343817320211 111.8261652097733 l 5.249707161821608 3.577614048523532 a27.352853497844414,27.352853497844414 0 0,0 -0.26849963840822083,0.386793754776345 l -5.18734661625125 -3.6674490654868968" fill="red" stroke="none" /><path d="M 117.14729908036423 112.12312394758627 l 7.491354911110538 5.296380712619089 a30.174532525269257,30.174532525269257 0 0,0 -0.30349862023602375,0.42153303876837217 l -7.399076498498912 -5.424547356838593" fill="red" stroke="none" /><path d="M 116.93607887273984 112.41649034213515 l 4.723491759987771 3.4629733517269026 a26.85692400850848,26.85692400850848 0 0,0 -0.2765479632412402,0.3704811895839032 l -4.663182530051438 -3.543767420820121" fill="red" stroke="none" /><path d="M 116.71984013943494 112.70617746262583 l 6.580583084911982 5.000888512518469 a29.265165434041165,29.265165434041165 0 0,0 -0.308250242237873,0.3984549906432644 l -6.49352602545604 -5.113421497274986" fill="red" stroke="none" /><path d="M 116.498646956653 112.99209946851258 l 2.6223608790324473 2.0650162084344177 a24.337823920007867,24.337823920007867 0 0,0 -0.26201647847031895,0.32690584376703336 l -2.586426488507274 -2.1098498857797012" fill="red" stroke="none" /><path d="M 116.0416608686014 113.55231037782055 l 5.749523072122224 4.857310090026492 a28.526651105740118,28.526651105740118 0 0,0 -0.32011995285374695,0.3723718263005946 l -5.665060609697698 -4.955559015488615" fill="red" stroke="none" /><path d="M 115.07121518719521 114.62390073753431 l 5.966584727844104 5.78949618317531 a29.313747612812406,29.313747612812406 0 0,0 -0.3545000486204583,0.3591066776403614 l -5.8660440541681105 -5.891343354796336" fill="red" stroke="none" /><path d="M 114.81725581225074 114.88116024355365 l 3.8847760568939784 3.901530468628554 a26.505762890813013,26.505762890813013 0 0,0 -0.32608405262654516,0.3191418770905134 l -3.817042051891639 -3.9678224486416394" fill="red" stroke="none" /><path d="M 114.0293411484842 115.62618273729858 l 5.0413531517167325 5.61516786556247 a28.54621439920505,28.54621439920505 0 0,0 -0.3684604623082193,0.3251235178236435 l -4.943950336501926 -5.701114525158402" fill="red" stroke="none" /><path d="M 113.20401910651253 116.32954008644616 l 4.881111447222428 6.036518457059553 a28.76304090177467,28.76304090177467 0 0,0 -0.3876744387576993,0.30799202042345436 l -4.776479515747377 -6.1196443914881336" fill="red" stroke="none" /><path d="M 112.92097659922987 116.55440617244103 l 3.2164851978654156 4.120973519624059 a26.227638068719948,26.227638068719948 0 0,0 -0.35828361339934,0.27471659675757754 l -3.145072855972582 -4.175729458209008" fill="red" stroke="none" /><path d="M 112.34349029814194 116.9893568818739 l 3.6605198975438915 5.038273406504404 a27.227648419668874,27.227648419668874 0 0,0 -0.3815406122308121,0.2722190962951264 l -3.573251957464195 -5.100536764643749" fill="red" stroke="none" /><path d="M 112.04921762599082 117.19931262002967 l 4.5281146795007 6.463528369185198 a28.891832583752116,28.891832583752116 0 0,0 -0.40977302027137247,0.28184561985253864 l -4.416184774606444 -6.540514778402831" fill="red" stroke="none" /><path d="M 111.7513745106137 117.40417183066458 l 3.293345528906227 4.877552956130024 a26.885290784032627,26.885290784032627 0 0,0 -0.3857723021410618,0.25566884633841214 l -3.208898528025201 -4.933519823559755" fill="red" stroke="none" /><path d="M 111.1453310114006 117.79835938074945 l 4.176665482553447 6.669859620644482 a28.869660851158528,28.869660851158528 0 0,0 -0.4234502872884169,0.2601177519901169 l -4.061235995332722 -6.740765839462977" fill="red" stroke="none" /><line stroke="#e1ed5e" stroke-width="0.3" x1="143.8653032363475" x2="146.44561519142675" y1="172.8068346515853" y2="177.08958963109032" /><path d="M 144.38136562736335 173.6633856474863 a86.0,86.0 0 0,1 -40.68145358897372,12.25698825130547" fill="none" id="id66" stroke="none" /><text fill="#e1ed5e" style="font-size:6.75px; font-family:Arial;" text-anchor="middle"><textPath startOffset="21.466115282336833" xlink:href="#id66">June</textPath></text><path d="M 109.89434966115114 118.52300852407294 l 2.67674217073731 5.011073970832785 a26.681180422215206,26.681180422215206 0 0,0 -0.40696308669368986,0.2129038526948309 l -2.5900881815171246 -5.056407242472333" fill="red" stroke="none" /><path d="M 109.57404056367764 118.69057910512821 l 2.3724636924364857 4.631557598132373 a26.203836061670955,26.203836061670955 0 0,0 -0.4032222489071682,0.20218400635863024 l -2.292387535846557 -4.671709445400305" fill="red" stroke="none" /><path d="M 107.59598834532513 119.57807347666477 l 5.185049580225659 13.364064957298556 a35.334677231535196,35.334677231535196 0 0,0 -0.5689384100859971,0.2151238245699601 l -4.954240949379386 -13.451337031975147" fill="red" stroke="none" /><path d="M 106.2309692047433 120.05430185196036 l 4.603207951561045 14.815371207046807 a36.5140177725793,36.5140177725793 0 0,0 -0.6018293016582538,0.18132623170859088 l -4.347503675462546 -14.892412807861124" fill="red" stroke="none" /><path d="M 105.88484417918355 120.15858648285463 l 4.0506406536349715 13.875505865746817 a35.45466543145343,35.45466543145343 0 0,0 -0.5873130023277009,0.16598052096882301 l -3.8111964832026652 -13.94317518005416" fill="red" stroke="none" /><path d="M 104.48393922423573 120.51570834832081 l 0.7652579707916786 3.5013430278297015 a24.583995362774882,24.583995362774882 0 0,0 -0.41419178435858706,0.08679791552362871 l -0.7048747250037135 -3.5139969240798714" fill="red" stroke="none" /><path d="M 104.13013068566511 120.58985236759428 l 4.316011041336876 21.5165177379181 a42.94512444428343,42.94512444428343 0 0,0 -0.7260433320937597,0.13914793259346334 l -3.945000094671412 -21.58762286886003" fill="red" stroke="none" /><path d="M 103.7750983002368 120.6578951692458 l 3.7944213079065228 20.76363351962741 a42.10748942909341,42.10748942909341 0 0,0 -0.7141250318524478,0.12415979049338906 l -3.436447304582025 -20.82587188864181" fill="red" stroke="none" /><path d="M 103.41894727170886 120.7198165907248 l 3.550418701686226 21.516571761122556 a42.80752928024676,42.80752928024676 0 0,0 -0.7280625822110691,0.11370840197811884 l -3.17952025586664 -21.57449847044778" fill="red" stroke="none" /><path d="M 103.06178313531738 120.77559828337769 l 3.2605259301934018 22.124159002924543 a43.363126814650734,43.363126814650734 0 0,0 -0.739385519479339,0.10247209570363901 l -2.8792118195272325 -22.177005664120784" fill="red" stroke="none" /><line stroke="#e1ed5e" stroke-width="0.3" x1="102.19456741930631" x2="102.32365962044197" y1="184.97166512339345" y2="189.96999836594603" /><path d="M 102.22038585953345 185.97133177190398 a86.0,86.0 0 0,1 -42.740103519485714,-10.115201625700543" fill="none" id="id67" stroke="none" /><text fill="#e1ed5e" style="font-size:6.75px; font-family:Arial;" text-anchor="middle"><textPath startOffset="22.20632615414155" xlink:href="#id67">July</textPath></text><path d="M 99.81925306533755 120.99922214144158 l -0.08790902129140285 10.213291139804946 a31.213669463148033,31.213669463148033 0 0,0 -0.5372323033499041,-0.00924894130643995 l 0.2637010145339749 -10.210264721219346" fill="red" stroke="none" /><path d="M 90.42595943632237 118.69057910512821 l -2.1141089369568715 4.127193744400914 a25.637152660970195,25.637152660970195 0 0,0 -0.3910387252678959,-0.204572979428656 l 2.184838564751263 -4.090191346027542" fill="red" stroke="none" /><line stroke="#e1ed5e" stroke-width="0.3" x1="58.666819895761336" x2="56.23545636021788" y1="174.27360380694188" y2="178.64263932499728" /><path d="M 58.180547188652646 175.14741091055294 a86.0,86.0 0 0,1 -31.652253787137756,-30.449443065178592" fill="none" id="id68" stroke="none" /><text fill="#e1ed5e" style="font-size:6.75px; font-family:Arial;" text-anchor="middle"><textPath startOffset="22.20632615414155" xlink:href="#id68">August</textPath></text><path d="M 88.54995079064634 117.60387380957326 l -3.5320994988811454 5.430425033489482 a27.478058576019954,27.478058576019954 0 0,0 -0.3942778227838185,-0.26130584162856446 l 3.625052020404926 -5.368821170769599" fill="red" stroke="none" /><path d="M 87.95078237400918 117.19931262002967 l -5.554816603195121 7.929064796638857 a30.681221826010898,30.681221826010898 0 0,0 -0.4299354824572038,-0.3067475512381604 l 5.690479413501212 -7.832272983556478" fill="red" stroke="none" /><path d="M 87.36589467227662 116.77436683061367 l -5.554732617886582 7.375047156995229 a30.232896350772954,30.232896350772954 0 0,0 -0.4129975913081363,-0.31666894189433425 l 5.680858937688206 -7.278338873273527" fill="red" stroke="none" /><path d="M 85.44109423537348 115.13401014063109 l -6.6941776219779054 6.958610327731471 a30.65578954450649,30.65578954450649 0 0,0 -0.3771392708943277,-0.36911015386456336 l 6.812966845248027 -6.842350070944337" fill="red" stroke="none" /><path d="M 82.6465618267979 111.8261652097733 l -27.11235028051021 18.476749704718184 a53.809599470031415,53.809599470031415 0 0,0 -0.5150267805985106,-0.769895157243546 l 27.42638016651945 -18.00731763326882" fill="red" stroke="none" /><path d="M 82.24976979558568 111.22182372390057 l -21.48613925954304 13.583692408553025 a46.41989141854579,46.41989141854579 0 0,0 -0.4211728922860468,-0.6790648067334931 l 21.716776791497043 -13.211831270454267" fill="red" stroke="none" /><line stroke="#e1ed5e" stroke-width="0.3" x1="26.63291911575756" x2="22.317208475507996" y1="142.92168965132927" y2="145.44649492493687" /><path d="M 25.769776987707644 143.4266507060508 a86.0,86.0 0 0,1 -11.730757126820373,-40.83630448921669" fill="none" id="id69" stroke="none" /><text fill="#e1ed5e" style="font-size:6.75px; font-family:Arial;" text-anchor="middle"><textPath startOffset="21.46611528233685" xlink:href="#id69">September</textPath></text><path d="M 81.51974371655577 109.97397251340807 l -55.44076885033272 29.92191754022421 a84.0,84.0 0 0,0 -0.6757899671004557,-1.2783399396554953 l 55.94761132565806 -28.96316258548259" fill="red" stroke="none" /><path d="M 80.87730276802145 108.67885076344099 l -44.976377242276456 20.412563208561245 a70.3917730657958,70.3917730657958 0 0,0 -0.4912639002078544,-1.107670405086708 l 45.32108222721559 -19.63534446698184" fill="red" stroke="none" /><path d="M 79.86692584326677 105.97154293290107 l -7.734841608758045 2.294182119745536 a29.06790222493647,29.06790222493647 0 0,0 -0.13815193677730753,-0.4809250157532142 l 7.773186182421457 -2.1606996284877256" fill="red" stroke="none" /><path d="M 79.10278846688536 102.07522291339032 l -8.156249181282938 0.8099662082425495 a29.196367852022835,29.196367852022835 0 0,0 -0.04535920421025065,-0.5005350387385973 l 8.168982981770265 -0.6694497809553861" fill="red" stroke="none" /><path d="M 79.07016306316243 101.71520430193888 l -18.0846555779496 1.4820411233967778 a39.145280743612176,39.145280743612176 0 0,0 -0.049254906156998075,-0.6720440613070595 l 18.107487042770934 -1.1705239255929576" fill="red" stroke="none" /><path d="M 79.04373962182676 101.35467743843564 l -4.879009689068483 0.3153942654088228 a25.88919309177669,25.88919309177669 0 0,0 -0.02491976499819591,-0.44495914419406696 l 4.88371580495421 -0.23136340487931825" fill="red" stroke="none" /><line stroke="#e1ed5e" stroke-width="0.3" x1="15.007084014347285" x2="10.007500721073583" y1="101.09737516637583" y2="101.16192664675087" /><path d="M 14.007167355692545 101.11028546245083 a86.0,86.0 0 0,1 10.666146001902534,-42.60595125391555" fill="none" id="id70" stroke="none" /><text fill="#e1ed5e" style="font-size:6.75px; font-family:Arial;" text-anchor="middle"><textPath startOffset="22.20632615414155" xlink:href="#id70">October</textPath></text><path d="M 79.00019446554 99.90962569577889 l -18.70103115482154 -0.08048134903254713 a39.701204332907224,39.701204332907224 0 0,0 0.00882310657332374,-0.6833593275084976 l 18.6968750411305 0.40237693460151663" fill="red" stroke="none" /><path d="M 79.01574976396665 99.18683210126434 l -12.622870528695005 -0.4891531976780042 a33.632344645195346,33.632344645195346 0 0,0 0.02739657445365239,-0.5782983861717692 l 12.612580346007853 0.7063626904727824" fill="red" stroke="none" /><path d="M 79.32604984820605 96.31383870115002 l -9.13673060807678 -1.6290772938033924 a30.28082641976203,30.28082641976203 0 0,0 0.09590986898674324,-0.5123543552139032 l 9.107335015180176 1.7861097264798682" fill="red" stroke="none" /><path d="M 79.3925641242962 95.95851677861259 l -7.7081509222423295 -1.5117049402974463 a28.854988381059833,28.854988381059833 0 0,0 0.09978426536177219,-0.48658351556454565 l 7.680987360965563 1.6441641120253945" fill="red" stroke="none" /><path d="M 79.46518482838121 95.60439243477599 l -7.9867474738361794 -1.7096140054890268 a29.167675021607607,29.167675021607607 0 0,0 0.10931713058576112,-0.49004726148073946 l 7.956135956248381 1.8468394365197254" fill="red" stroke="none" /><path d="M 79.54389044137918 95.25157060432595 l -8.151148629986363 -1.8921072773988907 a29.367872724732038,29.367872724732038 0 0,0 0.11854439681773003,-0.49144305667704896 l 8.117371432907817 2.0321355657353366" fill="red" stroke="none" /><path d="M 79.81627453868168 94.20196356495316 l -20.062655909102087 -5.763257638819667 a41.8740341270786,41.8740341270786 0 0,0 0.2049716082098482,-0.6910623660389512 l 19.96047840378053 6.107749391605157" fill="red" stroke="none" /><path d="M 79.91906864156998 93.8553929516997 l -6.941893965326045 -2.1241649516414993 a28.259612149943845,28.259612149943845 0 0,0 0.14633704057827773,-0.4639284088355817 l 6.904301440979563 2.243343526903496" fill="red" stroke="none" /><path d="M 80.14247586403 93.16781622104843 l -6.005077103125795 -2.0661080452125264 a27.35057111360684,27.35057111360684 0 0,0 0.1570012898017867,-0.44386378829071327 l 5.9686227325141985 2.1691694599298508" fill="red" stroke="none" /><path d="M 80.2630227832202 92.82701384747504 l -8.794348984838141 -3.1961197905769296 a30.357123264275252,30.357123264275252 0 0,0 0.18271433747118498,-0.48958358456944484 l 8.738030058865329 3.3470265121757157" fill="red" stroke="none" /><path d="M 80.803312248108 91.48605970444005 l -6.585247090456457 -2.920628875370974 a28.2038567635688,28.2038567635688 0 0,0 0.2006471834845087,-0.44209947201607375 l 6.533997590008597 3.0335503562291186" fill="red" stroke="none" /><path d="M 80.95270993114464 91.15688171328213 l -9.382529534743039 -4.356043206378429 a31.34441747447197,31.34441747447197 0 0,0 0.23141405229620474,-0.4874170120770599 l 9.306157288605082 4.51690263409602" fill="red" stroke="none" /><path d="M 81.10775173730289 90.83032412892265 l -6.682622308169986 -3.2435250523222443 a28.42818252863331,28.42818252863331 0 0,0 0.21746204157893678,-0.4383902061094878 l 6.625800253637636 3.358074846930694" fill="red" stroke="none" /><path d="M 81.26839172434947 90.50648371742162 l -7.008829791607998 -3.552201112114073 a28.85759682018849,28.85759682018849 0 0,0 0.22837430348495316,-0.4411464642520909 l 6.946646054962931 3.672320298626499" fill="red" stroke="none" /><line stroke="#e1ed5e" stroke-width="0.3" x1="26.266209847984243" x2="21.928928074336255" y1="57.711370442889674" y2="55.22380399835377" /><path d="M 25.398753493254645 57.213857153982495 a86.0,86.0 0 0,1 29.58750427330803,-30.492523968695096" fill="none" id="id71" stroke="none" /><text fill="#e1ed5e" style="font-size:6.75px; font-family:Arial;" text-anchor="middle"><textPath startOffset="21.46611528233685" xlink:href="#id71">November</textPath></text><path d="M 81.96595687620814 89.24020034530311 l -6.3196945430415585 -3.7705713962888048 a28.359058891723897,28.359058891723897 0 0,0 0.2537247210107479,-0.41705672891822887 l 6.253854023744594 3.878795898414108" fill="red" stroke="none" /><path d="M 82.15384107792192 88.93136811851018 l -5.88643663626186 -3.650914491178969 a27.92671010614898,27.92671010614898 0 0,0 0.25688903429271265,-0.40633676021604814 l 5.822720005723185 3.7516988991092326" fill="red" stroke="none" /><path d="M 82.34701348167596 88.62581576622439 l -6.278527921817969 -4.045385364427375 a28.468939390018576,28.468939390018576 0 0,0 0.2689682553700535,-0.4096571057799176 l 6.207963031089995 4.152860534184959" fill="red" stroke="none" /><path d="M 83.39014120810768 87.1503855733568 l -18.563560346932654 -14.361024728292218 a44.4700831698746,44.4700831698746 0 0,0 0.4735977445994847,-0.6014210410373785 l 18.313608521739198 14.678438163282644" fill="red" stroke="none" /><path d="M 85.05521093208273 85.24692304244772 l -5.2039413995442585 -5.1371851152375045 a28.31243304229915,28.31243304229915 0 0,0 0.3453634169331945,-0.34388031666475094 l 5.1147421824437505 5.226001282552365" fill="red" stroke="none" /><path d="M 85.57189188830299 84.74124197986013 l -2.789234610965892 -2.949815433918426 a25.059709448863725,25.059709448863725 0 0,0 0.3159815950690793,-0.2936704556984374 l 2.7380451321019565 2.9973904756915113" fill="red" stroke="none" /><path d="M 87.22198572758235 83.33499621200491 l -3.919528358482601 -5.111823601751863 a27.441540428218758,27.441540428218758 0 0,0 0.37732620692584784,-0.2841942762639045 l 3.8309559977983634 5.178534467521621" fill="red" stroke="none" /><path d="M 87.51073957382395 83.11751280151077 l -5.122032381344702 -6.9237603474952465 a29.612413893043644,29.612413893043644 0 0,0 0.41239472081385514,-0.2996223029961642 l 5.002092344177066 7.010901885308079" fill="red" stroke="none" /><line stroke="#e1ed5e" stroke-width="0.3" x1="56.762969772571076" x2="54.21961505331055" y1="26.818313649435495" y2="22.513508569990535" /><path d="M 56.25429882871897 25.957352633546506 a86.0,86.0 0 0,1 42.265352541879196,-11.944610805530505" fill="none" id="id72" stroke="none" /><text fill="#e1ed5e" style="font-size:6.75px; font-family:Arial;" text-anchor="middle"><textPath startOffset="22.20632615414155" xlink:href="#id72">December</textPath></text><path d="M 89.63071344664047 81.73862282372117 l -4.464955682168726 -7.863244917369524 a30.042480294380987,30.042480294380987 0 0,0 0.4518902775963197,-0.25147645023113097 l 4.32894131550036 7.93893676516084" fill="red" stroke="none" /><path d="M 89.94658935756843 81.56283822128135 l -2.8629110686760213 -5.250352980557998 a26.980172757337527,26.980172757337527 0 0,0 0.40965532043805436,-0.21882368491583493 l 2.7721107017096616 5.298855391975581" fill="red" stroke="none" /><path d="M 90.26544431104013 81.39251694778311 l -1.5913828896080384 -3.0419087520915387 a24.43303194820385,24.43303194820385 0 0,0 0.37433675170206027,-0.19174982354011227 l 1.5387856503172144 3.068851100944156" fill="red" stroke="none" /><path d="M 91.90106846888425 80.62456947434976 l -3.1605361548770583 -7.561089812570603 a29.195063632458506,29.195063632458506 0 0,0 0.46533612981797673,-0.18982229124714117 l 3.029916155470701 7.614372990001321" fill="red" stroke="none" /><path d="M 92.57280143429618 80.3572730644239 l -2.820558791607703 -7.45953749036983 a28.974976580978062,28.974976580978062 0 0,0 0.46803924602826885,-0.17238280425789224 l 2.6917372198068645 7.506983562434045" fill="red" stroke="none" /><path d="M 98.91598698831166 79.02799685794201 l -2.776382525249869 -53.713656953626746 a74.78536272312763,74.78536272312763 0 0,0 1.2861628262165354,-0.05538487681226408 l 1.851378866644009 53.753489556963196" fill="red" stroke="none" /></svg>